<?xml version="1.0" standalone="no"?>
<!DOCTYPE svg PUBLIC "-//W3C//DTD SVG 1.1//EN" "http://www.w3.org/Graphics/SVG/1.1/DTD/svg11.dtd" >
<svg xmlns="http://www.w3.org/2000/svg" xmlns:xlink="http://www.w3.org/1999/xlink" version="1.1">
<metadata>
Created by FontForge 20190801 at Wed Oct 14 09:54:26 2009
 By Jimmy Wärting
(c)2009 Commercial Type.
</metadata>
<defs>
<font id="Graphik-ThinItalic" horiz-adv-x="600" >
  <font-face 
    font-family="Graphik Thin"
    font-weight="250"
    font-style="italic"
    font-stretch="normal"
    units-per-em="1000"
    panose-1="2 11 2 3 3 2 2 13 2 3"
    ascent="818"
    descent="-182"
    x-height="523"
    cap-height="715"
    bbox="-234 -210 1022 1068"
    underline-thickness="50"
    underline-position="-100"
    slope="-8"
    stemh="17"
    stemv="18"
    unicode-range="U+0020-FB02"
  />
<missing-glyph horiz-adv-x="500" 
 />
    <glyph glyph-name="f_f" unicode="ff" horiz-adv-x="584" 
d="M334 0l80 507h-250l-79 -507h-18l79 507h-85l3 16h85l15 95c19 119 86 149 156 149c21 0 39 -3 55 -8l-2 -16c-18 6 -33 8 -53 8c-63 0 -120 -23 -138 -134l-15 -94h249l16 98c20 123 88 155 158 155c23 0 40 -3 57 -8l-2 -16c-19 6 -33 8 -55 8
c-64 0 -121 -25 -140 -140l-16 -97h166l-3 -16h-165l-80 -507h-18z" />
    <glyph glyph-name=".notdef" horiz-adv-x="500" 
 />
    <glyph glyph-name="Eth" unicode="&#xd0;" horiz-adv-x="677" 
d="M34 352l3 17h74l55 346h171c210 0 312 -132 312 -304c0 -261 -161 -411 -406 -411h-190l55 352h-74zM74 17h169c237 0 387 146 387 394c0 161 -91 287 -293 287h-155l-52 -329h210l-3 -17h-210z" />
    <glyph glyph-name="eth" unicode="&#xf0;" horiz-adv-x="570" 
d="M160 597l-6 13l160 83c-35 29 -73 55 -114 80h27c34 -21 69 -44 103 -71l129 67l6 -13l-123 -64c103 -88 188 -213 188 -395c0 -172 -103 -304 -269 -304c-135 0 -224 107 -224 238c0 156 102 298 270 298c110 0 166 -61 196 -121c-30 116 -92 203 -177 275zM55 231
c0 -118 78 -222 206 -222c154 0 251 124 251 283c0 135 -85 221 -205 221c-159 0 -252 -132 -252 -282z" />
    <glyph glyph-name="Lslash" unicode="&#x141;" horiz-adv-x="534" 
d="M25 268l3 18l84 29l63 400h19l-63 -393l265 94l-2 -18l-266 -94l-45 -287h371l-2 -17h-390l47 297z" />
    <glyph glyph-name="lslash" unicode="&#x142;" horiz-adv-x="206" 
d="M30 355l3 20l87 56l54 342h18l-52 -329l91 59l-3 -20l-91 -59l-67 -424h-18l65 411z" />
    <glyph glyph-name="Scaron" unicode="&#x160;" horiz-adv-x="568" 
d="M266 -6c-131 0 -237 57 -246 196h18c12 -122 97 -179 227 -179c128 0 223 67 223 193c0 95 -58 131 -192 167c-136 37 -194 80 -194 164c0 123 93 186 218 186c120 0 200 -52 211 -159h-18c-14 95 -81 142 -192 142c-117 0 -200 -53 -200 -169c0 -76 53 -113 183 -148
c139 -37 203 -77 203 -183c0 -135 -104 -210 -241 -210zM474 888l-127 -117h-20l-97 117h19l89 -102l115 102h21z" />
    <glyph glyph-name="scaron" unicode="&#x161;" horiz-adv-x="444" 
d="M200 -9c-110 0 -183 50 -189 160h18c6 -92 60 -144 171 -144c88 0 162 41 162 131c0 67 -40 95 -138 123c-103 31 -154 60 -154 135c0 89 77 133 168 133c90 0 161 -34 170 -131h-18c-8 76 -58 115 -152 115c-84 0 -150 -37 -150 -117c0 -63 40 -89 142 -119
c99 -29 150 -58 150 -139c0 -99 -85 -147 -180 -147zM394 737l-127 -124h-19l-96 124h19l88 -109l114 109h21z" />
    <glyph glyph-name="Yacute" unicode="&#xdd;" horiz-adv-x="554" 
d="M228 0l51 325l-194 390h19l187 -373l282 373h22l-297 -391l-51 -324h-19zM329 771l81 117h22l-84 -117h-19z" />
    <glyph glyph-name="yacute" unicode="&#xfd;" horiz-adv-x="480" 
d="M78 -182l122 218l-134 487h18l129 -466l261 466h20l-396 -705h-20zM275 596l98 147h21l-101 -147h-18z" />
    <glyph glyph-name="Thorn" unicode="&#xde;" horiz-adv-x="552" 
d="M184 715l-25 -156h143c133 0 221 -55 221 -172c0 -152 -99 -206 -250 -206h-174l-28 -181h-18l113 715h18zM301 542h-145l-54 -344h171c140 0 231 45 231 189c0 111 -81 155 -203 155z" />
    <glyph glyph-name="thorn" unicode="&#xfe;" horiz-adv-x="586" 
d="M9 -182l151 955h18l-62 -395c38 83 116 152 224 152c115 0 209 -93 209 -237c0 -165 -85 -300 -254 -300c-135 0 -199 103 -211 184l-57 -359h-18zM295 9c157 0 236 127 236 284c0 138 -89 221 -191 221c-154 0 -243 -146 -245 -277c-2 -143 86 -228 200 -228z" />
    <glyph glyph-name="Zcaron" unicode="&#x17d;" horiz-adv-x="577" 
d="M-16 0l1 7l594 691h-449l3 17h479l-1 -7l-594 -691h479l-3 -17h-509zM509 888l-127 -117h-20l-97 117h19l89 -102l115 102h21z" />
    <glyph glyph-name="zcaron" unicode="&#x17e;" horiz-adv-x="457" 
d="M-16 0l1 5l449 502h-339l3 16h370l-1 -5l-449 -502h360l-3 -16h-391zM429 737l-127 -124h-19l-96 124h19l88 -109l114 109h21z" />
    <glyph glyph-name="onehalf" unicode="&#xbd;" horiz-adv-x="659" 
d="M132 370l51 319l-106 -68l3 20l115 74h10l-55 -345h-18zM2 0l588 715h21l-588 -715h-21zM350 0l1 7l151 122c49 39 92 74 92 131c0 41 -29 73 -77 73c-53 0 -92 -32 -106 -92h-17c13 70 64 107 123 107s95 -37 95 -88c0 -64 -46 -100 -99 -143l-125 -101h195l-3 -16h-230
z" />
    <glyph glyph-name="onequarter" unicode="&#xbc;" horiz-adv-x="659" 
d="M132 370l51 319l-106 -68l3 20l115 74h10l-55 -345h-18zM33 0l588 715h21l-588 -715h-21zM518 0l13 80h-187l1 6l217 259h29l-40 -249h49l-3 -16h-48l-13 -80h-18zM374 96h159l38 235z" />
    <glyph glyph-name="onesuperior" unicode="&#xb9;" horiz-adv-x="205" 
d="M129 370l51 319l-106 -68l3 20l115 74h10l-55 -345h-18z" />
    <glyph glyph-name="threequarters" unicode="&#xbe;" horiz-adv-x="687" 
d="M187 367c-66 0 -118 35 -122 98h18c4 -51 44 -82 104 -82c54 0 99 28 99 87c0 38 -27 73 -80 73h-24l3 16h29c43 0 80 24 80 74c0 46 -36 70 -80 70c-56 0 -89 -34 -101 -79h-17c12 54 54 94 118 94c50 0 98 -28 98 -85c0 -43 -25 -72 -68 -83c35 -10 60 -39 60 -80
c0 -66 -53 -103 -117 -103zM88 0l588 715h21l-588 -715h-21zM546 0l13 80h-187l1 6l217 259h29l-40 -249h49l-3 -16h-48l-13 -80h-18zM402 96h159l38 235z" />
    <glyph glyph-name="threesuperior" unicode="&#xb3;" horiz-adv-x="305" 
d="M184 367c-66 0 -118 35 -122 98h18c4 -51 44 -82 104 -82c54 0 99 28 99 87c0 38 -27 73 -80 73h-24l3 16h29c43 0 80 24 80 74c0 46 -36 70 -80 70c-56 0 -89 -34 -101 -79h-17c12 54 54 94 118 94c50 0 98 -28 98 -85c0 -43 -25 -72 -68 -83c35 -10 60 -39 60 -80
c0 -66 -53 -103 -117 -103z" />
    <glyph glyph-name="twosuperior" unicode="&#xb2;" horiz-adv-x="284" 
d="M36 370l1 7l151 122c49 39 92 74 92 131c0 41 -29 73 -77 73c-53 0 -92 -32 -106 -92h-17c13 70 64 107 123 107s95 -37 95 -88c0 -64 -46 -100 -99 -143l-125 -101h195l-3 -16h-230z" />
    <glyph glyph-name="brokenbar" unicode="&#xa6;" horiz-adv-x="226" 
d="M114 -148v445h18v-445h-18zM114 367v409h18v-409h-18z" />
    <glyph glyph-name="minus" unicode="&#x2212;" horiz-adv-x="500" 
d="M47 334l3 16h426l-3 -16h-426z" />
    <glyph glyph-name="multiply" unicode="&#xd7;" horiz-adv-x="500" 
d="M60 156l-11 13l189 168l-146 168l13 12l146 -168l190 168l11 -13l-189 -168l147 -168l-13 -12l-147 168z" />
    <glyph glyph-name="space" unicode=" " horiz-adv-x="225" 
 />
    <glyph glyph-name="exclam" unicode="!" horiz-adv-x="254" 
d="M102 152l87 563h20l-91 -563h-16zM86 -5c-10 0 -17 8 -17 17s7 17 17 17s17 -8 17 -17s-7 -17 -17 -17z" />
    <glyph glyph-name="quotedbl" unicode="&#x22;" horiz-adv-x="223" 
d="M101 548l25 167h20l-29 -167h-16zM194 548l25 167h20l-29 -167h-16z" />
    <glyph glyph-name="numbersign" unicode="#" horiz-adv-x="478" 
d="M257 99l49 211h-148l-49 -211h-17l49 211h-98l2 16h100l44 186h-100l2 16h102l44 187h17l-44 -187h148l44 187h17l-44 -187h100l-2 -16h-102l-44 -186h102l-2 -16h-104l-49 -211h-17zM206 512l-44 -186h148l44 186h-148z" />
    <glyph glyph-name="dollar" unicode="$" horiz-adv-x="582" 
d="M275 -6c-7 0 -15 0 -22 1l-20 -130h-17l20 131c-113 10 -199 69 -207 194h18c11 -111 82 -168 192 -178l56 354c-132 37 -188 86 -188 169c0 123 99 186 224 186c7 0 13 0 20 -1l15 93h17l-15 -94c100 -10 169 -62 179 -157h-18c-13 85 -72 131 -164 140l-51 -324
c135 -36 200 -72 200 -176c0 -135 -102 -208 -239 -208zM495 202c0 92 -57 125 -184 160l-55 -351h18c128 0 221 65 221 191zM126 535c0 -74 50 -118 171 -152l51 320c-5 0 -11 1 -16 1c-117 0 -206 -53 -206 -169z" />
    <glyph glyph-name="percent" unicode="%" horiz-adv-x="745" 
d="M113 552c1 -70 49 -121 119 -121c82 0 141 61 140 149c-1 68 -47 123 -120 123c-82 0 -139 -68 -139 -151zM232 415c-78 0 -137 57 -137 137c0 90 65 167 157 167c77 0 138 -59 138 -139c0 -100 -70 -165 -158 -165zM80 0l590 715h21l-590 -715h-21zM398 132
c1 -70 49 -121 119 -121c82 0 141 61 140 149c-1 68 -47 123 -120 123c-82 0 -139 -68 -139 -151zM517 -5c-78 0 -137 57 -137 137c0 90 65 167 157 167c77 0 138 -59 138 -139c0 -100 -70 -165 -158 -165z" />
    <glyph glyph-name="ampersand" unicode="&#x26;" horiz-adv-x="632" 
d="M559 0h-22l-84 123c-49 -62 -125 -130 -230 -130s-190 61 -190 176c0 130 107 188 220 235c-37 54 -65 102 -65 159c0 86 64 156 156 156c79 0 127 -57 127 -130c0 -106 -111 -157 -192 -191l174 -247l136 202h21l-148 -215zM53 170c0 -99 71 -160 170 -160
c97 0 174 69 220 127l-181 254c-106 -45 -209 -95 -209 -221zM343 702c-80 1 -136 -61 -136 -139c0 -53 27 -100 63 -152c77 34 182 76 182 178c0 66 -39 112 -109 113z" />
    <glyph glyph-name="quotesingle" unicode="'" horiz-adv-x="130" 
d="M101 548l25 167h20l-29 -167h-16z" />
    <glyph glyph-name="parenleft" unicode="(" horiz-adv-x="273" 
d="M165 -148c-59 90 -106 213 -106 361c0 225 101 423 245 560h20c-156 -154 -247 -346 -247 -560c0 -148 49 -268 107 -361h-19z" />
    <glyph glyph-name="parenright" unicode=")" horiz-adv-x="273" 
d="M122 773c59 -90 106 -213 106 -361c0 -225 -101 -423 -245 -560h-20c156 154 247 346 247 560c0 148 -49 268 -107 361h19z" />
    <glyph glyph-name="asterisk" unicode="*" horiz-adv-x="412" 
d="M136 448l-13 13l120 115l-135 62l8 17l133 -64l23 152h19l-25 -154l148 43l4 -17l-150 -41l78 -130l-16 -10l-77 130z" />
    <glyph glyph-name="plus" unicode="+" horiz-adv-x="500" 
d="M217 115l34 219h-204l3 16h204l35 219h18l-35 -219h204l-3 -16h-204l-34 -219h-18z" />
    <glyph glyph-name="comma" unicode="," horiz-adv-x="166" 
d="M-10 -109l-14 7l69 140l18 -8z" />
    <glyph glyph-name="hyphen" unicode="-" horiz-adv-x="332" 
d="M62 271l3 17h204l-3 -17h-204z" />
    <glyph glyph-name="period" unicode="." horiz-adv-x="166" 
d="M42 -5c-10 0 -17 8 -17 17s7 17 17 17s17 -8 17 -17s-7 -17 -17 -17z" />
    <glyph glyph-name="slash" unicode="/" horiz-adv-x="376" 
d="M-44 -148l435 924h20l-435 -924h-20z" />
    <glyph glyph-name="zero" unicode="0" horiz-adv-x="634" 
d="M300 -6c-171 0 -244 107 -244 253c0 30 2 59 7 89l13 82c31 196 137 303 291 303c168 0 236 -109 237 -251c0 -30 -2 -60 -7 -90l-13 -82c-32 -199 -126 -304 -284 -304zM300 11c149 0 235 97 266 288l13 82c5 30 7 59 7 89c-1 134 -63 234 -219 234
c-146 0 -244 -102 -273 -287l-13 -82c-5 -30 -7 -59 -7 -88c1 -137 65 -236 226 -236z" />
    <glyph glyph-name="one" unicode="1" horiz-adv-x="331" 
d="M146 0l109 688l-185 -112l3 19l196 120h8l-113 -715h-18z" />
    <glyph glyph-name="two" unicode="2" horiz-adv-x="518" 
d="M-30 0l1 5l342 286c95 79 162 151 162 258c0 95 -62 155 -166 155c-99 0 -183 -53 -213 -183h-18c28 136 124 200 231 200c114 0 184 -69 184 -172c0 -115 -71 -188 -163 -265l-319 -267h420l-3 -17h-458z" />
    <glyph glyph-name="three" unicode="3" horiz-adv-x="524" 
d="M238 -6c-125 0 -217 70 -218 197h19c2 -117 81 -180 199 -180c113 0 213 65 213 202c0 80 -48 153 -163 153h-43l3 17h48c99 0 180 56 180 174c0 88 -60 147 -159 147c-100 0 -177 -63 -200 -166h-18c21 113 114 183 218 183c102 0 177 -60 177 -164
c0 -97 -54 -164 -147 -183c74 -16 122 -78 122 -162c0 -144 -107 -218 -231 -218z" />
    <glyph glyph-name="four" unicode="4" horiz-adv-x="569" 
d="M366 0l27 173h-381l1 5l451 537h34l-83 -525h99l-3 -17h-99l-27 -173h-19zM46 190h350l81 513z" />
    <glyph glyph-name="five" unicode="5" horiz-adv-x="531" 
d="M232 -6c-120 0 -206 70 -214 179h18c9 -96 83 -162 196 -162c147 0 228 105 228 246c0 104 -70 183 -177 183c-88 0 -146 -38 -190 -88h-8l58 363h376l-3 -17h-358l-49 -311c32 35 96 70 174 70c116 0 195 -83 195 -200c0 -150 -89 -263 -246 -263z" />
    <glyph glyph-name="six" unicode="6" horiz-adv-x="577" 
d="M277 -6c-134 0 -218 76 -217 221c0 32 5 65 9 92l12 75c42 261 149 339 289 339c107 0 178 -50 186 -150h-18c-9 89 -68 133 -168 133c-134 0 -231 -74 -271 -323l-12 -75c44 93 134 138 224 138c118 0 215 -63 215 -191c0 -149 -98 -259 -249 -259zM79 204
c0 -119 75 -193 198 -193c144 0 231 105 231 242c0 114 -84 174 -197 174c-125 0 -232 -87 -232 -223z" />
    <glyph glyph-name="seven" unicode="7" horiz-adv-x="480" 
d="M110 0l396 698h-414l3 17h440l-1 -5l-403 -710h-21z" />
    <glyph glyph-name="eight" unicode="8" horiz-adv-x="555" 
d="M262 -6c-113 0 -226 59 -226 187c0 127 92 195 211 208c-68 17 -127 70 -127 157c0 111 103 175 208 175c102 0 188 -66 188 -166c0 -106 -66 -161 -167 -174c87 -20 151 -82 151 -177c0 -145 -114 -210 -238 -210zM54 181c0 -116 101 -170 209 -170
c117 0 219 60 219 194c0 101 -81 171 -202 171c-116 0 -226 -61 -226 -195zM138 546c-1 -86 68 -153 177 -153c96 0 183 47 183 162c0 89 -73 149 -170 149c-94 0 -189 -53 -190 -158z" />
    <glyph glyph-name="nine" unicode="9" horiz-adv-x="574" 
d="M244 -6c-107 0 -184 53 -196 155h18c12 -91 78 -138 178 -138c139 0 225 70 265 323l12 75c-44 -93 -133 -139 -223 -139c-118 0 -216 66 -216 196c0 149 98 255 249 255c129 0 218 -76 217 -221c0 -32 -5 -65 -9 -92l-12 -75c-43 -270 -138 -339 -283 -339zM100 466
c0 -116 85 -179 198 -179c125 0 231 93 231 224c0 119 -75 193 -198 193c-144 0 -231 -101 -231 -238z" />
    <glyph glyph-name="colon" unicode=":" horiz-adv-x="172" 
d="M45 -5c-10 0 -17 8 -17 17s7 17 17 17s17 -8 17 -17s-7 -17 -17 -17zM102 352c-10 0 -17 8 -17 17s7 17 17 17s17 -8 17 -17s-7 -17 -17 -17z" />
    <glyph glyph-name="semicolon" unicode=";" horiz-adv-x="172" 
d="M-14 -109l-14 7l69 140l18 -8zM102 352c-10 0 -17 8 -17 17s7 17 17 17s17 -8 17 -17s-7 -17 -17 -17z" />
    <glyph glyph-name="less" unicode="&#x3c;" horiz-adv-x="487" 
d="M408 115l-352 211l1 6l416 192l-3 -19l-386 -178l327 -194z" />
    <glyph glyph-name="equal" unicode="=" horiz-adv-x="484" 
d="M34 233l3 16h404l-3 -16h-404zM58 385l3 16h404l-3 -16h-404z" />
    <glyph glyph-name="greater" unicode="&#x3e;" horiz-adv-x="487" 
d="M96 524l352 -211l-1 -6l-416 -192l3 19l386 178l-327 194z" />
    <glyph glyph-name="question" unicode="?" horiz-adv-x="462" 
d="M180 152l11 72c12 81 52 116 124 173c68 54 129 91 129 185c0 88 -75 122 -149 122c-101 0 -173 -58 -195 -172h-18c19 121 103 189 213 189c82 0 168 -39 168 -139c0 -104 -69 -142 -138 -198c-68 -55 -104 -85 -116 -162l-11 -70h-18zM166 -5c-10 0 -17 8 -17 17
s7 17 17 17s17 -8 17 -17s-7 -17 -17 -17z" />
    <glyph glyph-name="at" unicode="@" horiz-adv-x="902" 
d="M642 463l-36 -226c-15 -85 6 -148 85 -148c81 0 154 75 154 234c0 200 -134 349 -367 349c-216 0 -409 -179 -409 -412c0 -205 133 -391 394 -391c158 0 263 63 314 131h18c-47 -74 -164 -147 -332 -147c-270 0 -412 192 -412 407c0 243 206 428 427 428
c239 0 385 -158 385 -364c0 -178 -93 -250 -173 -250c-66 0 -107 41 -105 118c-20 -52 -78 -126 -164 -126c-87 0 -151 62 -151 163c0 119 81 243 199 243c74 0 129 -51 138 -122l17 113h18zM421 82c95 0 175 105 176 220c1 92 -49 154 -128 154c-107 0 -181 -114 -181 -227
c0 -90 53 -147 133 -147z" />
    <glyph glyph-name="A" unicode="A" horiz-adv-x="630" 
d="M540 0l-54 235h-355l-124 -235h-19l380 715h26l164 -715h-18zM379 701l-239 -449h342z" />
    <glyph glyph-name="B" unicode="B" horiz-adv-x="582" 
d="M53 0l113 715h179c114 0 184 -60 184 -159c0 -109 -68 -163 -166 -183c97 -12 150 -73 150 -158c0 -139 -98 -215 -232 -215h-228zM74 17h207c121 0 213 65 213 198c0 91 -63 150 -193 150h-172zM132 382h170c100 0 208 42 208 174c0 88 -63 142 -165 142h-163z" />
    <glyph glyph-name="C" unicode="C" horiz-adv-x="722" 
d="M366 -6c-189 0 -310 121 -310 321c0 217 143 406 375 406c129 0 244 -76 264 -211h-17c-23 123 -124 194 -247 194c-222 0 -355 -179 -355 -389c0 -189 111 -304 290 -304c136 0 246 74 292 210h18c-45 -148 -168 -227 -310 -227z" />
    <glyph glyph-name="D" unicode="D" horiz-adv-x="677" 
d="M53 0l113 715h171c210 0 312 -132 312 -304c0 -261 -161 -411 -406 -411h-190zM74 17h169c237 0 387 146 387 394c0 158 -92 287 -293 287h-155z" />
    <glyph glyph-name="E" unicode="E" horiz-adv-x="566" 
d="M53 0l113 715h397l-3 -17h-378l-51 -320h314l-3 -17h-313l-55 -344h404l-4 -17h-421z" />
    <glyph glyph-name="F" unicode="F" horiz-adv-x="534" 
d="M53 0l113 715h393l-3 -17h-374l-51 -320h297l-3 -17h-296l-57 -361h-19z" />
    <glyph glyph-name="G" unicode="G" horiz-adv-x="744" 
d="M383 -6c-208 0 -325 138 -325 323c0 223 150 404 372 404c131 0 250 -62 270 -195h-19c-17 119 -126 178 -251 178c-211 0 -353 -172 -353 -387c0 -172 109 -306 306 -306c168 0 284 95 304 306h-238l3 17h256c-18 -242 -149 -340 -325 -340z" />
    <glyph glyph-name="H" unicode="H" horiz-adv-x="702" 
d="M53 0l113 715h19l-55 -344h474l55 344h19l-113 -715h-19l56 354h-474l-56 -354h-19z" />
    <glyph glyph-name="I" unicode="I" horiz-adv-x="219" 
d="M58 0l113 715h19l-113 -715h-19z" />
    <glyph glyph-name="J" unicode="J" horiz-adv-x="378" 
d="M114 -4c-57 0 -94 15 -117 29l3 18c30 -18 65 -30 114 -30c79 0 132 40 148 140l89 562h19l-89 -563c-18 -114 -80 -156 -167 -156z" />
    <glyph glyph-name="K" unicode="K" horiz-adv-x="579" 
d="M503 0h-24l-339 368l430 347h26l-431 -348zM53 0l113 715h19l-113 -715h-19z" />
    <glyph glyph-name="L" unicode="L" horiz-adv-x="525" 
d="M53 0l113 715h19l-111 -698h372l-3 -17h-390z" />
    <glyph glyph-name="M" unicode="M" horiz-adv-x="846" 
d="M53 0l113 715h30l181 -680l406 680h31l-113 -715h-19l110 695l-415 -695h-9l-186 695l-110 -695h-19z" />
    <glyph glyph-name="N" unicode="N" horiz-adv-x="701" 
d="M53 0l113 715h29l353 -693l110 693h19l-113 -715h-25l-357 700l-110 -700h-19z" />
    <glyph glyph-name="O" unicode="O" horiz-adv-x="780" 
d="M752 389c0 -204 -148 -395 -372 -395c-202 0 -324 145 -324 337c0 204 151 390 374 390c192 0 322 -144 322 -332zM733 389c1 169 -112 315 -303 315c-211 0 -352 -173 -355 -373c-3 -174 111 -320 305 -320c212 0 352 179 353 378z" />
    <glyph glyph-name="P" unicode="P" horiz-adv-x="552" 
d="M53 0l113 715h156c133 0 221 -51 221 -173c0 -154 -98 -219 -249 -219h-172l-51 -323h-18zM124 340h170c140 0 230 54 230 202c0 115 -84 156 -203 156h-140z" />
    <glyph glyph-name="Q" unicode="Q" horiz-adv-x="780" 
d="M672 -26l-81 87c-58 -42 -129 -67 -211 -67c-202 0 -324 145 -324 337c0 204 151 390 374 390c192 0 322 -144 322 -332c0 -124 -55 -243 -148 -317l80 -86zM380 11c77 0 144 24 199 63l-118 129l12 12l120 -131c87 71 139 184 140 305c1 169 -112 315 -303 315
c-211 0 -352 -173 -355 -373c-3 -174 111 -320 305 -320z" />
    <glyph glyph-name="R" unicode="R" horiz-adv-x="581" 
d="M53 0l113 715h157c134 0 218 -54 218 -169c0 -141 -91 -194 -222 -201l184 -345h-20l-183 343h-175l-54 -343h-18zM128 360h156c126 0 238 33 238 186c0 107 -80 152 -199 152h-142z" />
    <glyph glyph-name="S" unicode="S" horiz-adv-x="568" 
d="M266 -6c-131 0 -237 57 -246 196h18c12 -122 97 -179 227 -179c128 0 223 67 223 193c0 95 -58 131 -192 167c-136 37 -194 80 -194 164c0 123 93 186 218 186c120 0 200 -52 211 -159h-18c-14 95 -81 142 -192 142c-117 0 -200 -53 -200 -169c0 -76 53 -113 183 -148
c139 -37 203 -77 203 -183c0 -135 -104 -210 -241 -210z" />
    <glyph glyph-name="T" unicode="T" horiz-adv-x="557" 
d="M225 0l110 698h-238l3 17h495l-3 -17h-238l-110 -698h-19z" />
    <glyph glyph-name="U" unicode="U" horiz-adv-x="666" 
d="M315 -4c-181 0 -263 101 -237 266l72 453h19l-72 -453c-24 -155 45 -249 219 -249c150 0 224 75 247 223l76 479h19l-76 -479c-25 -160 -104 -240 -267 -240z" />
    <glyph glyph-name="V" unicode="V" horiz-adv-x="616" 
d="M258 0l-166 715h18l162 -692l361 692h19l-372 -715h-22z" />
    <glyph glyph-name="W" unicode="W" horiz-adv-x="910" 
d="M181 0l-83 715h18l81 -687l318 687h13l93 -689l306 689h19l-317 -715h-24l-90 675l-310 -675h-24z" />
    <glyph glyph-name="X" unicode="X" horiz-adv-x="622" 
d="M0 0l318 374l-179 341h19l174 -328l275 328h23l-289 -343l197 -372h-19l-191 359l-305 -359h-23z" />
    <glyph glyph-name="Y" unicode="Y" horiz-adv-x="554" 
d="M228 0l51 325l-194 390h19l187 -373l282 373h22l-297 -391l-51 -324h-19z" />
    <glyph glyph-name="Z" unicode="Z" horiz-adv-x="577" 
d="M-16 0l1 7l594 691h-449l3 17h479l-1 -7l-594 -691h479l-3 -17h-509z" />
    <glyph glyph-name="bracketleft" unicode="[" horiz-adv-x="322" 
d="M33 -148l146 924h185l-3 -16h-166l-141 -892h166l-3 -16h-184z" />
    <glyph glyph-name="backslash" unicode="\" horiz-adv-x="376" 
d="M270 -148l-145 924h19l145 -924h-19z" />
    <glyph glyph-name="bracketright" unicode="]" horiz-adv-x="322" 
d="M-27 -148l3 16h166l141 892h-166l3 16h183l-146 -924h-184z" />
    <glyph glyph-name="asciicircum" unicode="^" horiz-adv-x="445" 
d="M75 438l210 277h16l123 -277h-20l-113 257l-195 -257h-21z" />
    <glyph glyph-name="underscore" unicode="_" horiz-adv-x="384" 
d="M-65 -142l3 17h385l-3 -17h-385z" />
    <glyph glyph-name="grave" unicode="`" horiz-adv-x="400" 
d="M244 596l-55 147h19l53 -147h-17z" />
    <glyph glyph-name="a" unicode="a" horiz-adv-x="515" 
d="M206 -7c-120 0 -173 62 -173 140c0 126 103 159 218 159h175l7 47c16 110 -25 175 -148 175c-84 0 -152 -35 -181 -131h-18c27 103 110 147 199 147c135 0 184 -79 166 -192l-31 -196c-11 -72 -12 -113 -14 -142h-18c1 22 4 58 7 90c-29 -48 -95 -97 -189 -97zM206 9
c99 0 185 61 198 143l19 124h-172c-101 0 -200 -23 -200 -143c0 -70 46 -124 155 -124z" />
    <glyph glyph-name="b" unicode="b" horiz-adv-x="586" 
d="M295 -7c-135 0 -199 103 -211 184l-28 -177h-18l122 773h18l-62 -394c38 82 116 151 224 151c115 0 209 -93 209 -237c0 -165 -85 -300 -254 -300zM295 9c157 0 236 127 236 284c0 138 -89 221 -191 221c-154 0 -243 -146 -245 -277c-2 -143 86 -228 200 -228z" />
    <glyph glyph-name="c" unicode="c" horiz-adv-x="539" 
d="M268 -7c-140 0 -226 98 -226 238c0 164 108 299 269 299c108 0 187 -68 193 -167h-18c-4 86 -73 151 -176 151c-153 0 -250 -130 -250 -283c0 -135 85 -222 208 -222c103 0 182 56 210 161h18c-28 -118 -118 -177 -228 -177z" />
    <glyph glyph-name="d" unicode="d" horiz-adv-x="588" 
d="M250 -7c-120 0 -213 88 -213 232c0 165 101 305 261 305c135 0 194 -106 204 -184l68 427h18l-95 -600c-15 -92 -17 -144 -19 -173h-18c1 35 8 102 14 143c-37 -83 -112 -150 -220 -150zM250 9c154 0 239 146 241 277c2 143 -79 228 -193 228c-152 0 -243 -132 -243 -289
c0 -138 88 -216 195 -216z" />
    <glyph glyph-name="e" unicode="e" horiz-adv-x="529" 
d="M57 219c0 -134 68 -210 196 -210c95 0 165 44 200 132h18c-35 -98 -113 -148 -218 -148c-143 0 -215 86 -215 226c0 161 96 311 261 311c152 0 213 -111 192 -247l-2 -13h-429c-2 -17 -3 -34 -3 -51zM299 514c-135 0 -216 -103 -237 -228h412c18 128 -33 228 -175 228z
" />
    <glyph glyph-name="f" unicode="f" horiz-adv-x="317" 
d="M61 507l3 16h85l16 98c20 122 88 155 158 155c23 0 40 -3 57 -8l-2 -16c-19 6 -33 8 -55 8c-63 0 -121 -25 -140 -140l-16 -97h166l-3 -16h-165l-80 -507h-18l80 507h-86z" />
    <glyph glyph-name="g" unicode="g" horiz-adv-x="594" 
d="M255 33c148 1 244 137 244 283c0 110 -65 198 -192 198c-149 1 -246 -121 -246 -276c0 -115 68 -205 194 -205zM554 523l-80 -508c-22 -137 -113 -200 -242 -200c-108 0 -205 48 -220 155h18c14 -89 91 -139 202 -139c121 0 205 61 224 184l24 153
c-34 -71 -108 -151 -226 -151c-130 0 -211 89 -211 221c0 161 105 292 264 292c113 0 185 -67 204 -166l25 159h18z" />
    <glyph glyph-name="h" unicode="h" horiz-adv-x="559" 
d="M38 0l122 773h18l-59 -373c35 69 109 130 208 130c116 0 186 -75 163 -220l-49 -310h-18l49 310c22 138 -41 204 -145 204c-98 0 -201 -69 -221 -197l-50 -317h-18z" />
    <glyph glyph-name="i" unicode="i" horiz-adv-x="182" 
d="M151 639c-10 0 -17 8 -17 17s7 17 17 17s17 -8 17 -17s-7 -17 -17 -17zM40 0l82 523h18l-82 -523h-18z" />
    <glyph glyph-name="j" unicode="j" horiz-adv-x="182" 
d="M-66 -184l3 16c58 3 80 30 90 92l95 599h18l-95 -599c-13 -80 -45 -105 -111 -108zM151 639c-10 0 -17 8 -17 17s7 17 17 17s17 -8 17 -17s-7 -17 -17 -17z" />
    <glyph glyph-name="k" unicode="k" horiz-adv-x="452" 
d="M368 0l-262 281l323 242h26l-324 -243l260 -280h-23zM38 0l122 773h18l-122 -773h-18z" />
    <glyph glyph-name="l" unicode="l" horiz-adv-x="182" 
d="M40 0l122 773h18l-122 -773h-18z" />
    <glyph glyph-name="m" unicode="m" horiz-adv-x="884" 
d="M38 0l61 389c11 69 13 105 15 134h18c-1 -27 -5 -72 -13 -121c35 66 95 128 191 128c91 0 149 -51 154 -147c31 82 107 147 200 147c113 0 174 -72 151 -220l-49 -310h-18l49 310c22 141 -32 204 -133 204c-95 0 -184 -74 -203 -197l-50 -317h-18l49 310
c22 138 -31 204 -132 204c-95 0 -185 -74 -204 -197l-50 -317h-18z" />
    <glyph glyph-name="n" unicode="n" horiz-adv-x="559" 
d="M38 0l61 389c11 69 13 105 15 134h18c-1 -27 -5 -74 -13 -123c35 69 109 130 208 130c116 0 186 -75 163 -220l-49 -310h-18l49 310c22 138 -41 204 -145 204c-98 0 -201 -69 -221 -197l-50 -317h-18z" />
    <glyph glyph-name="o" unicode="o" horiz-adv-x="567" 
d="M263 -7c-135 0 -226 107 -226 238c0 156 100 298 271 298c140 0 222 -112 222 -237c0 -167 -101 -299 -267 -299zM263 9c154 0 249 124 249 283c0 117 -73 221 -204 221c-162 0 -253 -132 -253 -282c0 -118 80 -222 208 -222z" />
    <glyph glyph-name="p" unicode="p" horiz-adv-x="586" 
d="M340 530c115 0 209 -93 209 -237c0 -165 -85 -300 -254 -300c-135 0 -198 103 -211 182l-57 -357h-18l84 532c14 89 19 144 21 173h18c-1 -27 -9 -99 -17 -148c39 88 117 155 225 155zM295 9c157 0 236 127 236 284c0 138 -89 221 -191 221c-154 0 -243 -146 -245 -277
c-2 -143 86 -228 200 -228z" />
    <glyph glyph-name="q" unicode="q" horiz-adv-x="588" 
d="M419 -182l51 325c-37 -83 -112 -150 -220 -150c-120 0 -213 88 -213 232c0 165 101 305 261 305c135 0 194 -106 204 -184l28 177h18l-111 -705h-18zM250 9c154 0 239 146 241 277c2 143 -79 228 -193 228c-152 0 -243 -132 -243 -289c0 -138 88 -216 195 -216z" />
    <glyph glyph-name="r" unicode="r" horiz-adv-x="316" 
d="M38 0l61 389c11 69 13 105 15 134h18c-1 -27 -5 -76 -14 -129c32 71 95 130 204 133l-3 -16c-103 -3 -193 -67 -217 -218l-46 -293h-18z" />
    <glyph glyph-name="s" unicode="s" horiz-adv-x="444" 
d="M200 -9c-110 0 -183 50 -189 160h18c6 -92 60 -144 171 -144c88 0 162 41 162 131c0 67 -40 95 -138 123c-103 31 -154 60 -154 135c0 89 77 133 168 133c90 0 161 -34 170 -131h-18c-8 76 -58 115 -152 115c-84 0 -150 -37 -150 -117c0 -63 40 -89 142 -119
c99 -29 150 -58 150 -139c0 -99 -85 -147 -180 -147z" />
    <glyph glyph-name="t" unicode="t" horiz-adv-x="319" 
d="M175 -7c-72 0 -109 45 -95 134l60 380h-80l3 16h79l19 119h18l-19 -119h155l-3 -16h-154l-60 -380c-13 -84 19 -118 77 -118c27 0 49 5 67 12l-3 -16c-16 -7 -38 -12 -64 -12z" />
    <glyph glyph-name="u" unicode="u" horiz-adv-x="555" 
d="M513 523l-61 -389c-9 -59 -12 -109 -13 -134h-18c1 31 5 78 11 121c-35 -69 -108 -128 -207 -128c-116 0 -184 75 -161 220l49 310h18l-49 -310c-22 -138 39 -204 143 -204c98 0 200 69 220 197l50 317h18z" />
    <glyph glyph-name="v" unicode="v" horiz-adv-x="493" 
d="M196 0l-130 523h18l127 -505l277 505h19l-285 -523h-26z" />
    <glyph glyph-name="w" unicode="w" horiz-adv-x="749" 
d="M155 0l-85 523h18l82 -502l236 502h14l86 -502l234 502h19l-243 -523h-24l-83 489l-230 -489h-24z" />
    <glyph glyph-name="x" unicode="x" horiz-adv-x="485" 
d="M-11 0l241 273l-147 250h21l139 -238l209 238h22l-221 -252l159 -271h-21l-152 259l-228 -259h-22z" />
    <glyph glyph-name="y" unicode="y" horiz-adv-x="480" 
d="M78 -182l122 218l-134 487h18l129 -466l261 466h20l-396 -705h-20z" />
    <glyph glyph-name="z" unicode="z" horiz-adv-x="457" 
d="M-16 0l1 5l449 502h-339l3 16h370l-1 -5l-449 -502h360l-3 -16h-391z" />
    <glyph glyph-name="braceleft" unicode="{" horiz-adv-x="341" 
d="M236 -144c-125 8 -171 76 -128 193l45 126c29 81 6 140 -101 146l3 16c106 0 147 45 143 129l-6 132c-6 136 63 172 190 178l-3 -16c-110 -6 -176 -33 -170 -162l6 -131c4 -94 -44 -129 -112 -140c66 -16 97 -71 66 -157l-45 -126c-39 -109 1 -164 115 -172z" />
    <glyph glyph-name="bar" unicode="|" horiz-adv-x="226" 
d="M114 -148v924h18v-924h-18z" />
    <glyph glyph-name="braceright" unicode="}" horiz-adv-x="341" 
d="M120 776c125 -8 171 -76 128 -193l-45 -126c-29 -81 -6 -140 101 -146l-3 -16c-106 0 -147 -45 -143 -129l6 -132c6 -136 -63 -172 -190 -178l3 16c110 6 176 33 170 162l-6 131c-4 94 44 129 112 140c-66 16 -97 71 -66 157l45 126c39 109 -1 164 -115 172z" />
    <glyph glyph-name="asciitilde" unicode="~" horiz-adv-x="429" 
d="M48 242c11 49 40 89 89 89c62 0 105 -71 160 -71c41 0 63 36 71 73h18c-11 -49 -40 -89 -89 -89c-63 0 -106 71 -160 71c-40 0 -63 -36 -71 -73h-18z" />
    <glyph glyph-name="Adieresis" unicode="&#xc4;" horiz-adv-x="630" 
d="M540 0l-54 235h-355l-124 -235h-19l380 715h26l164 -715h-18zM379 701l-239 -449h342zM310 787c-10 0 -17 8 -17 17s7 17 17 17s17 -8 17 -17s-7 -17 -17 -17zM464 787c-10 0 -17 8 -17 17s7 17 17 17s17 -8 17 -17s-7 -17 -17 -17z" />
    <glyph glyph-name="Aring" unicode="&#xc5;" horiz-adv-x="630" 
d="M540 0l-54 235h-355l-124 -235h-19l380 715h26l164 -715h-18zM379 701l-239 -449h342zM387 749c-49 0 -86 39 -86 83c0 48 40 88 89 88c51 0 86 -38 86 -83c0 -50 -38 -88 -89 -88zM387 764c42 0 72 30 72 73c0 39 -27 68 -69 68c-40 0 -72 -31 -72 -73
c0 -37 29 -68 69 -68z" />
    <glyph glyph-name="Ccedilla" unicode="&#xc7;" horiz-adv-x="722" 
d="M296 -210c-50 0 -83 27 -86 72h19c2 -35 26 -56 67 -56c32 0 70 15 70 62c0 38 -26 52 -56 52c-22 0 -37 -7 -46 -12l-8 8l54 82c-157 21 -254 137 -254 317c0 217 143 406 375 406c129 0 244 -76 264 -211h-17c-23 123 -124 194 -247 194c-222 0 -355 -179 -355 -389
c0 -189 111 -304 290 -304c136 0 246 74 292 210h18c-45 -148 -168 -227 -310 -227c-15 0 -29 1 -39 2l-45 -67c49 18 101 -5 101 -61c0 -48 -37 -78 -87 -78z" />
    <glyph glyph-name="Eacute" unicode="&#xc9;" horiz-adv-x="566" 
d="M53 0l113 715h397l-3 -17h-378l-51 -320h314l-3 -17h-313l-55 -344h404l-4 -17h-421zM347 771l81 117h22l-84 -117h-19z" />
    <glyph glyph-name="Ntilde" unicode="&#xd1;" horiz-adv-x="701" 
d="M53 0l113 715h29l353 -693l110 693h19l-113 -715h-25l-357 700l-110 -700h-19zM507 774c-51 0 -94 64 -136 64c-25 0 -50 -20 -59 -63h-17c11 54 41 79 77 79c49 0 93 -64 136 -64c24 0 49 20 58 63h17c-11 -53 -41 -79 -76 -79z" />
    <glyph glyph-name="Odieresis" unicode="&#xd6;" horiz-adv-x="780" 
d="M752 389c0 -204 -148 -395 -372 -395c-202 0 -324 145 -324 337c0 204 151 390 374 390c192 0 322 -144 322 -332zM733 389c1 169 -112 315 -303 315c-211 0 -352 -173 -355 -373c-3 -174 111 -320 305 -320c212 0 352 179 353 378zM366 787c-10 0 -17 8 -17 17
s7 17 17 17s17 -8 17 -17s-7 -17 -17 -17zM520 787c-10 0 -17 8 -17 17s7 17 17 17s17 -8 17 -17s-7 -17 -17 -17z" />
    <glyph glyph-name="Udieresis" unicode="&#xdc;" horiz-adv-x="666" 
d="M315 -4c-181 0 -263 101 -237 266l72 453h19l-72 -453c-24 -155 45 -249 219 -249c150 0 224 75 247 223l76 479h19l-76 -479c-25 -160 -104 -240 -267 -240zM334 787c-10 0 -17 8 -17 17s7 17 17 17s17 -8 17 -17s-7 -17 -17 -17zM488 787c-10 0 -17 8 -17 17
s7 17 17 17s17 -8 17 -17s-7 -17 -17 -17z" />
    <glyph glyph-name="aacute" unicode="&#xe1;" horiz-adv-x="515" 
d="M206 -7c-120 0 -173 62 -173 140c0 126 103 159 218 159h175l7 47c16 110 -25 175 -148 175c-84 0 -152 -35 -181 -131h-18c27 103 110 147 199 147c135 0 184 -79 166 -192l-31 -196c-11 -72 -12 -113 -14 -142h-18c1 22 4 58 7 90c-29 -48 -95 -97 -189 -97zM206 9
c99 0 185 61 198 143l19 124h-172c-101 0 -200 -23 -200 -143c0 -70 46 -124 155 -124zM283 596l98 147h21l-101 -147h-18z" />
    <glyph glyph-name="agrave" unicode="&#xe0;" horiz-adv-x="515" 
d="M206 -7c-120 0 -173 62 -173 140c0 126 103 159 218 159h175l7 47c16 110 -25 175 -148 175c-84 0 -152 -35 -181 -131h-18c27 103 110 147 199 147c135 0 184 -79 166 -192l-31 -196c-11 -72 -12 -113 -14 -142h-18c1 22 4 58 7 90c-29 -48 -95 -97 -189 -97zM206 9
c99 0 185 61 198 143l19 124h-172c-101 0 -200 -23 -200 -143c0 -70 46 -124 155 -124zM290 596l-55 147h19l53 -147h-17z" />
    <glyph glyph-name="acircumflex" unicode="&#xe2;" horiz-adv-x="515" 
d="M206 -7c-120 0 -173 62 -173 140c0 126 103 159 218 159h175l7 47c16 110 -25 175 -148 175c-84 0 -152 -35 -181 -131h-18c27 103 110 147 199 147c135 0 184 -79 166 -192l-31 -196c-11 -72 -12 -113 -14 -142h-18c1 22 4 58 7 90c-29 -48 -95 -97 -189 -97zM206 9
c99 0 185 61 198 143l19 124h-172c-101 0 -200 -23 -200 -143c0 -70 46 -124 155 -124zM177 596l127 124h19l96 -124h-19l-88 109l-114 -109h-21z" />
    <glyph glyph-name="adieresis" unicode="&#xe4;" horiz-adv-x="515" 
d="M206 -7c-120 0 -173 62 -173 140c0 126 103 159 218 159h175l7 47c16 110 -25 175 -148 175c-84 0 -152 -35 -181 -131h-18c27 103 110 147 199 147c135 0 184 -79 166 -192l-31 -196c-11 -72 -12 -113 -14 -142h-18c1 22 4 58 7 90c-29 -48 -95 -97 -189 -97zM206 9
c99 0 185 61 198 143l19 124h-172c-101 0 -200 -23 -200 -143c0 -70 46 -124 155 -124zM233 639c-10 0 -17 8 -17 17s7 17 17 17s17 -8 17 -17s-7 -17 -17 -17zM375 639c-10 0 -17 8 -17 17s7 17 17 17s17 -8 17 -17s-7 -17 -17 -17z" />
    <glyph glyph-name="atilde" unicode="&#xe3;" horiz-adv-x="515" 
d="M206 -7c-120 0 -173 62 -173 140c0 126 103 159 218 159h175l7 47c16 110 -25 175 -148 175c-84 0 -152 -35 -181 -131h-18c27 103 110 147 199 147c135 0 184 -79 166 -192l-31 -196c-11 -72 -12 -113 -14 -142h-18c1 22 4 58 7 90c-29 -48 -95 -97 -189 -97zM206 9
c99 0 185 61 198 143l19 124h-172c-101 0 -200 -23 -200 -143c0 -70 46 -124 155 -124zM371 613c-51 0 -94 64 -136 64c-25 0 -50 -20 -59 -63h-17c11 54 41 79 77 79c49 0 93 -64 136 -64c24 0 49 20 58 63h17c-11 -53 -41 -79 -76 -79z" />
    <glyph glyph-name="aring" unicode="&#xe5;" horiz-adv-x="515" 
d="M206 -7c-120 0 -173 62 -173 140c0 126 103 159 218 159h175l7 47c16 110 -25 175 -148 175c-84 0 -152 -35 -181 -131h-18c27 103 110 147 199 147c135 0 184 -79 166 -192l-31 -196c-11 -72 -12 -113 -14 -142h-18c1 22 4 58 7 90c-29 -48 -95 -97 -189 -97zM206 9
c99 0 185 61 198 143l19 124h-172c-101 0 -200 -23 -200 -143c0 -70 46 -124 155 -124zM311 619c42 0 72 30 72 73c0 39 -27 68 -69 68c-40 0 -72 -31 -72 -73c0 -37 29 -68 69 -68zM311 604c-49 0 -86 39 -86 83c0 48 40 88 89 88c51 0 86 -38 86 -83
c0 -50 -38 -88 -89 -88z" />
    <glyph glyph-name="ccedilla" unicode="&#xe7;" horiz-adv-x="539" 
d="M209 -210c-50 0 -83 27 -86 72h19c2 -35 26 -56 67 -56c32 0 70 15 70 62c0 38 -26 52 -56 52c-22 0 -37 -7 -46 -12l-8 8l54 81c-114 18 -181 109 -181 234c0 164 108 299 269 299c108 0 187 -68 193 -167h-18c-4 86 -73 151 -176 151c-153 0 -250 -130 -250 -283
c0 -135 85 -222 208 -222c103 0 182 56 210 161h18c-28 -118 -118 -177 -228 -177c-11 0 -22 1 -29 2l-44 -66c49 18 101 -5 101 -61c0 -48 -37 -78 -87 -78z" />
    <glyph glyph-name="eacute" unicode="&#xe9;" horiz-adv-x="529" 
d="M57 219c0 -134 68 -210 196 -210c95 0 165 44 200 132h18c-35 -98 -113 -148 -218 -148c-143 0 -215 86 -215 226c0 161 96 311 261 311c152 0 213 -111 192 -247l-2 -13h-429c-2 -17 -3 -34 -3 -51zM299 514c-135 0 -216 -103 -237 -228h412c18 128 -33 228 -175 228z
M291 596l98 147h21l-101 -147h-18z" />
    <glyph glyph-name="egrave" unicode="&#xe8;" horiz-adv-x="529" 
d="M57 219c0 -134 68 -210 196 -210c95 0 165 44 200 132h18c-35 -98 -113 -148 -218 -148c-143 0 -215 86 -215 226c0 161 96 311 261 311c152 0 213 -111 192 -247l-2 -13h-429c-2 -17 -3 -34 -3 -51zM299 514c-135 0 -216 -103 -237 -228h412c18 128 -33 228 -175 228z
M298 596l-55 147h19l53 -147h-17z" />
    <glyph glyph-name="ecircumflex" unicode="&#xea;" horiz-adv-x="529" 
d="M57 219c0 -134 68 -210 196 -210c95 0 165 44 200 132h18c-35 -98 -113 -148 -218 -148c-143 0 -215 86 -215 226c0 161 96 311 261 311c152 0 213 -111 192 -247l-2 -13h-429c-2 -17 -3 -34 -3 -51zM299 514c-135 0 -216 -103 -237 -228h412c18 128 -33 228 -175 228z
M185 596l127 124h19l96 -124h-19l-88 109l-114 -109h-21z" />
    <glyph glyph-name="edieresis" unicode="&#xeb;" horiz-adv-x="529" 
d="M57 219c0 -134 68 -210 196 -210c95 0 165 44 200 132h18c-35 -98 -113 -148 -218 -148c-143 0 -215 86 -215 226c0 161 96 311 261 311c152 0 213 -111 192 -247l-2 -13h-429c-2 -17 -3 -34 -3 -51zM299 514c-135 0 -216 -103 -237 -228h412c18 128 -33 228 -175 228z
M241 639c-10 0 -17 8 -17 17s7 17 17 17s17 -8 17 -17s-7 -17 -17 -17zM383 639c-10 0 -17 8 -17 17s7 17 17 17s17 -8 17 -17s-7 -17 -17 -17z" />
    <glyph glyph-name="iacute" unicode="&#xed;" horiz-adv-x="182" 
d="M40 0l82 523h18l-82 -523h-18zM131 596l98 147h21l-101 -147h-18z" />
    <glyph glyph-name="igrave" unicode="&#xec;" horiz-adv-x="182" 
d="M40 0l82 523h18l-82 -523h-18zM132 596l-55 147h19l53 -147h-17z" />
    <glyph glyph-name="icircumflex" unicode="&#xee;" horiz-adv-x="182" 
d="M40 0l82 523h18l-82 -523h-18zM19 596l127 124h19l96 -124h-19l-88 109l-114 -109h-21z" />
    <glyph glyph-name="idieresis" unicode="&#xef;" horiz-adv-x="182" 
d="M96 639c-10 0 -17 8 -17 17s7 17 17 17s17 -8 17 -17s-7 -17 -17 -17zM208 639c-10 0 -17 8 -17 17s7 17 17 17s17 -8 17 -17s-7 -17 -17 -17zM40 0l82 523h18l-82 -523h-18z" />
    <glyph glyph-name="ntilde" unicode="&#xf1;" horiz-adv-x="559" 
d="M38 0l61 389c11 69 13 105 15 134h18c-1 -27 -5 -74 -13 -123c35 69 109 130 208 130c116 0 186 -75 163 -220l-49 -310h-18l49 310c22 138 -41 204 -145 204c-98 0 -201 -69 -221 -197l-50 -317h-18zM389 613c-51 0 -94 64 -136 64c-25 0 -50 -20 -59 -63h-17
c11 54 41 79 77 79c49 0 93 -64 136 -64c24 0 49 20 58 63h17c-11 -53 -41 -79 -76 -79z" />
    <glyph glyph-name="oacute" unicode="&#xf3;" horiz-adv-x="567" 
d="M263 -7c-135 0 -226 107 -226 238c0 156 100 298 271 298c140 0 222 -112 222 -237c0 -167 -101 -299 -267 -299zM263 9c154 0 249 124 249 283c0 117 -73 221 -204 221c-162 0 -253 -132 -253 -282c0 -118 80 -222 208 -222zM309 596l98 147h21l-101 -147h-18z" />
    <glyph glyph-name="ograve" unicode="&#xf2;" horiz-adv-x="567" 
d="M263 -7c-135 0 -226 107 -226 238c0 156 100 298 271 298c140 0 222 -112 222 -237c0 -167 -101 -299 -267 -299zM263 9c154 0 249 124 249 283c0 117 -73 221 -204 221c-162 0 -253 -132 -253 -282c0 -118 80 -222 208 -222zM314 596l-55 147h19l53 -147h-17z" />
    <glyph glyph-name="ocircumflex" unicode="&#xf4;" horiz-adv-x="567" 
d="M263 -7c-135 0 -226 107 -226 238c0 156 100 298 271 298c140 0 222 -112 222 -237c0 -167 -101 -299 -267 -299zM263 9c154 0 249 124 249 283c0 117 -73 221 -204 221c-162 0 -253 -132 -253 -282c0 -118 80 -222 208 -222zM199 596l127 124h19l96 -124h-19l-88 109
l-114 -109h-21z" />
    <glyph glyph-name="odieresis" unicode="&#xf6;" horiz-adv-x="567" 
d="M263 -7c-135 0 -226 107 -226 238c0 156 100 298 271 298c140 0 222 -112 222 -237c0 -167 -101 -299 -267 -299zM263 9c154 0 249 124 249 283c0 117 -73 221 -204 221c-162 0 -253 -132 -253 -282c0 -118 80 -222 208 -222zM254 639c-10 0 -17 8 -17 17s7 17 17 17
s17 -8 17 -17s-7 -17 -17 -17zM396 639c-10 0 -17 8 -17 17s7 17 17 17s17 -8 17 -17s-7 -17 -17 -17z" />
    <glyph glyph-name="otilde" unicode="&#xf5;" horiz-adv-x="567" 
d="M263 -7c-135 0 -226 107 -226 238c0 156 100 298 271 298c140 0 222 -112 222 -237c0 -167 -101 -299 -267 -299zM263 9c154 0 249 124 249 283c0 117 -73 221 -204 221c-162 0 -253 -132 -253 -282c0 -118 80 -222 208 -222zM392 613c-51 0 -94 64 -136 64
c-25 0 -50 -20 -59 -63h-17c11 54 41 79 77 79c49 0 93 -64 136 -64c24 0 49 20 58 63h17c-11 -53 -41 -79 -76 -79z" />
    <glyph glyph-name="uacute" unicode="&#xfa;" horiz-adv-x="555" 
d="M513 523l-61 -389c-9 -59 -12 -109 -13 -134h-18c1 31 5 78 11 121c-35 -69 -108 -128 -207 -128c-116 0 -184 75 -161 220l49 310h18l-49 -310c-22 -138 39 -204 143 -204c98 0 200 69 220 197l50 317h18zM300 596l98 147h21l-101 -147h-18z" />
    <glyph glyph-name="ugrave" unicode="&#xf9;" horiz-adv-x="555" 
d="M513 523l-61 -389c-9 -59 -12 -109 -13 -134h-18c1 31 5 78 11 121c-35 -69 -108 -128 -207 -128c-116 0 -184 75 -161 220l49 310h18l-49 -310c-22 -138 39 -204 143 -204c98 0 200 69 220 197l50 317h18zM311 596l-55 147h19l53 -147h-17z" />
    <glyph glyph-name="ucircumflex" unicode="&#xfb;" horiz-adv-x="555" 
d="M513 523l-61 -389c-9 -59 -12 -109 -13 -134h-18c1 31 5 78 11 121c-35 -69 -108 -128 -207 -128c-116 0 -184 75 -161 220l49 310h18l-49 -310c-22 -138 39 -204 143 -204c98 0 200 69 220 197l50 317h18zM193 596l127 124h19l96 -124h-19l-88 109l-114 -109h-21z" />
    <glyph glyph-name="udieresis" unicode="&#xfc;" horiz-adv-x="555" 
d="M513 523l-61 -389c-9 -59 -12 -109 -13 -134h-18c1 31 5 78 11 121c-35 -69 -108 -128 -207 -128c-116 0 -184 75 -161 220l49 310h18l-49 -310c-22 -138 39 -204 143 -204c98 0 200 69 220 197l50 317h18zM255 639c-10 0 -17 8 -17 17s7 17 17 17s17 -8 17 -17
s-7 -17 -17 -17zM397 639c-10 0 -17 8 -17 17s7 17 17 17s17 -8 17 -17s-7 -17 -17 -17z" />
    <glyph glyph-name="dagger" unicode="&#x2020;" horiz-adv-x="320" 
d="M145 230l52 326h-122l3 16h121l23 143h18l-23 -143h123l-3 -16h-122l-52 -326h-18z" />
    <glyph glyph-name="degree" unicode="&#xb0;" horiz-adv-x="384" 
d="M238 468c72 1 125 55 125 126c0 63 -50 114 -118 114c-67 0 -126 -53 -126 -125c0 -63 50 -115 119 -115zM238 452c-77 0 -137 59 -137 131c0 75 65 141 144 141c76 0 136 -58 136 -130c0 -78 -63 -142 -143 -142z" />
    <glyph glyph-name="cent" unicode="&#xa2;" horiz-adv-x="539" 
d="M268 -7c-7 0 -14 0 -21 1l-20 -129h-17l20 131c-117 15 -188 108 -188 235c0 164 108 299 269 299h4l16 99h17l-16 -100c97 -8 166 -74 172 -166h-18c-4 80 -65 142 -157 150l-79 -504h18c103 0 182 56 210 161h18c-28 -118 -118 -177 -228 -177zM60 231
c0 -122 69 -205 173 -220l79 503h-2c-153 0 -250 -130 -250 -283z" />
    <glyph glyph-name="sterling" unicode="&#xa3;" horiz-adv-x="581" 
d="M61 342l3 16h80c-5 40 -11 79 -11 121c0 141 81 242 233 242c130 0 188 -75 191 -176h-18c-4 94 -59 159 -173 159c-136 0 -214 -89 -214 -225c0 -41 6 -81 11 -121h246l-3 -16h-241c3 -24 5 -48 5 -73c0 -79 -16 -128 -48 -174c87 -1 166 -84 263 -84
c62 0 114 45 124 126h19c-11 -94 -75 -143 -143 -143c-100 0 -184 84 -264 84c-49 0 -86 -31 -97 -78h-20c11 45 45 84 94 93c38 49 53 101 53 176c0 25 -2 49 -5 73h-85z" />
    <glyph glyph-name="section" unicode="&#xa7;" horiz-adv-x="530" 
d="M215 -137c-91 0 -162 47 -172 141h19c10 -81 70 -124 153 -124c84 -1 154 51 154 137c0 67 -41 106 -143 144c-105 39 -165 81 -165 158c0 89 85 123 169 139c-40 26 -66 65 -66 119c0 81 70 148 166 147c83 0 148 -41 149 -133h-18c0 74 -52 116 -131 116
c-81 1 -147 -51 -147 -129c0 -58 28 -103 137 -146c102 -41 159 -82 159 -160c0 -80 -74 -122 -160 -136c40 -24 69 -62 69 -119c0 -89 -73 -154 -173 -154zM302 149c85 11 158 49 158 123c0 68 -51 103 -143 143l-70 31c-90 -15 -167 -44 -167 -127c0 -68 57 -106 147 -140
z" />
    <glyph glyph-name="bullet" unicode="&#x2022;" horiz-adv-x="298" 
d="M151 210c-53 0 -91 41 -91 90c0 54 41 98 98 98c53 0 92 -41 92 -90c0 -54 -40 -98 -99 -98z" />
    <glyph glyph-name="paragraph" unicode="&#xb6;" horiz-adv-x="526" 
d="M208 -100l73 461h-5c-114 0 -191 60 -191 162c0 134 99 192 228 192h189l-129 -815h-18l126 799h-129l-126 -799h-18z" />
    <glyph glyph-name="germandbls" unicode="&#xdf;" horiz-adv-x="540" 
d="M271 -4c-45 0 -81 8 -108 22l3 17c29 -14 60 -23 105 -23c122 0 205 80 205 217c0 116 -88 210 -205 214l3 16c111 4 199 65 199 170c0 87 -65 130 -139 131c-103 1 -170 -68 -186 -174l-92 -586h-18l92 587c18 118 97 189 204 189c86 0 157 -53 157 -147
c0 -100 -79 -164 -170 -178c87 -20 173 -100 173 -222c0 -146 -90 -233 -223 -233z" />
    <glyph glyph-name="registered" unicode="&#xae;" horiz-adv-x="514" 
d="M221 387v243h72c49 0 83 -23 83 -67v-1c0 -39 -26 -58 -65 -63l78 -112h-20l-78 111h-53v-111h-17zM238 513h56c42 0 64 16 64 49v1c0 35 -23 51 -64 51h-56v-101zM293 297c115 0 205 89 205 206c0 115 -88 206 -205 206c-115 0 -205 -92 -205 -207
c0 -117 91 -205 205 -205zM293 282c-123 0 -222 95 -222 220c0 123 98 222 222 222c126 0 222 -98 222 -221c0 -125 -98 -221 -222 -221z" />
    <glyph glyph-name="copyright" unicode="&#xa9;" horiz-adv-x="844" 
d="M437 146c-120 0 -198 88 -198 214v6c0 125 89 214 197 214c87 0 156 -45 172 -128h-18c-16 71 -71 112 -154 112c-101 0 -179 -82 -179 -198v-6c0 -119 71 -198 180 -198c83 0 143 46 159 122h17c-16 -86 -87 -138 -176 -138zM433 6c197 0 351 153 351 353
c0 195 -150 350 -349 350c-197 0 -351 -156 -351 -352c0 -199 155 -351 349 -351zM433 -9c-203 0 -366 159 -366 366c0 204 162 367 368 367c208 0 366 -162 366 -365c0 -208 -162 -368 -368 -368z" />
    <glyph glyph-name="trademark" unicode="&#x2122;" horiz-adv-x="627" 
d="M324 408l49 307h26l71 -273l157 273h28l-49 -307h-18l45 285l-165 -285h-7l-75 285l-45 -285h-17zM146 408l46 291h-98l3 16h214l-3 -16h-98l-46 -291h-18z" />
    <glyph glyph-name="acute" unicode="&#xb4;" horiz-adv-x="400" 
d="M242 596l98 147h21l-101 -147h-18z" />
    <glyph glyph-name="dieresis" unicode="&#xa8;" horiz-adv-x="400" 
d="M190 639c-10 0 -17 8 -17 17s7 17 17 17s17 -8 17 -17s-7 -17 -17 -17zM332 639c-10 0 -17 8 -17 17s7 17 17 17s17 -8 17 -17s-7 -17 -17 -17z" />
    <glyph glyph-name="notequal" unicode="&#x2260;" horiz-adv-x="484" 
d="M58 385l3 16h228l80 133h20l-80 -133h156l-3 -16h-162l-81 -136h222l-3 -16h-229l-79 -133h-20l79 133h-155l3 16h162l81 136h-222z" />
    <glyph glyph-name="AE" unicode="&#xc6;" horiz-adv-x="941" 
d="M-14 0l468 715h484l-3 -17h-378l-51 -320h314l-3 -17h-313l-55 -344h403l-3 -17h-421l37 235h-303l-154 -235h-22zM465 698l-292 -446h294l71 446h-73z" />
    <glyph glyph-name="Oslash" unicode="&#xd8;" horiz-adv-x="780" 
d="M48 -14l-11 11l97 102c-51 59 -78 140 -78 232c0 204 151 390 374 390c89 0 165 -31 220 -83l93 97l11 -11l-93 -97c58 -60 91 -143 91 -238c0 -204 -148 -395 -372 -395c-100 0 -180 35 -235 93zM733 389c0 88 -29 169 -83 226l-493 -515c53 -55 128 -89 223 -89
c212 0 352 179 353 378zM75 331c-2 -85 24 -162 72 -219l492 514c-51 48 -122 78 -209 78c-211 0 -352 -173 -355 -373z" />
    <glyph glyph-name="plusminus" unicode="&#xb1;" horiz-adv-x="500" 
d="M217 115l34 219h-204l3 16h204l35 219h18l-35 -219h204l-3 -16h-204l-34 -219h-18zM-6 0l3 16h426l-3 -16h-426z" />
    <glyph glyph-name="lessequal" unicode="&#x2264;" horiz-adv-x="487" 
d="M408 115l-352 211l1 6l416 192l-3 -19l-386 -178l327 -194zM6 0l3 16h383l-3 -16h-383z" />
    <glyph glyph-name="greaterequal" unicode="&#x2265;" horiz-adv-x="487" 
d="M14 0l3 16h383l-3 -16h-383zM96 524l352 -211l-1 -6l-416 -192l3 19l386 178l-327 194z" />
    <glyph glyph-name="yen" unicode="&#xa5;" horiz-adv-x="516" 
d="M69 333l3 16h190l-163 366h20l160 -359l259 359h21l-265 -366h187l-3 -16h-193l-19 -120h193l-3 -16h-192l-31 -197h-19l31 197h-198l3 16h197l19 120h-197z" />
    <glyph glyph-name="ordfeminine" unicode="&#xaa;" horiz-adv-x="417" 
d="M199 316c-88 0 -128 47 -128 106c0 98 84 120 173 120h119l6 35c11 80 -18 128 -108 128c-61 0 -111 -27 -132 -96h-18c20 79 84 112 150 112c102 0 140 -58 126 -145l-23 -147c-8 -53 -9 -85 -10 -108h-18c0 17 2 41 4 65c-23 -37 -72 -70 -141 -70zM201 332
c73 0 136 45 146 107l14 87h-118c-76 0 -154 -13 -154 -103c0 -52 34 -91 112 -91z" />
    <glyph glyph-name="ordmasculine" unicode="&#xba;" horiz-adv-x="454" 
d="M250 316c-103 0 -171 79 -171 178c0 120 76 226 206 226c107 0 168 -84 168 -178c0 -127 -77 -226 -203 -226zM250 332c114 0 184 92 184 210c0 86 -53 162 -150 162c-118 0 -186 -98 -186 -210c0 -87 57 -162 152 -162z" />
    <glyph glyph-name="ae" unicode="&#xe6;" horiz-adv-x="904" 
d="M439 219c0 -134 63 -210 191 -210c95 0 163 44 198 132h18c-35 -98 -111 -148 -216 -148c-127 0 -193 68 -206 181c-21 -131 -125 -181 -218 -181c-120 0 -173 61 -173 139c0 122 103 154 218 154h175l8 53c16 110 -26 175 -149 175c-84 0 -152 -35 -181 -131h-18
c27 103 110 147 199 147c119 0 170 -61 168 -153c40 89 115 153 223 153c152 0 211 -111 190 -247l-2 -13h-422c-2 -17 -3 -34 -3 -51zM206 9c101 0 186 59 204 176l13 85h-172c-101 0 -200 -21 -200 -138c0 -70 46 -123 155 -123zM676 514c-134 0 -212 -103 -232 -228h405
c18 128 -33 228 -173 228z" />
    <glyph glyph-name="oslash" unicode="&#xf8;" horiz-adv-x="567" 
d="M32 -11l-12 10l71 73c-35 42 -54 98 -54 159c0 156 100 298 271 298c67 0 121 -26 159 -67l68 71l11 -10l-70 -72c35 -43 54 -100 54 -159c0 -167 -101 -299 -267 -299c-67 0 -122 26 -162 68zM263 9c154 0 249 124 249 283c0 55 -17 107 -47 147l-352 -366
c36 -40 87 -64 150 -64zM55 231c0 -55 17 -107 48 -146l352 365c-34 39 -84 63 -147 63c-162 0 -253 -132 -253 -282z" />
    <glyph glyph-name="questiondown" unicode="&#xbf;" horiz-adv-x="462" 
d="M292 446l-11 -72c-12 -81 -52 -116 -124 -173c-68 -54 -129 -91 -129 -185c0 -88 75 -122 149 -122c101 0 173 58 195 172h18c-19 -121 -103 -189 -213 -189c-82 0 -168 39 -168 139c0 104 69 142 138 198c68 55 104 85 116 162l11 70h18zM306 603c10 0 17 -8 17 -17
s-7 -17 -17 -17s-17 8 -17 17s7 17 17 17z" />
    <glyph glyph-name="exclamdown" unicode="&#xa1;" horiz-adv-x="254" 
d="M162 446l-87 -563h-20l91 563h16zM178 603c10 0 17 -8 17 -17s-7 -17 -17 -17s-17 8 -17 17s7 17 17 17z" />
    <glyph glyph-name="florin" unicode="&#x192;" horiz-adv-x="369" 
d="M57 375l3 16h100l34 177c22 115 80 156 152 156c34 0 55 -6 71 -13l-2 -15c-18 7 -36 12 -68 12c-64 0 -114 -37 -134 -140l-34 -177h150l-3 -16h-150l-106 -557h-19l106 557h-100z" />
    <glyph glyph-name="approxequal" unicode="&#x2248;" horiz-adv-x="491" 
d="M52 351c10 45 42 83 98 83c80 0 155 -65 230 -65c48 0 74 34 81 67h18c-10 -45 -42 -83 -99 -83c-79 0 -155 65 -230 65c-48 0 -73 -34 -80 -67h-18zM27 196c10 45 42 83 98 83c80 0 155 -65 230 -65c48 0 74 34 81 67h18c-10 -45 -42 -83 -99 -83c-79 0 -155 65 -230 65
c-48 0 -73 -34 -80 -67h-18z" />
    <glyph glyph-name="guillemotleft" unicode="&#xab;" horiz-adv-x="387" 
d="M160 83l-112 178l168 178h22l-169 -179l110 -177h-19zM294 83l-112 178l168 178h22l-169 -179l110 -177h-19z" />
    <glyph glyph-name="guillemotright" unicode="&#xbb;" horiz-adv-x="387" 
d="M225 439l112 -179l-168 -177h-22l169 179l-110 177h19zM91 439l112 -179l-168 -177h-22l169 179l-110 177h19z" />
    <glyph glyph-name="ellipsis" unicode="&#x2026;" horiz-adv-x="568" 
d="M42 -5c-10 0 -17 8 -17 17s7 17 17 17s17 -8 17 -17s-7 -17 -17 -17zM243 -5c-10 0 -17 8 -17 17s7 17 17 17s17 -8 17 -17s-7 -17 -17 -17zM444 -5c-10 0 -17 8 -17 17s7 17 17 17s17 -8 17 -17s-7 -17 -17 -17z" />
    <glyph glyph-name="uni00A0" unicode="&#xa0;" horiz-adv-x="780" 
 />
    <glyph glyph-name="Agrave" unicode="&#xc0;" horiz-adv-x="630" 
d="M540 0l-54 235h-355l-124 -235h-19l380 715h26l164 -715h-18zM379 701l-239 -449h342zM383 771l-64 117h21l61 -117h-18z" />
    <glyph glyph-name="Atilde" unicode="&#xc3;" horiz-adv-x="630" 
d="M540 0l-54 235h-355l-124 -235h-19l380 715h26l164 -715h-18zM379 701l-239 -449h342zM455 774c-51 0 -94 64 -136 64c-25 0 -50 -20 -59 -63h-17c11 54 41 79 77 79c49 0 93 -64 136 -64c24 0 49 20 58 63h17c-11 -53 -41 -79 -76 -79z" />
    <glyph glyph-name="Otilde" unicode="&#xd5;" horiz-adv-x="780" 
d="M752 389c0 -204 -148 -395 -372 -395c-202 0 -324 145 -324 337c0 204 151 390 374 390c192 0 322 -144 322 -332zM733 389c1 169 -112 315 -303 315c-211 0 -352 -173 -355 -373c-3 -174 111 -320 305 -320c212 0 352 179 353 378zM512 774c-51 0 -94 64 -136 64
c-25 0 -50 -20 -59 -63h-17c11 54 41 79 77 79c49 0 93 -64 136 -64c24 0 49 20 58 63h17c-11 -53 -41 -79 -76 -79z" />
    <glyph glyph-name="OE" unicode="&#x152;" horiz-adv-x="956" 
d="M864 0h-496c-210 0 -312 132 -312 304c0 261 161 411 406 411h491l-3 -17h-364l-51 -320h300l-3 -17h-299l-55 -344h389zM567 698h-105c-237 0 -387 -146 -387 -394c0 -161 91 -287 293 -287h91z" />
    <glyph glyph-name="oe" unicode="&#x153;" horiz-adv-x="999" 
d="M527 219c0 -134 68 -210 196 -210c95 0 165 44 200 132h18c-35 -98 -113 -148 -218 -148c-130 0 -199 71 -211 189c-34 -111 -122 -189 -249 -189c-135 0 -226 107 -226 238c0 156 100 298 271 298c126 0 204 -92 217 -202c32 115 117 203 244 203
c152 0 213 -111 192 -247l-2 -13h-429c-2 -17 -3 -34 -3 -51zM263 9c154 0 249 124 249 283c0 117 -73 221 -204 221c-162 0 -253 -132 -253 -282c0 -118 80 -222 208 -222zM769 514c-134 0 -215 -103 -237 -228h412c18 128 -35 228 -175 228z" />
    <glyph glyph-name="endash" unicode="&#x2013;" horiz-adv-x="476" 
d="M46 271l3 16h380l-3 -16h-380z" />
    <glyph glyph-name="emdash" unicode="&#x2014;" horiz-adv-x="850" 
d="M46 271l3 16h754l-3 -16h-754z" />
    <glyph glyph-name="quotedblleft" unicode="&#x201c;" horiz-adv-x="262" 
d="M117 574l-17 8l71 136l14 -7zM213 574l-17 8l71 136l14 -7z" />
    <glyph glyph-name="quotedblright" unicode="&#x201d;" horiz-adv-x="262" 
d="M113 574l-14 7l68 137l17 -8zM209 574l-14 7l68 137l17 -8z" />
    <glyph glyph-name="quoteleft" unicode="&#x2018;" horiz-adv-x="166" 
d="M117 574l-17 8l71 136l14 -7z" />
    <glyph glyph-name="quoteright" unicode="&#x2019;" horiz-adv-x="166" 
d="M113 574l-14 7l68 137l17 -8z" />
    <glyph glyph-name="divide" unicode="&#xf7;" horiz-adv-x="500" 
d="M47 334l3 16h426l-3 -16h-426zM239 161c-10 0 -17 8 -17 17s7 17 17 17s17 -8 17 -17s-7 -17 -17 -17zM285 489c-10 0 -17 8 -17 17s7 17 17 17s17 -8 17 -17s-7 -17 -17 -17z" />
    <glyph glyph-name="ydieresis" unicode="&#xff;" horiz-adv-x="480" 
d="M78 -182l122 218l-134 487h18l129 -466l261 466h20l-396 -705h-20zM229 639c-10 0 -17 8 -17 17s7 17 17 17s17 -8 17 -17s-7 -17 -17 -17zM371 639c-10 0 -17 8 -17 17s7 17 17 17s17 -8 17 -17s-7 -17 -17 -17z" />
    <glyph glyph-name="Ydieresis" unicode="&#x178;" horiz-adv-x="554" 
d="M228 0l51 325l-194 390h19l187 -373l282 373h22l-297 -391l-51 -324h-19zM282 787c-10 0 -17 8 -17 17s7 17 17 17s17 -8 17 -17s-7 -17 -17 -17zM436 787c-10 0 -17 8 -17 17s7 17 17 17s17 -8 17 -17s-7 -17 -17 -17z" />
    <glyph glyph-name="fraction" unicode="&#x2044;" horiz-adv-x="113" 
d="M-234 0l588 715h21l-588 -715h-21z" />
    <glyph glyph-name="Euro" unicode="&#x20ac;" horiz-adv-x="636" 
d="M54 419l3 16h66c33 184 131 286 283 286c125 0 204 -65 211 -192h-18c-8 116 -76 175 -193 175c-142 0 -233 -95 -265 -269h268l-5 -16h-266l-20 -120h244l-5 -16h-241c-20 -149 37 -272 211 -272c122 0 204 72 233 192h18c-29 -135 -125 -209 -251 -209
c-181 0 -251 126 -229 289h-65l3 16h64l20 120h-66z" />
    <glyph glyph-name="guilsinglleft" unicode="&#x2039;" horiz-adv-x="253" 
d="M160 83l-112 178l168 178h22l-169 -179l110 -177h-19z" />
    <glyph glyph-name="guilsinglright" unicode="&#x203a;" horiz-adv-x="253" 
d="M91 439l112 -179l-168 -177h-22l169 179l-110 177h19z" />
    <glyph glyph-name="daggerdbl" unicode="&#x2021;" horiz-adv-x="320" 
d="M170 389l27 167h-122l3 16h121l23 143h18l-23 -143h123l-3 -16h-122l-27 -167h122l-3 -16h-121l-23 -143h-18l23 143h-123l3 16h122z" />
    <glyph glyph-name="periodcentered" unicode="&#xb7;" horiz-adv-x="166" 
d="M91 303c-10 0 -17 8 -17 17s7 17 17 17s17 -8 17 -17s-7 -17 -17 -17z" />
    <glyph glyph-name="quotesinglbase" unicode="&#x201a;" horiz-adv-x="166" 
d="M13 -56l-13 7l67 137l17 -8z" />
    <glyph glyph-name="quotedblbase" unicode="&#x201e;" horiz-adv-x="262" 
d="M13 -56l-13 7l67 137l17 -8zM109 -56l-14 7l68 137l17 -8z" />
    <glyph glyph-name="perthousand" unicode="&#x2030;" horiz-adv-x="1092" 
d="M113 552c1 -70 49 -121 119 -121c82 0 141 61 140 149c-1 68 -47 123 -120 123c-82 0 -139 -68 -139 -151zM232 415c-78 0 -137 57 -137 137c0 90 65 167 157 167c77 0 138 -59 138 -139c0 -100 -70 -165 -158 -165zM80 0l590 715h21l-590 -715h-21zM398 132
c1 -70 49 -121 119 -121c82 0 141 61 140 149c-1 68 -47 123 -120 123c-82 0 -139 -68 -139 -151zM517 -5c-78 0 -137 57 -137 137c0 90 65 167 157 167c77 0 138 -59 138 -139c0 -100 -70 -165 -158 -165zM745 132c1 -70 49 -121 119 -121c82 0 141 61 140 149
c-1 68 -47 123 -120 123c-82 0 -139 -68 -139 -151zM864 -5c-78 0 -137 57 -137 137c0 90 65 167 157 167c77 0 138 -59 138 -139c0 -100 -70 -165 -158 -165z" />
    <glyph glyph-name="Acircumflex" unicode="&#xc2;" horiz-adv-x="630" 
d="M540 0l-54 235h-355l-124 -235h-19l380 715h26l164 -715h-18zM379 701l-239 -449h342zM260 771l127 117h20l97 -117h-19l-89 102l-115 -102h-21z" />
    <glyph glyph-name="Ecircumflex" unicode="&#xca;" horiz-adv-x="566" 
d="M53 0l113 715h397l-3 -17h-378l-51 -320h314l-3 -17h-313l-55 -344h404l-4 -17h-421zM242 771l127 117h20l97 -117h-19l-89 102l-115 -102h-21z" />
    <glyph glyph-name="Aacute" unicode="&#xc1;" horiz-adv-x="630" 
d="M540 0l-54 235h-355l-124 -235h-19l380 715h26l164 -715h-18zM379 701l-239 -449h342zM374 771l81 117h22l-84 -117h-19z" />
    <glyph glyph-name="Edieresis" unicode="&#xcb;" horiz-adv-x="566" 
d="M53 0l113 715h397l-3 -17h-378l-51 -320h314l-3 -17h-313l-55 -344h404l-4 -17h-421zM291 787c-10 0 -17 8 -17 17s7 17 17 17s17 -8 17 -17s-7 -17 -17 -17zM445 787c-10 0 -17 8 -17 17s7 17 17 17s17 -8 17 -17s-7 -17 -17 -17z" />
    <glyph glyph-name="Egrave" unicode="&#xc8;" horiz-adv-x="566" 
d="M53 0l113 715h397l-3 -17h-378l-51 -320h314l-3 -17h-313l-55 -344h404l-4 -17h-421zM369 771l-64 117h21l61 -117h-18z" />
    <glyph glyph-name="Iacute" unicode="&#xcd;" horiz-adv-x="219" 
d="M58 0l113 715h19l-113 -715h-19zM175 771l81 117h22l-84 -117h-19z" />
    <glyph glyph-name="Icircumflex" unicode="&#xce;" horiz-adv-x="219" 
d="M58 0l113 715h19l-113 -715h-19zM67 771l127 117h20l97 -117h-19l-89 102l-115 -102h-21z" />
    <glyph glyph-name="Idieresis" unicode="&#xcf;" horiz-adv-x="219" 
d="M58 0l113 715h19l-113 -715h-19zM116 787c-10 0 -17 8 -17 17s7 17 17 17s17 -8 17 -17s-7 -17 -17 -17zM270 787c-10 0 -17 8 -17 17s7 17 17 17s17 -8 17 -17s-7 -17 -17 -17z" />
    <glyph glyph-name="Igrave" unicode="&#xcc;" horiz-adv-x="219" 
d="M58 0l113 715h19l-113 -715h-19zM184 771l-64 117h21l61 -117h-18z" />
    <glyph glyph-name="Oacute" unicode="&#xd3;" horiz-adv-x="780" 
d="M752 389c0 -204 -148 -395 -372 -395c-202 0 -324 145 -324 337c0 204 151 390 374 390c192 0 322 -144 322 -332zM733 389c1 169 -112 315 -303 315c-211 0 -352 -173 -355 -373c-3 -174 111 -320 305 -320c212 0 352 179 353 378zM431 771l81 117h22l-84 -117h-19z" />
    <glyph glyph-name="Ocircumflex" unicode="&#xd4;" horiz-adv-x="780" 
d="M752 389c0 -204 -148 -395 -372 -395c-202 0 -324 145 -324 337c0 204 151 390 374 390c192 0 322 -144 322 -332zM733 389c1 169 -112 315 -303 315c-211 0 -352 -173 -355 -373c-3 -174 111 -320 305 -320c212 0 352 179 353 378zM319 771l127 117h20l97 -117h-19
l-89 102l-115 -102h-21z" />
    <glyph glyph-name="Ograve" unicode="&#xd2;" horiz-adv-x="780" 
d="M752 389c0 -204 -148 -395 -372 -395c-202 0 -324 145 -324 337c0 204 151 390 374 390c192 0 322 -144 322 -332zM733 389c1 169 -112 315 -303 315c-211 0 -352 -173 -355 -373c-3 -174 111 -320 305 -320c212 0 352 179 353 378zM440 771l-64 117h21l61 -117h-18z" />
    <glyph glyph-name="Uacute" unicode="&#xda;" horiz-adv-x="666" 
d="M315 -4c-181 0 -263 101 -237 266l72 453h19l-72 -453c-24 -155 45 -249 219 -249c150 0 224 75 247 223l76 479h19l-76 -479c-25 -160 -104 -240 -267 -240zM389 771l81 117h22l-84 -117h-19z" />
    <glyph glyph-name="Ucircumflex" unicode="&#xdb;" horiz-adv-x="666" 
d="M315 -4c-181 0 -263 101 -237 266l72 453h19l-72 -453c-24 -155 45 -249 219 -249c150 0 224 75 247 223l76 479h19l-76 -479c-25 -160 -104 -240 -267 -240zM287 771l127 117h20l97 -117h-19l-89 102l-115 -102h-21z" />
    <glyph glyph-name="Ugrave" unicode="&#xd9;" horiz-adv-x="666" 
d="M315 -4c-181 0 -263 101 -237 266l72 453h19l-72 -453c-24 -155 45 -249 219 -249c150 0 224 75 247 223l76 479h19l-76 -479c-25 -160 -104 -240 -267 -240zM404 771l-64 117h21l61 -117h-18z" />
    <glyph glyph-name="dotlessi" unicode="&#x131;" horiz-adv-x="182" 
d="M40 0l82 523h18l-82 -523h-18z" />
    <glyph glyph-name="circumflex" unicode="&#x2c6;" horiz-adv-x="400" 
d="M131 596l127 124h19l96 -124h-19l-88 109l-114 -109h-21z" />
    <glyph glyph-name="tilde" unicode="&#x2dc;" horiz-adv-x="400" 
d="M333 613c-51 0 -94 64 -136 64c-25 0 -50 -20 -59 -63h-17c11 54 41 79 77 79c49 0 93 -64 136 -64c24 0 49 20 58 63h17c-11 -53 -41 -79 -76 -79z" />
    <glyph glyph-name="macron" unicode="&#xaf;" horiz-adv-x="400" 
d="M150 646l3 17h219l-3 -17h-219z" />
    <glyph glyph-name="breve" unicode="&#x2d8;" horiz-adv-x="400" 
d="M263 612c-65 0 -101 44 -102 108h18c0 -55 31 -92 84 -92c52 0 93 36 104 92h18c-12 -67 -63 -108 -122 -108z" />
    <glyph glyph-name="dotaccent" unicode="&#x2d9;" horiz-adv-x="400" 
d="M261 639c-10 0 -17 8 -17 17s7 17 17 17s17 -8 17 -17s-7 -17 -17 -17z" />
    <glyph glyph-name="ring" unicode="&#x2da;" horiz-adv-x="400" 
d="M266 619c42 0 72 30 72 73c0 39 -27 68 -69 68c-40 0 -72 -31 -72 -73c0 -37 29 -68 69 -68zM266 604c-49 0 -86 39 -86 83c0 48 40 88 89 88c51 0 86 -38 86 -83c0 -50 -38 -88 -89 -88z" />
    <glyph glyph-name="cedilla" unicode="&#xb8;" horiz-adv-x="400" 
d="M144 -210c-50 0 -83 27 -86 72h19c2 -35 26 -56 67 -56c32 0 70 15 70 62c0 38 -26 52 -56 52c-22 0 -37 -7 -46 -12l-8 8l56 84h18l-48 -71c49 18 101 -5 101 -61c0 -48 -37 -78 -87 -78z" />
    <glyph glyph-name="hungarumlaut" unicode="&#x2dd;" horiz-adv-x="400" 
d="M182 596l82 147h21l-85 -147h-18zM288 596l82 147h21l-85 -147h-18z" />
    <glyph glyph-name="ogonek" unicode="&#x2db;" horiz-adv-x="400" 
d="M145 -182c-54 0 -76 30 -76 67c0 58 70 98 100 115h25c-41 -22 -107 -62 -107 -115c0 -28 16 -51 59 -51c16 0 28 2 45 7l-3 -16c-12 -4 -27 -7 -43 -7z" />
    <glyph glyph-name="caron" unicode="&#x2c7;" horiz-adv-x="400" 
d="M391 737l-127 -124h-19l-96 124h19l88 -109l114 109h21z" />
    <glyph glyph-name="space_uni0326" horiz-adv-x="400" 
d="M105 -186l-14 7l67 133l19 -5z" />
    <glyph glyph-name="caron.alt" horiz-adv-x="256" 
d="M153 626l39 147h19l-41 -147h-17z" />
    <glyph glyph-name="space_uni0326.alt" horiz-adv-x="400" 
d="M312 753l14 -7l-67 -133l-19 5z" />
    <glyph glyph-name="grave.uc" horiz-adv-x="400" 
d="M272 771l-64 117h21l61 -117h-18z" />
    <glyph glyph-name="dieresis.uc" horiz-adv-x="400" 
d="M208 787c-10 0 -17 8 -17 17s7 17 17 17s17 -8 17 -17s-7 -17 -17 -17zM362 787c-10 0 -17 8 -17 17s7 17 17 17s17 -8 17 -17s-7 -17 -17 -17z" />
    <glyph glyph-name="macron.uc" horiz-adv-x="400" 
d="M171 797l3 17h226l-3 -17h-226z" />
    <glyph glyph-name="acute.uc" horiz-adv-x="400" 
d="M269 771l81 117h22l-84 -117h-19z" />
    <glyph glyph-name="circumflex.uc" horiz-adv-x="400" 
d="M158 771l127 117h20l97 -117h-19l-89 102l-115 -102h-21z" />
    <glyph glyph-name="caron.uc" horiz-adv-x="400" 
d="M416 888l-127 -117h-20l-97 117h19l89 -102l115 102h21z" />
    <glyph glyph-name="breve.uc" horiz-adv-x="400" 
d="M289 775c-67 0 -109 47 -110 112h18c1 -56 37 -96 92 -96c54 0 101 39 112 96h18c-11 -67 -68 -112 -130 -112z" />
    <glyph glyph-name="dotaccent.uc" horiz-adv-x="400" 
d="M285 787c-10 0 -17 8 -17 17s7 17 17 17s17 -8 17 -17s-7 -17 -17 -17z" />
    <glyph glyph-name="ring.uc" horiz-adv-x="400" 
d="M289 764c42 0 72 30 72 73c0 39 -27 68 -69 68c-40 0 -72 -31 -72 -73c0 -37 29 -68 69 -68zM289 749c-49 0 -86 39 -86 83c0 48 40 88 89 88c51 0 86 -38 86 -83c0 -50 -38 -88 -89 -88z" />
    <glyph glyph-name="tilde.uc" horiz-adv-x="400" 
d="M361 774c-51 0 -94 64 -136 64c-25 0 -50 -20 -59 -63h-17c11 54 41 79 77 79c49 0 93 -64 136 -64c24 0 49 20 58 63h17c-11 -53 -41 -79 -76 -79z" />
    <glyph glyph-name="hungarumlaut.uc" horiz-adv-x="400" 
d="M211 771l64 117h20l-67 -117h-17zM317 771l64 117h20l-67 -117h-17z" />
    <glyph glyph-name="Dcroat" unicode="&#x110;" horiz-adv-x="677" 
d="M34 352l3 17h74l55 346h171c210 0 312 -132 312 -304c0 -261 -161 -411 -406 -411h-190l55 352h-74zM74 17h169c237 0 387 146 387 394c0 161 -91 287 -293 287h-155l-52 -329h210l-3 -17h-210z" />
    <glyph glyph-name="Eng" unicode="&#x14a;" horiz-adv-x="701" 
d="M374 -170c88 0 150 41 169 161l-361 709l-110 -700h-19l113 715h29l353 -693l110 693h19l-114 -722c-21 -133 -93 -180 -189 -180c-49 0 -83 12 -101 21l3 18c22 -11 55 -22 98 -22z" />
    <glyph glyph-name="IJ" unicode="&#x132;" horiz-adv-x="567" 
d="M58 0l113 715h19l-113 -715h-19zM303 -4c-57 0 -94 15 -117 29l3 18c30 -18 65 -30 114 -30c79 0 132 40 148 140l89 562h19l-89 -563c-18 -114 -80 -156 -167 -156z" />
    <glyph glyph-name="uni0237" unicode="&#x237;" horiz-adv-x="182" 
d="M-66 -184l3 16c58 3 80 30 90 92l95 599h18l-95 -599c-13 -80 -45 -105 -111 -108z" />
    <glyph glyph-name="dcroat" unicode="&#x111;" horiz-adv-x="588" 
d="M351 633l3 16h196l20 124h18l-20 -124h82l-3 -16h-81l-73 -460c-15 -92 -17 -144 -19 -173h-18c1 35 8 102 14 143c-37 -83 -112 -150 -220 -150c-120 0 -213 88 -213 232c0 165 101 305 261 305c135 0 194 -106 204 -184l45 287h-196zM298 514
c-152 0 -243 -132 -243 -289c0 -138 88 -216 195 -216c154 0 239 146 241 277c2 143 -79 228 -193 228z" />
    <glyph glyph-name="eng" unicode="&#x14b;" horiz-adv-x="559" 
d="M38 0l61 389c11 69 13 105 15 134h18c-1 -27 -5 -74 -13 -123c35 69 109 130 208 130c116 0 186 -75 163 -220l-56 -354c-17 -104 -47 -134 -132 -140l3 16c69 6 96 28 111 124l56 354c22 138 -41 204 -145 204c-98 0 -201 -69 -221 -197l-50 -317h-18z" />
    <glyph glyph-name="ij" unicode="&#x133;" horiz-adv-x="364" 
d="M151 639c-10 0 -17 8 -17 17s7 17 17 17s17 -8 17 -17s-7 -17 -17 -17zM40 0l82 523h18l-82 -523h-18zM116 -184l3 16c58 3 80 30 90 92l95 599h18l-95 -599c-13 -80 -45 -105 -111 -108zM333 639c-10 0 -17 8 -17 17s7 17 17 17s17 -8 17 -17s-7 -17 -17 -17z" />
    <glyph glyph-name="Abreve" unicode="&#x102;" horiz-adv-x="630" 
d="M540 0l-54 235h-355l-124 -235h-19l380 715h26l164 -715h-18zM379 701l-239 -449h342zM386 775c-67 0 -109 47 -110 112h18c1 -56 37 -96 92 -96c54 0 101 39 112 96h18c-11 -67 -68 -112 -130 -112z" />
    <glyph glyph-name="Amacron" unicode="&#x100;" horiz-adv-x="630" 
d="M540 0l-54 235h-355l-124 -235h-19l380 715h26l164 -715h-18zM379 701l-239 -449h342zM277 797l3 17h226l-3 -17h-226z" />
    <glyph glyph-name="Aogonek" unicode="&#x104;" horiz-adv-x="630" 
d="M539 4l-53 231h-355l-124 -235h-19l380 715h26l164 -715c-38 -22 -104 -62 -104 -115c0 -28 16 -51 59 -51c16 0 28 2 45 7l-3 -16c-12 -4 -27 -7 -43 -7c-54 0 -76 30 -76 67c0 58 67 98 103 119zM379 701l-239 -449h342z" />
    <glyph glyph-name="Aringacute" unicode="&#x1fa;" horiz-adv-x="630" 
d="M540 0l-54 235h-355l-124 -235h-19l380 715h26l164 -715h-18zM379 701l-239 -449h342zM389 749c-49 0 -86 39 -86 83c0 48 40 88 89 88c51 0 86 -38 86 -83c0 -50 -38 -88 -89 -88zM389 764c42 0 72 30 72 73c0 39 -27 68 -69 68c-40 0 -72 -31 -72 -73
c0 -37 29 -68 69 -68zM394 951l81 117h22l-84 -117h-19z" />
    <glyph glyph-name="AEacute" unicode="&#x1fc;" horiz-adv-x="941" 
d="M-14 0l468 715h484l-3 -17h-378l-51 -320h314l-3 -17h-313l-55 -344h403l-3 -17h-421l37 235h-303l-154 -235h-22zM465 698l-292 -446h294l71 446h-73zM679 771l81 117h22l-84 -117h-19z" />
    <glyph glyph-name="Cacute" unicode="&#x106;" horiz-adv-x="722" 
d="M366 -6c-189 0 -310 121 -310 321c0 217 143 406 375 406c129 0 244 -76 264 -211h-17c-23 123 -124 194 -247 194c-222 0 -355 -179 -355 -389c0 -189 111 -304 290 -304c136 0 246 74 292 210h18c-45 -148 -168 -227 -310 -227zM421 771l81 117h22l-84 -117h-19z" />
    <glyph glyph-name="Ccaron" unicode="&#x10c;" horiz-adv-x="722" 
d="M366 -6c-189 0 -310 121 -310 321c0 217 143 406 375 406c129 0 244 -76 264 -211h-17c-23 123 -124 194 -247 194c-222 0 -355 -179 -355 -389c0 -189 111 -304 290 -304c136 0 246 74 292 210h18c-45 -148 -168 -227 -310 -227zM574 888l-127 -117h-20l-97 117h19
l89 -102l115 102h21z" />
    <glyph glyph-name="Ccircumflex" unicode="&#x108;" horiz-adv-x="722" 
d="M366 -6c-189 0 -310 121 -310 321c0 217 143 406 375 406c129 0 244 -76 264 -211h-17c-23 123 -124 194 -247 194c-222 0 -355 -179 -355 -389c0 -189 111 -304 290 -304c136 0 246 74 292 210h18c-45 -148 -168 -227 -310 -227zM313 771l127 117h20l97 -117h-19
l-89 102l-115 -102h-21z" />
    <glyph glyph-name="Cdotaccent" unicode="&#x10a;" horiz-adv-x="722" 
d="M366 -6c-189 0 -310 121 -310 321c0 217 143 406 375 406c129 0 244 -76 264 -211h-17c-23 123 -124 194 -247 194c-222 0 -355 -179 -355 -389c0 -189 111 -304 290 -304c136 0 246 74 292 210h18c-45 -148 -168 -227 -310 -227zM427 787c-10 0 -17 8 -17 17s7 17 17 17
s17 -8 17 -17s-7 -17 -17 -17z" />
    <glyph glyph-name="Dcaron" unicode="&#x10e;" horiz-adv-x="677" 
d="M53 0l113 715h171c210 0 312 -132 312 -304c0 -261 -161 -411 -406 -411h-190zM74 17h169c237 0 387 146 387 394c0 158 -92 287 -293 287h-155zM515 888l-127 -117h-20l-97 117h19l89 -102l115 102h21z" />
    <glyph glyph-name="Ebreve" unicode="&#x114;" horiz-adv-x="566" 
d="M53 0l113 715h397l-3 -17h-378l-51 -320h314l-3 -17h-313l-55 -344h404l-4 -17h-421zM369 775c-67 0 -109 47 -110 112h18c1 -56 37 -96 92 -96c54 0 101 39 112 96h18c-11 -67 -68 -112 -130 -112z" />
    <glyph glyph-name="Ecaron" unicode="&#x11a;" horiz-adv-x="566" 
d="M53 0l113 715h397l-3 -17h-378l-51 -320h314l-3 -17h-313l-55 -344h404l-4 -17h-421zM503 888l-127 -117h-20l-97 117h19l89 -102l115 102h21z" />
    <glyph glyph-name="Edotaccent" unicode="&#x116;" horiz-adv-x="566" 
d="M53 0l113 715h397l-3 -17h-378l-51 -320h314l-3 -17h-313l-55 -344h404l-4 -17h-421zM367 787c-10 0 -17 8 -17 17s7 17 17 17s17 -8 17 -17s-7 -17 -17 -17z" />
    <glyph glyph-name="Emacron" unicode="&#x112;" horiz-adv-x="566" 
d="M53 0l113 715h397l-3 -17h-378l-51 -320h314l-3 -17h-313l-55 -344h404l-4 -17h-421zM256 797l3 17h226l-3 -17h-226z" />
    <glyph glyph-name="Eogonek" unicode="&#x118;" horiz-adv-x="566" 
d="M53 0l113 715h397l-3 -17h-378l-51 -320h314l-3 -17h-313l-55 -344h403l-3 -17h-61c-41 -22 -107 -62 -107 -115c0 -28 16 -51 59 -51c16 0 28 2 45 7l-3 -16c-12 -4 -27 -7 -43 -7c-54 0 -76 30 -76 67c0 56 65 97 96 115h-331z" />
    <glyph glyph-name="Gbreve" unicode="&#x11e;" horiz-adv-x="744" 
d="M383 -6c-208 0 -325 138 -325 323c0 223 150 404 372 404c131 0 250 -62 270 -195h-19c-17 119 -126 178 -251 178c-211 0 -353 -172 -353 -387c0 -172 109 -306 306 -306c168 0 284 95 304 306h-238l3 17h256c-18 -242 -149 -340 -325 -340zM434 775
c-67 0 -109 47 -110 112h18c1 -56 37 -96 92 -96c54 0 101 39 112 96h18c-11 -67 -68 -112 -130 -112z" />
    <glyph glyph-name="Gcircumflex" unicode="&#x11c;" horiz-adv-x="744" 
d="M383 -6c-208 0 -325 138 -325 323c0 223 150 404 372 404c131 0 250 -62 270 -195h-19c-17 119 -126 178 -251 178c-211 0 -353 -172 -353 -387c0 -172 109 -306 306 -306c168 0 284 95 304 306h-238l3 17h256c-18 -242 -149 -340 -325 -340zM317 771l127 117h20l97 -117
h-19l-89 102l-115 -102h-21z" />
    <glyph glyph-name="Gcommaaccent" unicode="&#x122;" horiz-adv-x="744" 
d="M383 -6c-208 0 -325 138 -325 323c0 223 150 404 372 404c131 0 250 -62 270 -195h-19c-17 119 -126 178 -251 178c-211 0 -353 -172 -353 -387c0 -172 109 -306 306 -306c168 0 284 95 304 306h-238l3 17h256c-18 -242 -149 -340 -325 -340zM269 -186l-14 7l67 133
l19 -5z" />
    <glyph glyph-name="Gdotaccent" unicode="&#x120;" horiz-adv-x="744" 
d="M383 -6c-208 0 -325 138 -325 323c0 223 150 404 372 404c131 0 250 -62 270 -195h-19c-17 119 -126 178 -251 178c-211 0 -353 -172 -353 -387c0 -172 109 -306 306 -306c168 0 284 95 304 306h-238l3 17h256c-18 -242 -149 -340 -325 -340zM442 787c-10 0 -17 8 -17 17
s7 17 17 17s17 -8 17 -17s-7 -17 -17 -17z" />
    <glyph glyph-name="Hbar" unicode="&#x126;" horiz-adv-x="702" 
d="M46 531l3 16h90l27 168h19l-27 -168h474l27 168h19l-27 -168h92l-3 -16h-91l-84 -531h-19l56 354h-474l-56 -354h-19l84 531h-91zM130 371h474l25 160h-474z" />
    <glyph glyph-name="Hcircumflex" unicode="&#x124;" horiz-adv-x="702" 
d="M53 0l113 715h19l-55 -344h474l55 344h19l-113 -715h-19l56 354h-474l-56 -354h-19zM300 771l127 117h20l97 -117h-19l-89 102l-115 -102h-21z" />
    <glyph glyph-name="Idotaccent" unicode="&#x130;" horiz-adv-x="219" 
d="M58 0l113 715h19l-113 -715h-19zM192 787c-10 0 -17 8 -17 17s7 17 17 17s17 -8 17 -17s-7 -17 -17 -17z" />
    <glyph glyph-name="Ibreve" unicode="&#x12c;" horiz-adv-x="219" 
d="M58 0l113 715h19l-113 -715h-19zM187 775c-67 0 -109 47 -110 112h18c1 -56 37 -96 92 -96c54 0 101 39 112 96h18c-11 -67 -68 -112 -130 -112z" />
    <glyph glyph-name="Imacron" unicode="&#x12a;" horiz-adv-x="219" 
d="M58 0l113 715h19l-113 -715h-19zM81 797l3 17h226l-3 -17h-226z" />
    <glyph glyph-name="Iogonek" unicode="&#x12e;" horiz-adv-x="219" 
d="M50 -182c-54 0 -76 30 -76 67c0 55 57 98 85 120l112 710h19l-113 -715c-34 -26 -85 -65 -85 -115c0 -28 16 -51 59 -51c16 0 28 2 45 7l-3 -16c-12 -4 -27 -7 -43 -7z" />
    <glyph glyph-name="Itilde" unicode="&#x128;" horiz-adv-x="219" 
d="M58 0l113 715h19l-113 -715h-19zM256 774c-51 0 -94 64 -136 64c-25 0 -50 -20 -59 -63h-17c11 54 41 79 77 79c49 0 93 -64 136 -64c24 0 49 20 58 63h17c-11 -53 -41 -79 -76 -79z" />
    <glyph glyph-name="Jcircumflex" unicode="&#x134;" horiz-adv-x="378" 
d="M114 -4c-57 0 -94 15 -117 29l3 18c30 -18 65 -30 114 -30c79 0 132 40 148 140l89 562h19l-89 -563c-18 -114 -80 -156 -167 -156zM238 771l127 117h20l97 -117h-19l-89 102l-115 -102h-21z" />
    <glyph glyph-name="Kcommaaccent" unicode="&#x136;" horiz-adv-x="579" 
d="M503 0h-24l-339 368l430 347h26l-431 -348zM53 0l113 715h19l-113 -715h-19zM205 -186l-14 7l67 133l19 -5z" />
    <glyph glyph-name="Lacute" unicode="&#x139;" horiz-adv-x="525" 
d="M53 0l113 715h19l-111 -698h372l-3 -17h-390zM171 771l81 117h22l-84 -117h-19z" />
    <glyph glyph-name="Lcaron" unicode="&#x13d;" horiz-adv-x="525" 
d="M366 558l48 157h19l-49 -157h-18zM53 0l113 715h19l-111 -698h372l-3 -17h-390z" />
    <glyph glyph-name="Lcommaaccent" unicode="&#x13b;" horiz-adv-x="525" 
d="M53 0l113 715h19l-111 -698h372l-3 -17h-390zM177 -186l-14 7l67 133l19 -5z" />
    <glyph glyph-name="Ldot" unicode="&#x13f;" horiz-adv-x="525" 
d="M53 0l113 715h19l-111 -698h372l-3 -17h-390zM438 350c-10 0 -17 8 -17 17s7 17 17 17s17 -8 17 -17s-7 -17 -17 -17z" />
    <glyph glyph-name="Nacute" unicode="&#x143;" horiz-adv-x="701" 
d="M53 0l113 715h29l353 -693l110 693h19l-113 -715h-25l-357 700l-110 -700h-19zM426 771l81 117h22l-84 -117h-19z" />
    <glyph glyph-name="Ncaron" unicode="&#x147;" horiz-adv-x="701" 
d="M53 0l113 715h29l353 -693l110 693h19l-113 -715h-25l-357 700l-110 -700h-19zM579 888l-127 -117h-20l-97 117h19l89 -102l115 102h21z" />
    <glyph glyph-name="Ncommaaccent" unicode="&#x145;" horiz-adv-x="701" 
d="M53 0l113 715h29l353 -693l110 693h19l-113 -715h-25l-357 700l-110 -700h-19zM246 -186l-14 7l67 133l19 -5z" />
    <glyph glyph-name="Obreve" unicode="&#x14e;" horiz-adv-x="780" 
d="M752 389c0 -204 -148 -395 -372 -395c-202 0 -324 145 -324 337c0 204 151 390 374 390c192 0 322 -144 322 -332zM733 389c1 169 -112 315 -303 315c-211 0 -352 -173 -355 -373c-3 -174 111 -320 305 -320c212 0 352 179 353 378zM443 775c-67 0 -109 47 -110 112h18
c1 -56 37 -96 92 -96c54 0 101 39 112 96h18c-11 -67 -68 -112 -130 -112z" />
    <glyph glyph-name="Ohungarumlaut" unicode="&#x150;" horiz-adv-x="780" 
d="M752 389c0 -204 -148 -395 -372 -395c-202 0 -324 145 -324 337c0 204 151 390 374 390c192 0 322 -144 322 -332zM733 389c1 169 -112 315 -303 315c-211 0 -352 -173 -355 -373c-3 -174 111 -320 305 -320c212 0 352 179 353 378zM378 771l64 117h20l-67 -117h-17z
M484 771l64 117h20l-67 -117h-17z" />
    <glyph glyph-name="Omacron" unicode="&#x14c;" horiz-adv-x="780" 
d="M752 389c0 -204 -148 -395 -372 -395c-202 0 -324 145 -324 337c0 204 151 390 374 390c192 0 322 -144 322 -332zM733 389c1 169 -112 315 -303 315c-211 0 -352 -173 -355 -373c-3 -174 111 -320 305 -320c212 0 352 179 353 378zM339 797l3 17h226l-3 -17h-226z" />
    <glyph glyph-name="Oslashacute" unicode="&#x1fe;" horiz-adv-x="780" 
d="M48 -14l-11 11l97 102c-51 59 -78 140 -78 232c0 204 151 390 374 390c89 0 165 -31 220 -83l93 97l11 -11l-93 -97c58 -60 91 -143 91 -238c0 -204 -148 -395 -372 -395c-100 0 -180 35 -235 93zM733 389c0 88 -29 169 -83 226l-493 -515c53 -55 128 -89 223 -89
c212 0 352 179 353 378zM75 331c-2 -85 24 -162 72 -219l492 514c-51 48 -122 78 -209 78c-211 0 -352 -173 -355 -373zM431 771l81 117h22l-84 -117h-19z" />
    <glyph glyph-name="Racute" unicode="&#x154;" horiz-adv-x="581" 
d="M53 0l113 715h157c134 0 218 -54 218 -169c0 -141 -91 -194 -222 -201l184 -345h-20l-183 343h-175l-54 -343h-18zM128 360h156c126 0 238 33 238 186c0 107 -80 152 -199 152h-142zM323 771l81 117h22l-84 -117h-19z" />
    <glyph glyph-name="Rcaron" unicode="&#x158;" horiz-adv-x="581" 
d="M53 0l113 715h157c134 0 218 -54 218 -169c0 -141 -91 -194 -222 -201l184 -345h-20l-183 343h-175l-54 -343h-18zM128 360h156c126 0 238 33 238 186c0 107 -80 152 -199 152h-142zM476 888l-127 -117h-20l-97 117h19l89 -102l115 102h21z" />
    <glyph glyph-name="Rcommaaccent" unicode="&#x156;" horiz-adv-x="581" 
d="M53 0l113 715h157c134 0 218 -54 218 -169c0 -141 -91 -194 -222 -201l184 -345h-20l-183 343h-175l-54 -343h-18zM128 360h156c126 0 238 33 238 186c0 107 -80 152 -199 152h-142zM201 -186l-14 7l67 133l19 -5z" />
    <glyph glyph-name="Sacute" unicode="&#x15a;" horiz-adv-x="568" 
d="M266 -6c-131 0 -237 57 -246 196h18c12 -122 97 -179 227 -179c128 0 223 67 223 193c0 95 -58 131 -192 167c-136 37 -194 80 -194 164c0 123 93 186 218 186c120 0 200 -52 211 -159h-18c-14 95 -81 142 -192 142c-117 0 -200 -53 -200 -169c0 -76 53 -113 183 -148
c139 -37 203 -77 203 -183c0 -135 -104 -210 -241 -210zM321 771l81 117h22l-84 -117h-19z" />
    <glyph glyph-name="Scedilla" unicode="&#x15e;" horiz-adv-x="568" 
d="M209 -210c-50 0 -83 27 -86 72h19c2 -35 26 -56 67 -56c32 0 70 15 70 62c0 38 -26 52 -56 52c-22 0 -37 -7 -46 -12l-8 8l55 80c-111 11 -196 70 -204 194h18c12 -122 97 -179 227 -179c128 0 223 67 223 193c0 95 -58 131 -192 167c-136 37 -194 80 -194 164
c0 123 93 186 218 186c120 0 200 -52 211 -159h-18c-14 95 -81 142 -192 142c-117 0 -200 -53 -200 -169c0 -76 53 -113 183 -148c139 -37 203 -77 203 -183c0 -135 -104 -210 -241 -210h-26l-45 -65c49 18 101 -5 101 -61c0 -48 -37 -78 -87 -78z" />
    <glyph glyph-name="Scircumflex" unicode="&#x15c;" horiz-adv-x="568" 
d="M266 -6c-131 0 -237 57 -246 196h18c12 -122 97 -179 227 -179c128 0 223 67 223 193c0 95 -58 131 -192 167c-136 37 -194 80 -194 164c0 123 93 186 218 186c120 0 200 -52 211 -159h-18c-14 95 -81 142 -192 142c-117 0 -200 -53 -200 -169c0 -76 53 -113 183 -148
c139 -37 203 -77 203 -183c0 -135 -104 -210 -241 -210zM213 771l127 117h20l97 -117h-19l-89 102l-115 -102h-21z" />
    <glyph glyph-name="Scommaaccent" unicode="&#x218;" horiz-adv-x="568" 
d="M266 -6c-131 0 -237 57 -246 196h18c12 -122 97 -179 227 -179c128 0 223 67 223 193c0 95 -58 131 -192 167c-136 37 -194 80 -194 164c0 123 93 186 218 186c120 0 200 -52 211 -159h-18c-14 95 -81 142 -192 142c-117 0 -200 -53 -200 -169c0 -76 53 -113 183 -148
c139 -37 203 -77 203 -183c0 -135 -104 -210 -241 -210zM174 -186l-14 7l67 133l19 -5z" />
    <glyph glyph-name="Tcaron" unicode="&#x164;" horiz-adv-x="557" 
d="M225 0l110 698h-238l3 17h495l-3 -17h-238l-110 -698h-19zM493 888l-127 -117h-20l-97 117h19l89 -102l115 102h21z" />
    <glyph glyph-name="Tcommaaccent" unicode="&#x162;" horiz-adv-x="557" 
d="M225 0l110 698h-238l3 17h495l-3 -17h-238l-110 -698h-19zM170 -186l-14 7l67 133l19 -5z" />
    <glyph glyph-name="Tbar" unicode="&#x166;" horiz-adv-x="557" 
d="M129 396l3 16h158l45 286h-238l3 17h495l-3 -17h-238l-45 -286h163l-3 -16h-163l-62 -396h-19l62 396h-158z" />
    <glyph glyph-name="Ubreve" unicode="&#x16c;" horiz-adv-x="666" 
d="M315 -4c-181 0 -263 101 -237 266l72 453h19l-72 -453c-24 -155 45 -249 219 -249c150 0 224 75 247 223l76 479h19l-76 -479c-25 -160 -104 -240 -267 -240zM407 775c-67 0 -109 47 -110 112h18c1 -56 37 -96 92 -96c54 0 101 39 112 96h18c-11 -67 -68 -112 -130 -112z
" />
    <glyph glyph-name="Uhungarumlaut" unicode="&#x170;" horiz-adv-x="666" 
d="M315 -4c-181 0 -263 101 -237 266l72 453h19l-72 -453c-24 -155 45 -249 219 -249c150 0 224 75 247 223l76 479h19l-76 -479c-25 -160 -104 -240 -267 -240zM337 771l64 117h20l-67 -117h-17zM443 771l64 117h20l-67 -117h-17z" />
    <glyph glyph-name="Umacron" unicode="&#x16a;" horiz-adv-x="666" 
d="M315 -4c-181 0 -263 101 -237 266l72 453h19l-72 -453c-24 -155 45 -249 219 -249c150 0 224 75 247 223l76 479h19l-76 -479c-25 -160 -104 -240 -267 -240zM301 797l3 17h226l-3 -17h-226z" />
    <glyph glyph-name="Uogonek" unicode="&#x172;" horiz-adv-x="666" 
d="M315 -182c-54 0 -76 30 -76 67c0 57 53 94 105 113c0 0 -18 -2 -29 -2c-181 0 -263 101 -237 266l72 453h19l-72 -453c-24 -155 45 -249 219 -249c150 0 223 73 247 227l76 475h19l-76 -479c-19 -122 -69 -195 -158 -224c-64 -21 -167 -50 -167 -127c0 -28 16 -51 59 -51
c16 0 28 2 45 7l-3 -16c-12 -4 -27 -7 -43 -7z" />
    <glyph glyph-name="Uring" unicode="&#x16e;" horiz-adv-x="666" 
d="M315 -4c-181 0 -263 101 -237 266l72 453h19l-72 -453c-24 -155 45 -249 219 -249c150 0 224 75 247 223l76 479h19l-76 -479c-25 -160 -104 -240 -267 -240zM410 734c42 0 72 30 72 73c0 39 -27 68 -69 68c-40 0 -72 -31 -72 -73c0 -37 29 -68 69 -68zM410 719
c-49 0 -86 39 -86 83c0 48 40 88 89 88c51 0 86 -38 86 -83c0 -50 -38 -88 -89 -88z" />
    <glyph glyph-name="Utilde" unicode="&#x168;" horiz-adv-x="666" 
d="M315 -4c-181 0 -263 101 -237 266l72 453h19l-72 -453c-24 -155 45 -249 219 -249c150 0 224 75 247 223l76 479h19l-76 -479c-25 -160 -104 -240 -267 -240zM477 774c-51 0 -94 64 -136 64c-25 0 -50 -20 -59 -63h-17c11 54 41 79 77 79c49 0 93 -64 136 -64
c24 0 49 20 58 63h17c-11 -53 -41 -79 -76 -79z" />
    <glyph glyph-name="Wacute" unicode="&#x1e82;" horiz-adv-x="910" 
d="M181 0l-83 715h18l81 -687l318 687h13l93 -689l306 689h19l-317 -715h-24l-90 675l-310 -675h-24zM514 771l81 117h22l-84 -117h-19z" />
    <glyph glyph-name="Wcircumflex" unicode="&#x174;" horiz-adv-x="910" 
d="M181 0l-83 715h18l81 -687l318 687h13l93 -689l306 689h19l-317 -715h-24l-90 675l-310 -675h-24zM406 771l127 117h20l97 -117h-19l-89 102l-115 -102h-21z" />
    <glyph glyph-name="Wdieresis" unicode="&#x1e84;" horiz-adv-x="910" 
d="M181 0l-83 715h18l81 -687l318 687h13l93 -689l306 689h19l-317 -715h-24l-90 675l-310 -675h-24zM455 787c-10 0 -17 8 -17 17s7 17 17 17s17 -8 17 -17s-7 -17 -17 -17zM609 787c-10 0 -17 8 -17 17s7 17 17 17s17 -8 17 -17s-7 -17 -17 -17z" />
    <glyph glyph-name="Wgrave" unicode="&#x1e80;" horiz-adv-x="910" 
d="M181 0l-83 715h18l81 -687l318 687h13l93 -689l306 689h19l-317 -715h-24l-90 675l-310 -675h-24zM523 771l-64 117h21l61 -117h-18z" />
    <glyph glyph-name="Ycircumflex" unicode="&#x176;" horiz-adv-x="554" 
d="M228 0l51 325l-194 390h19l187 -373l282 373h22l-297 -391l-51 -324h-19zM233 771l127 117h20l97 -117h-19l-89 102l-115 -102h-21z" />
    <glyph glyph-name="Ygrave" unicode="&#x1ef2;" horiz-adv-x="554" 
d="M228 0l51 325l-194 390h19l187 -373l282 373h22l-297 -391l-51 -324h-19zM350 771l-64 117h21l61 -117h-18z" />
    <glyph glyph-name="Zacute" unicode="&#x179;" horiz-adv-x="577" 
d="M-16 0l1 7l594 691h-449l3 17h479l-1 -7l-594 -691h479l-3 -17h-509zM361 771l81 117h22l-84 -117h-19z" />
    <glyph glyph-name="Zdotaccent" unicode="&#x17b;" horiz-adv-x="577" 
d="M-16 0l1 7l594 691h-449l3 17h479l-1 -7l-594 -691h479l-3 -17h-509zM378 787c-10 0 -17 8 -17 17s7 17 17 17s17 -8 17 -17s-7 -17 -17 -17z" />
    <glyph glyph-name="abreve" unicode="&#x103;" horiz-adv-x="515" 
d="M206 -7c-120 0 -173 62 -173 140c0 126 103 159 218 159h175l7 47c16 110 -25 175 -148 175c-84 0 -152 -35 -181 -131h-18c27 103 110 147 199 147c135 0 184 -79 166 -192l-31 -196c-11 -72 -12 -113 -14 -142h-18c1 22 4 58 7 90c-29 -48 -95 -97 -189 -97zM206 9
c99 0 185 61 198 143l19 124h-172c-101 0 -200 -23 -200 -143c0 -70 46 -124 155 -124zM302 612c-65 0 -101 44 -102 108h18c0 -55 31 -92 84 -92c52 0 93 36 104 92h18c-12 -67 -63 -108 -122 -108z" />
    <glyph glyph-name="amacron" unicode="&#x101;" horiz-adv-x="515" 
d="M206 -7c-120 0 -173 62 -173 140c0 126 103 159 218 159h175l7 47c16 110 -25 175 -148 175c-84 0 -152 -35 -181 -131h-18c27 103 110 147 199 147c135 0 184 -79 166 -192l-31 -196c-11 -72 -12 -113 -14 -142h-18c1 22 4 58 7 90c-29 -48 -95 -97 -189 -97zM206 9
c99 0 185 61 198 143l19 124h-172c-101 0 -200 -23 -200 -143c0 -70 46 -124 155 -124zM199 646l3 17h219l-3 -17h-219z" />
    <glyph glyph-name="aogonek" unicode="&#x105;" horiz-adv-x="515" 
d="M361 -182c-54 0 -76 30 -76 67c0 58 70 100 103 120c1 22 4 55 7 85c-29 -48 -95 -97 -189 -97c-120 0 -173 62 -173 140c0 126 103 159 218 159h175l7 47c16 110 -25 175 -148 175c-84 0 -152 -35 -181 -131h-18c27 103 110 147 199 147c135 0 184 -79 166 -192
l-31 -196c-11 -72 -12 -113 -14 -142c-37 -22 -103 -62 -103 -115c0 -28 16 -51 59 -51c16 0 28 2 45 7l-3 -16c-12 -4 -27 -7 -43 -7zM206 9c99 0 185 61 198 143l19 124h-172c-101 0 -200 -23 -200 -143c0 -70 46 -124 155 -124z" />
    <glyph glyph-name="aringacute" unicode="&#x1fb;" horiz-adv-x="515" 
d="M206 -7c-120 0 -173 62 -173 140c0 126 103 159 218 159h175l7 47c16 110 -25 175 -148 175c-84 0 -152 -35 -181 -131h-18c27 103 110 147 199 147c135 0 184 -79 166 -192l-31 -196c-11 -72 -12 -113 -14 -142h-18c1 22 4 58 7 90c-29 -48 -95 -97 -189 -97zM206 9
c99 0 185 61 198 143l19 124h-172c-101 0 -200 -23 -200 -143c0 -70 46 -124 155 -124zM311 619c42 0 72 30 72 73c0 39 -27 68 -69 68c-40 0 -72 -31 -72 -73c0 -37 29 -68 69 -68zM311 604c-49 0 -86 39 -86 83c0 48 40 88 89 88c51 0 86 -38 86 -83
c0 -50 -38 -88 -89 -88zM329 831l81 117h22l-84 -117h-19z" />
    <glyph glyph-name="aeacute" unicode="&#x1fd;" horiz-adv-x="904" 
d="M439 219c0 -134 63 -210 191 -210c95 0 163 44 198 132h18c-35 -98 -111 -148 -216 -148c-127 0 -193 68 -206 181c-21 -131 -125 -181 -218 -181c-120 0 -173 61 -173 139c0 122 103 154 218 154h175l8 53c16 110 -26 175 -149 175c-84 0 -152 -35 -181 -131h-18
c27 103 110 147 199 147c119 0 170 -61 168 -153c40 89 115 153 223 153c152 0 211 -111 190 -247l-2 -13h-422c-2 -17 -3 -34 -3 -51zM206 9c101 0 186 59 204 176l13 85h-172c-101 0 -200 -21 -200 -138c0 -70 46 -123 155 -123zM676 514c-134 0 -212 -103 -232 -228h405
c18 128 -33 228 -173 228zM496 596l98 147h21l-101 -147h-18z" />
    <glyph glyph-name="cacute" unicode="&#x107;" horiz-adv-x="539" 
d="M268 -7c-140 0 -226 98 -226 238c0 164 108 299 269 299c108 0 187 -68 193 -167h-18c-4 86 -73 151 -176 151c-153 0 -250 -130 -250 -283c0 -135 85 -222 208 -222c103 0 182 56 210 161h18c-28 -118 -118 -177 -228 -177zM300 596l98 147h21l-101 -147h-18z" />
    <glyph glyph-name="ccaron" unicode="&#x10d;" horiz-adv-x="539" 
d="M268 -7c-140 0 -226 98 -226 238c0 164 108 299 269 299c108 0 187 -68 193 -167h-18c-4 86 -73 151 -176 151c-153 0 -250 -130 -250 -283c0 -135 85 -222 208 -222c103 0 182 56 210 161h18c-28 -118 -118 -177 -228 -177zM452 737l-127 -124h-19l-96 124h19l88 -109
l114 109h21z" />
    <glyph glyph-name="ccircumflex" unicode="&#x109;" horiz-adv-x="539" 
d="M268 -7c-140 0 -226 98 -226 238c0 164 108 299 269 299c108 0 187 -68 193 -167h-18c-4 86 -73 151 -176 151c-153 0 -250 -130 -250 -283c0 -135 85 -222 208 -222c103 0 182 56 210 161h18c-28 -118 -118 -177 -228 -177zM188 596l127 124h19l96 -124h-19l-88 109
l-114 -109h-21z" />
    <glyph glyph-name="cdotaccent" unicode="&#x10b;" horiz-adv-x="539" 
d="M268 -7c-140 0 -226 98 -226 238c0 164 108 299 269 299c108 0 187 -68 193 -167h-18c-4 86 -73 151 -176 151c-153 0 -250 -130 -250 -283c0 -135 85 -222 208 -222c103 0 182 56 210 161h18c-28 -118 -118 -177 -228 -177zM317 639c-10 0 -17 8 -17 17s7 17 17 17
s17 -8 17 -17s-7 -17 -17 -17z" />
    <glyph glyph-name="dcaron" unicode="&#x10f;" horiz-adv-x="588" 
d="M626 626l39 147h19l-41 -147h-17zM250 -7c-120 0 -213 88 -213 232c0 165 101 305 261 305c135 0 194 -106 204 -184l68 427h18l-95 -600c-15 -92 -17 -144 -19 -173h-18c1 35 8 102 14 143c-37 -83 -112 -150 -220 -150zM250 9c154 0 239 146 241 277
c2 143 -79 228 -193 228c-152 0 -243 -132 -243 -289c0 -138 88 -216 195 -216z" />
    <glyph glyph-name="ebreve" unicode="&#x115;" horiz-adv-x="529" 
d="M57 219c0 -134 68 -210 196 -210c95 0 165 44 200 132h18c-35 -98 -113 -148 -218 -148c-143 0 -215 86 -215 226c0 161 96 311 261 311c152 0 213 -111 192 -247l-2 -13h-429c-2 -17 -3 -34 -3 -51zM299 514c-135 0 -216 -103 -237 -228h412c18 128 -33 228 -175 228z
M309 612c-65 0 -101 44 -102 108h18c0 -55 31 -92 84 -92c52 0 93 36 104 92h18c-12 -67 -63 -108 -122 -108z" />
    <glyph glyph-name="ecaron" unicode="&#x11b;" horiz-adv-x="529" 
d="M57 219c0 -134 68 -210 196 -210c95 0 165 44 200 132h18c-35 -98 -113 -148 -218 -148c-143 0 -215 86 -215 226c0 161 96 311 261 311c152 0 213 -111 192 -247l-2 -13h-429c-2 -17 -3 -34 -3 -51zM299 514c-135 0 -216 -103 -237 -228h412c18 128 -33 228 -175 228z
M445 737l-127 -124h-19l-96 124h19l88 -109l114 109h21z" />
    <glyph glyph-name="edotaccent" unicode="&#x117;" horiz-adv-x="529" 
d="M57 219c0 -134 68 -210 196 -210c95 0 165 44 200 132h18c-35 -98 -113 -148 -218 -148c-143 0 -215 86 -215 226c0 161 96 311 261 311c152 0 213 -111 192 -247l-2 -13h-429c-2 -17 -3 -34 -3 -51zM299 514c-135 0 -216 -103 -237 -228h412c18 128 -33 228 -175 228z
M312 639c-10 0 -17 8 -17 17s7 17 17 17s17 -8 17 -17s-7 -17 -17 -17z" />
    <glyph glyph-name="emacron" unicode="&#x113;" horiz-adv-x="529" 
d="M57 219c0 -134 68 -210 196 -210c95 0 165 44 200 132h18c-35 -98 -113 -148 -218 -148c-143 0 -215 86 -215 226c0 161 96 311 261 311c152 0 213 -111 192 -247l-2 -13h-429c-2 -17 -3 -34 -3 -51zM299 514c-135 0 -216 -103 -237 -228h412c18 128 -33 228 -175 228z
M204 646l3 17h219l-3 -17h-219z" />
    <glyph glyph-name="eogonek" unicode="&#x119;" horiz-adv-x="529" 
d="M293 -182c-54 0 -76 30 -76 67c0 56 65 96 103 117c-20 -4 -45 -9 -67 -9c-143 0 -215 86 -215 226c0 161 96 311 261 311c152 0 213 -111 192 -247l-2 -13h-429c-2 -17 -3 -34 -3 -51c0 -134 68 -210 196 -210c95 0 165 44 200 132h18c-17 -47 -43 -81 -78 -107
c-76 -56 -158 -87 -158 -149c0 -28 16 -51 59 -51c16 0 28 2 45 7l-3 -16c-12 -4 -27 -7 -43 -7zM299 514c-135 0 -215 -103 -236 -228h411c18 128 -33 228 -175 228z" />
    <glyph glyph-name="gbreve" unicode="&#x11f;" horiz-adv-x="594" 
d="M255 33c148 1 244 137 244 283c0 110 -65 198 -192 198c-149 1 -246 -121 -246 -276c0 -115 68 -205 194 -205zM554 523l-80 -508c-22 -137 -113 -200 -242 -200c-108 0 -205 48 -220 155h18c14 -89 91 -139 202 -139c121 0 205 61 224 184l24 153
c-34 -71 -108 -151 -226 -151c-130 0 -211 89 -211 221c0 161 105 292 264 292c113 0 185 -67 204 -166l25 159h18zM325 612c-65 0 -101 44 -102 108h18c0 -55 31 -92 84 -92c52 0 93 36 104 92h18c-12 -67 -63 -108 -122 -108z" />
    <glyph glyph-name="gcircumflex" unicode="&#x11d;" horiz-adv-x="594" 
d="M255 33c148 1 244 137 244 283c0 110 -65 198 -192 198c-149 1 -246 -121 -246 -276c0 -115 68 -205 194 -205zM554 523l-80 -508c-22 -137 -113 -200 -242 -200c-108 0 -205 48 -220 155h18c14 -89 91 -139 202 -139c121 0 205 61 224 184l24 153
c-34 -71 -108 -151 -226 -151c-130 0 -211 89 -211 221c0 161 105 292 264 292c113 0 185 -67 204 -166l25 159h18zM200 596l127 124h19l96 -124h-19l-88 109l-114 -109h-21z" />
    <glyph glyph-name="gcommaaccent" unicode="&#x123;" horiz-adv-x="594" 
d="M255 33c148 1 244 137 244 283c0 110 -65 198 -192 198c-149 1 -246 -121 -246 -276c0 -115 68 -205 194 -205zM554 523l-80 -508c-22 -137 -113 -200 -242 -200c-108 0 -205 48 -220 155h18c14 -89 91 -139 202 -139c121 0 205 61 224 184l24 153
c-34 -71 -108 -151 -226 -151c-130 0 -211 89 -211 221c0 161 105 292 264 292c113 0 185 -67 204 -166l25 159h18zM377 753l14 -7l-67 -133l-19 5z" />
    <glyph glyph-name="gdotaccent" unicode="&#x121;" horiz-adv-x="594" 
d="M255 33c148 1 244 137 244 283c0 110 -65 198 -192 198c-149 1 -246 -121 -246 -276c0 -115 68 -205 194 -205zM554 523l-80 -508c-22 -137 -113 -200 -242 -200c-108 0 -205 48 -220 155h18c14 -89 91 -139 202 -139c121 0 205 61 224 184l24 153
c-34 -71 -108 -151 -226 -151c-130 0 -211 89 -211 221c0 161 105 292 264 292c113 0 185 -67 204 -166l25 159h18zM330 639c-10 0 -17 8 -17 17s7 17 17 17s17 -8 17 -17s-7 -17 -17 -17z" />
    <glyph glyph-name="hbar" unicode="&#x127;" horiz-adv-x="559" 
d="M56 633l3 16h81l20 124h18l-20 -124h196l-3 -16h-195l-37 -233c35 69 109 130 208 130c116 0 186 -75 163 -220l-49 -310h-18l49 310c22 138 -41 204 -145 204c-98 0 -201 -69 -221 -197l-50 -317h-18l100 633h-82z" />
    <glyph glyph-name="hcircumflex" unicode="&#x125;" horiz-adv-x="559" 
d="M38 0l122 773h18l-59 -373c35 69 109 130 208 130c116 0 186 -75 163 -220l-49 -310h-18l49 310c22 138 -41 204 -145 204c-98 0 -201 -69 -221 -197l-50 -317h-18zM228 811l127 117h20l97 -117h-19l-89 102l-115 -102h-21z" />
    <glyph glyph-name="ibreve" unicode="&#x12d;" horiz-adv-x="182" 
d="M40 0l82 523h18l-82 -523h-18zM144 612c-65 0 -101 44 -102 108h18c0 -55 31 -92 84 -92c52 0 93 36 104 92h18c-12 -67 -63 -108 -122 -108z" />
    <glyph glyph-name="imacron" unicode="&#x12b;" horiz-adv-x="182" 
d="M76 646l3 17h150l-3 -17h-150zM40 0l82 523h18l-82 -523h-18z" />
    <glyph glyph-name="iogonek" unicode="&#x12f;" horiz-adv-x="182" 
d="M41 4l81 519h18l-82 -523c-34 -26 -81 -65 -81 -115c0 -28 16 -51 59 -51c16 0 28 2 45 7l-3 -16c-12 -4 -27 -7 -43 -7c-54 0 -76 30 -76 67c0 55 54 97 82 119zM151 639c-10 0 -17 8 -17 17s7 17 17 17s17 -8 17 -17s-7 -17 -17 -17z" />
    <glyph glyph-name="itilde" unicode="&#x129;" horiz-adv-x="182" 
d="M40 0l82 523h18l-82 -523h-18zM213 613c-51 0 -94 64 -136 64c-25 0 -50 -20 -59 -63h-17c11 54 41 79 77 79c49 0 93 -64 136 -64c24 0 49 20 58 63h17c-11 -53 -41 -79 -76 -79z" />
    <glyph glyph-name="idotaccent" horiz-adv-x="182" 
d="M151 639c-10 0 -17 8 -17 17s7 17 17 17s17 -8 17 -17s-7 -17 -17 -17zM40 0l82 523h18l-82 -523h-18z" />
    <glyph glyph-name="jcircumflex" unicode="&#x135;" horiz-adv-x="182" 
d="M-66 -184l3 16c58 3 80 30 90 92l95 599h18l-95 -599c-13 -80 -45 -105 -111 -108zM17 596l127 124h19l96 -124h-19l-88 109l-114 -109h-21z" />
    <glyph glyph-name="kcommaaccent" unicode="&#x137;" horiz-adv-x="452" 
d="M368 0l-262 281l323 242h26l-324 -243l260 -280h-23zM38 0l122 773h18l-122 -773h-18zM130 -186l-14 7l67 133l19 -5z" />
    <glyph glyph-name="lacute" unicode="&#x13a;" horiz-adv-x="182" 
d="M40 0l122 773h18l-122 -773h-18zM169 811l81 117h22l-84 -117h-19z" />
    <glyph glyph-name="lcaron" unicode="&#x13e;" horiz-adv-x="182" 
d="M218 626l39 147h19l-41 -147h-17zM40 0l122 773h18l-122 -773h-18z" />
    <glyph glyph-name="lcommaaccent" unicode="&#x13c;" horiz-adv-x="182" 
d="M40 0l122 773h18l-122 -773h-18zM-18 -186l-14 7l67 133l19 -5z" />
    <glyph glyph-name="ldot" unicode="&#x140;" horiz-adv-x="222" 
d="M40 0l122 773h18l-122 -773h-18zM219 363c-10 0 -17 8 -17 17s7 17 17 17s17 -8 17 -17s-7 -17 -17 -17z" />
    <glyph glyph-name="nacute" unicode="&#x144;" horiz-adv-x="559" 
d="M38 0l61 389c11 69 13 105 15 134h18c-1 -27 -5 -74 -13 -123c35 69 109 130 208 130c116 0 186 -75 163 -220l-49 -310h-18l49 310c22 138 -41 204 -145 204c-98 0 -201 -69 -221 -197l-50 -317h-18zM312 596l98 147h21l-101 -147h-18z" />
    <glyph glyph-name="napostrophe" unicode="&#x149;" horiz-adv-x="574" 
d="M53 0l61 389c11 69 13 105 15 134h18c-1 -27 -5 -74 -13 -123c35 69 109 130 208 130c116 0 186 -75 163 -220l-49 -310h-18l49 310c22 138 -41 204 -145 204c-98 0 -201 -69 -221 -197l-50 -317h-18zM47 574l-14 7l68 137l17 -8z" />
    <glyph glyph-name="ncaron" unicode="&#x148;" horiz-adv-x="559" 
d="M38 0l61 389c11 69 13 105 15 134h18c-1 -27 -5 -74 -13 -123c35 69 109 130 208 130c116 0 186 -75 163 -220l-49 -310h-18l49 310c22 138 -41 204 -145 204c-98 0 -201 -69 -221 -197l-50 -317h-18zM462 737l-127 -124h-19l-96 124h19l88 -109l114 109h21z" />
    <glyph glyph-name="ncommaaccent" unicode="&#x146;" horiz-adv-x="559" 
d="M38 0l61 389c11 69 13 105 15 134h18c-1 -27 -5 -74 -13 -123c35 69 109 130 208 130c116 0 186 -75 163 -220l-49 -310h-18l49 310c22 138 -41 204 -145 204c-98 0 -201 -69 -221 -197l-50 -317h-18zM183 -186l-14 7l67 133l19 -5z" />
    <glyph glyph-name="obreve" unicode="&#x14f;" horiz-adv-x="567" 
d="M263 -7c-135 0 -226 107 -226 238c0 156 100 298 271 298c140 0 222 -112 222 -237c0 -167 -101 -299 -267 -299zM263 9c154 0 249 124 249 283c0 117 -73 221 -204 221c-162 0 -253 -132 -253 -282c0 -118 80 -222 208 -222zM326 612c-65 0 -101 44 -102 108h18
c0 -55 31 -92 84 -92c52 0 93 36 104 92h18c-12 -67 -63 -108 -122 -108z" />
    <glyph glyph-name="ohungarumlaut" unicode="&#x151;" horiz-adv-x="567" 
d="M263 -7c-135 0 -226 107 -226 238c0 156 100 298 271 298c140 0 222 -112 222 -237c0 -167 -101 -299 -267 -299zM263 9c154 0 249 124 249 283c0 117 -73 221 -204 221c-162 0 -253 -132 -253 -282c0 -118 80 -222 208 -222zM264 596l82 147h21l-85 -147h-18zM370 596
l82 147h21l-85 -147h-18z" />
    <glyph glyph-name="omacron" unicode="&#x14d;" horiz-adv-x="567" 
d="M263 -7c-135 0 -226 107 -226 238c0 156 100 298 271 298c140 0 222 -112 222 -237c0 -167 -101 -299 -267 -299zM263 9c154 0 249 124 249 283c0 117 -73 221 -204 221c-162 0 -253 -132 -253 -282c0 -118 80 -222 208 -222zM220 646l3 17h219l-3 -17h-219z" />
    <glyph glyph-name="oslashacute" unicode="&#x1ff;" horiz-adv-x="567" 
d="M32 -11l-12 10l71 73c-35 42 -54 98 -54 159c0 156 100 298 271 298c67 0 121 -26 159 -67l68 71l11 -10l-70 -72c35 -43 54 -100 54 -159c0 -167 -101 -299 -267 -299c-67 0 -122 26 -162 68zM263 9c154 0 249 124 249 283c0 55 -17 107 -47 147l-352 -366
c36 -40 87 -64 150 -64zM55 231c0 -55 17 -107 48 -146l352 365c-34 39 -84 63 -147 63c-162 0 -253 -132 -253 -282zM309 596l98 147h21l-101 -147h-18z" />
    <glyph glyph-name="racute" unicode="&#x155;" horiz-adv-x="316" 
d="M38 0l61 389c11 69 13 105 15 134h18c-1 -27 -5 -76 -14 -129c32 71 95 130 204 133l-3 -16c-103 -3 -193 -67 -217 -218l-46 -293h-18zM205 596l98 147h21l-101 -147h-18z" />
    <glyph glyph-name="rcaron" unicode="&#x159;" horiz-adv-x="316" 
d="M38 0l61 389c11 69 13 105 15 134h18c-1 -27 -5 -76 -14 -129c32 71 95 130 204 133l-3 -16c-103 -3 -193 -67 -217 -218l-46 -293h-18zM357 737l-127 -124h-19l-96 124h19l88 -109l114 109h21z" />
    <glyph glyph-name="rcommaaccent" unicode="&#x157;" horiz-adv-x="316" 
d="M38 0l61 389c11 69 13 105 15 134h18c-1 -27 -5 -76 -14 -129c32 71 95 130 204 133l-3 -16c-103 -3 -193 -67 -217 -218l-46 -293h-18zM-22 -186l-14 7l67 133l19 -5z" />
    <glyph glyph-name="sacute" unicode="&#x15b;" horiz-adv-x="444" 
d="M200 -9c-110 0 -183 50 -189 160h18c6 -92 60 -144 171 -144c88 0 162 41 162 131c0 67 -40 95 -138 123c-103 31 -154 60 -154 135c0 89 77 133 168 133c90 0 161 -34 170 -131h-18c-8 76 -58 115 -152 115c-84 0 -150 -37 -150 -117c0 -63 40 -89 142 -119
c99 -29 150 -58 150 -139c0 -99 -85 -147 -180 -147zM242 596l98 147h21l-101 -147h-18z" />
    <glyph glyph-name="scedilla" unicode="&#x15f;" horiz-adv-x="444" 
d="M143 -210c-50 0 -83 27 -86 72h19c2 -35 26 -56 67 -56c32 0 70 15 70 62c0 38 -26 52 -56 52c-22 0 -37 -7 -46 -12l-8 8l52 78c-85 12 -139 63 -144 157h18c6 -92 60 -144 171 -144c88 0 162 41 162 131c0 67 -40 95 -138 123c-103 31 -154 60 -154 135
c0 89 77 133 168 133c90 0 161 -34 170 -131h-18c-8 76 -58 115 -152 115c-84 0 -150 -37 -150 -117c0 -63 40 -89 142 -119c99 -29 150 -58 150 -139c0 -99 -85 -147 -180 -147c-10 0 -15 0 -29 1l-42 -63c49 18 101 -5 101 -61c0 -48 -37 -78 -87 -78z" />
    <glyph glyph-name="scircumflex" unicode="&#x15d;" horiz-adv-x="444" 
d="M200 -9c-110 0 -183 50 -189 160h18c6 -92 60 -144 171 -144c88 0 162 41 162 131c0 67 -40 95 -138 123c-103 31 -154 60 -154 135c0 89 77 133 168 133c90 0 161 -34 170 -131h-18c-8 76 -58 115 -152 115c-84 0 -150 -37 -150 -117c0 -63 40 -89 142 -119
c99 -29 150 -58 150 -139c0 -99 -85 -147 -180 -147zM130 596l127 124h19l96 -124h-19l-88 109l-114 -109h-21z" />
    <glyph glyph-name="scommaaccent" unicode="&#x219;" horiz-adv-x="444" 
d="M200 -9c-110 0 -183 50 -189 160h18c6 -92 60 -144 171 -144c88 0 162 41 162 131c0 67 -40 95 -138 123c-103 31 -154 60 -154 135c0 89 77 133 168 133c90 0 161 -34 170 -131h-18c-8 76 -58 115 -152 115c-84 0 -150 -37 -150 -117c0 -63 40 -89 142 -119
c99 -29 150 -58 150 -139c0 -99 -85 -147 -180 -147zM99 -186l-14 7l67 133l19 -5z" />
    <glyph glyph-name="tbar" unicode="&#x167;" horiz-adv-x="319" 
d="M32 327l3 16h79l26 164h-80l3 16h79l19 119h18l-19 -119h155l-3 -16h-154l-26 -164h155l-3 -16h-155l-31 -200c-13 -84 19 -118 77 -118c27 0 49 5 67 12l-3 -16c-16 -7 -38 -12 -64 -12c-72 0 -109 45 -95 134l31 200h-79z" />
    <glyph glyph-name="tcaron" unicode="&#x165;" horiz-adv-x="319" 
d="M175 -7c-72 0 -109 45 -95 134l60 380h-80l3 16h79l19 119h18l-19 -119h155l-3 -16h-154l-60 -380c-13 -84 19 -118 77 -118c27 0 49 5 67 12l-3 -16c-16 -7 -38 -12 -64 -12zM283 626l39 147h19l-41 -147h-17z" />
    <glyph glyph-name="tcommaaccent" unicode="&#x163;" horiz-adv-x="319" 
d="M175 -7c-72 0 -109 45 -95 134l60 380h-80l3 16h79l19 119h18l-19 -119h155l-3 -16h-154l-60 -380c-13 -84 19 -118 77 -118c27 0 49 5 67 12l-3 -16c-16 -7 -38 -12 -64 -12zM75 -186l-14 7l67 133l19 -5z" />
    <glyph glyph-name="ubreve" unicode="&#x16d;" horiz-adv-x="555" 
d="M513 523l-61 -389c-9 -59 -12 -109 -13 -134h-18c1 31 5 78 11 121c-35 -69 -108 -128 -207 -128c-116 0 -184 75 -161 220l49 310h18l-49 -310c-22 -138 39 -204 143 -204c98 0 200 69 220 197l50 317h18zM319 612c-65 0 -101 44 -102 108h18c0 -55 31 -92 84 -92
c52 0 93 36 104 92h18c-12 -67 -63 -108 -122 -108z" />
    <glyph glyph-name="uhungarumlaut" unicode="&#x171;" horiz-adv-x="555" 
d="M513 523l-61 -389c-9 -59 -12 -109 -13 -134h-18c1 31 5 78 11 121c-35 -69 -108 -128 -207 -128c-116 0 -184 75 -161 220l49 310h18l-49 -310c-22 -138 39 -204 143 -204c98 0 200 69 220 197l50 317h18zM256 596l82 147h21l-85 -147h-18zM362 596l82 147h21l-85 -147
h-18z" />
    <glyph glyph-name="umacron" unicode="&#x16b;" horiz-adv-x="555" 
d="M513 523l-61 -389c-9 -59 -12 -109 -13 -134h-18c1 31 5 78 11 121c-35 -69 -108 -128 -207 -128c-116 0 -184 75 -161 220l49 310h18l-49 -310c-22 -138 39 -204 143 -204c98 0 200 69 220 197l50 317h18zM216 646l3 17h219l-3 -17h-219z" />
    <glyph glyph-name="uogonek" unicode="&#x173;" horiz-adv-x="555" 
d="M513 523l-61 -389c-9 -59 -12 -109 -13 -134c-37 -22 -103 -62 -103 -115c0 -28 16 -51 59 -51c16 0 28 2 45 7l-3 -16c-12 -4 -27 -7 -43 -7c-54 0 -76 30 -76 67c0 58 70 100 103 120c1 31 5 75 11 116c-35 -69 -108 -128 -207 -128c-116 0 -184 75 -161 220l49 310h18
l-49 -310c-22 -138 39 -204 143 -204c98 0 200 69 220 197l50 317h18z" />
    <glyph glyph-name="uring" unicode="&#x16f;" horiz-adv-x="555" 
d="M513 523l-61 -389c-9 -59 -12 -109 -13 -134h-18c1 31 5 78 11 121c-35 -69 -108 -128 -207 -128c-116 0 -184 75 -161 220l49 310h18l-49 -310c-22 -138 39 -204 143 -204c98 0 200 69 220 197l50 317h18zM333 619c42 0 72 30 72 73c0 39 -27 68 -69 68
c-40 0 -72 -31 -72 -73c0 -37 29 -68 69 -68zM333 604c-49 0 -86 39 -86 83c0 48 40 88 89 88c51 0 86 -38 86 -83c0 -50 -38 -88 -89 -88z" />
    <glyph glyph-name="utilde" unicode="&#x169;" horiz-adv-x="555" 
d="M513 523l-61 -389c-9 -59 -12 -109 -13 -134h-18c1 31 5 78 11 121c-35 -69 -108 -128 -207 -128c-116 0 -184 75 -161 220l49 310h18l-49 -310c-22 -138 39 -204 143 -204c98 0 200 69 220 197l50 317h18zM388 613c-51 0 -94 64 -136 64c-25 0 -50 -20 -59 -63h-17
c11 54 41 79 77 79c49 0 93 -64 136 -64c24 0 49 20 58 63h17c-11 -53 -41 -79 -76 -79z" />
    <glyph glyph-name="wacute" unicode="&#x1e83;" horiz-adv-x="749" 
d="M155 0l-85 523h18l82 -502l236 502h14l86 -502l234 502h19l-243 -523h-24l-83 489l-230 -489h-24zM411 596l98 147h21l-101 -147h-18z" />
    <glyph glyph-name="wcircumflex" unicode="&#x175;" horiz-adv-x="749" 
d="M155 0l-85 523h18l82 -502l236 502h14l86 -502l234 502h19l-243 -523h-24l-83 489l-230 -489h-24zM297 596l127 124h19l96 -124h-19l-88 109l-114 -109h-21z" />
    <glyph glyph-name="wdieresis" unicode="&#x1e85;" horiz-adv-x="749" 
d="M155 0l-85 523h18l82 -502l236 502h14l86 -502l234 502h19l-243 -523h-24l-83 489l-230 -489h-24zM361 639c-10 0 -17 8 -17 17s7 17 17 17s17 -8 17 -17s-7 -17 -17 -17zM503 639c-10 0 -17 8 -17 17s7 17 17 17s17 -8 17 -17s-7 -17 -17 -17z" />
    <glyph glyph-name="wgrave" unicode="&#x1e81;" horiz-adv-x="749" 
d="M155 0l-85 523h18l82 -502l236 502h14l86 -502l234 502h19l-243 -523h-24l-83 489l-230 -489h-24zM412 596l-55 147h19l53 -147h-17z" />
    <glyph glyph-name="ycircumflex" unicode="&#x177;" horiz-adv-x="480" 
d="M78 -182l122 218l-134 487h18l129 -466l261 466h20l-396 -705h-20zM163 596l127 124h19l96 -124h-19l-88 109l-114 -109h-21z" />
    <glyph glyph-name="ygrave" unicode="&#x1ef3;" horiz-adv-x="480" 
d="M78 -182l122 218l-134 487h18l129 -466l261 466h20l-396 -705h-20zM280 596l-55 147h19l53 -147h-17z" />
    <glyph glyph-name="zacute" unicode="&#x17a;" horiz-adv-x="457" 
d="M-16 0l1 5l449 502h-339l3 16h370l-1 -5l-449 -502h360l-3 -16h-391zM273 596l98 147h21l-101 -147h-18z" />
    <glyph glyph-name="zdotaccent" unicode="&#x17c;" horiz-adv-x="457" 
d="M-16 0l1 5l449 502h-339l3 16h370l-1 -5l-449 -502h360l-3 -16h-391zM291 639c-10 0 -17 8 -17 17s7 17 17 17s17 -8 17 -17s-7 -17 -17 -17z" />
    <glyph glyph-name="f_i" unicode="&#xfb01;" horiz-adv-x="490" 
d="M61 507l3 16h85l16 98c20 123 86 155 156 155c18 0 38 -3 51 -7l-2 -16c-15 5 -31 7 -49 7c-63 0 -119 -25 -138 -140l-16 -97h166l-3 -16h-165l-80 -507h-18l80 507h-86zM348 0l82 523h18l-82 -523h-18zM459 639c-10 0 -17 8 -17 17s7 17 17 17s17 -8 17 -17
s-7 -17 -17 -17z" />
    <glyph glyph-name="f_l" unicode="&#xfb02;" horiz-adv-x="490" 
d="M61 507l3 16h85l16 98c20 123 86 155 156 155c18 0 38 -3 51 -7l-2 -16c-15 5 -31 7 -49 7c-63 0 -119 -25 -138 -140l-16 -97h166l-3 -16h-165l-80 -507h-18l80 507h-86zM348 0l122 773h18l-122 -773h-18z" />
    <glyph glyph-name="oneeighth" unicode="&#x215b;" horiz-adv-x="689" 
d="M132 370l51 319l-106 -68l3 20l115 74h10l-55 -345h-18zM5 0l588 715h21l-588 -715h-21zM500 -3c-64 0 -120 34 -120 93c0 55 41 87 98 96c-32 10 -60 36 -60 73c0 56 52 89 109 89c53 0 104 -29 104 -84c0 -43 -33 -74 -79 -82c41 -12 71 -38 71 -85
c0 -68 -52 -100 -123 -100zM398 90c1 -47 40 -77 102 -77c55 0 105 21 105 84c0 51 -45 79 -100 79c-53 0 -107 -24 -107 -86zM436 259c0 -42 42 -67 89 -67c42 0 88 23 88 72c0 44 -39 68 -86 68c-46 0 -91 -21 -91 -73z" />
    <glyph glyph-name="onethird" unicode="&#x2153;" horiz-adv-x="689" 
d="M132 370l51 319l-106 -68l3 20l115 74h10l-55 -345h-18zM3 0l588 715h21l-588 -715h-21zM507 -3c-66 0 -118 35 -122 98h18c4 -51 44 -82 104 -82c54 0 99 28 99 87c0 38 -27 73 -80 73h-24l3 16h29c43 0 80 24 80 74c0 46 -36 70 -80 70c-56 0 -89 -34 -101 -79h-17
c12 54 54 94 118 94c50 0 98 -28 98 -85c0 -43 -25 -72 -68 -83c35 -10 60 -39 60 -80c0 -66 -53 -103 -117 -103z" />
    <glyph glyph-name="threeeighths" unicode="&#x215c;" horiz-adv-x="741" 
d="M187 367c-66 0 -118 35 -122 98h18c4 -51 44 -82 104 -82c54 0 99 28 99 87c0 38 -27 73 -80 73h-24l3 16h29c43 0 80 24 80 74c0 46 -36 70 -80 70c-56 0 -89 -34 -101 -79h-17c12 54 54 94 118 94c50 0 98 -28 98 -85c0 -43 -25 -72 -68 -83c35 -10 60 -39 60 -80
c0 -66 -53 -103 -117 -103zM76 0l588 715h21l-588 -715h-21zM552 -3c-64 0 -120 34 -120 93c0 55 41 87 98 96c-32 10 -60 36 -60 73c0 56 52 89 109 89c53 0 104 -29 104 -84c0 -43 -33 -74 -79 -82c41 -12 71 -38 71 -85c0 -68 -52 -100 -123 -100zM450 90
c1 -47 40 -77 102 -77c55 0 105 21 105 84c0 51 -45 79 -100 79c-53 0 -107 -24 -107 -86zM488 259c0 -42 42 -67 89 -67c42 0 88 23 88 72c0 44 -39 68 -86 68c-46 0 -91 -21 -91 -73z" />
    <glyph glyph-name="fiveeighths" unicode="&#x215d;" horiz-adv-x="731" 
d="M169 367c-53 0 -103 30 -108 89h18c5 -47 41 -73 90 -73c63 0 105 42 105 110c0 49 -35 85 -86 85c-42 0 -71 -19 -90 -40h-8l28 177h187l-3 -16h-170l-21 -134c18 16 46 29 78 29c58 0 103 -40 103 -101c0 -75 -50 -126 -123 -126zM63 0l588 715h21l-588 -715h-21z
M542 -3c-64 0 -120 34 -120 93c0 55 41 87 98 96c-32 10 -60 36 -60 73c0 56 52 89 109 89c53 0 104 -29 104 -84c0 -43 -33 -74 -79 -82c41 -12 71 -38 71 -85c0 -68 -52 -100 -123 -100zM440 90c1 -47 40 -77 102 -77c55 0 105 21 105 84c0 51 -45 79 -100 79
c-53 0 -107 -24 -107 -86zM478 259c0 -42 42 -67 89 -67c42 0 88 23 88 72c0 44 -39 68 -86 68c-46 0 -91 -21 -91 -73z" />
    <glyph glyph-name="twothirds" unicode="&#x2154;" horiz-adv-x="740" 
d="M39 370l1 7l151 122c49 39 92 74 92 131c0 41 -29 73 -77 73c-53 0 -92 -32 -106 -92h-17c13 70 64 107 123 107s95 -37 95 -88c0 -64 -46 -100 -99 -143l-125 -101h195l-3 -16h-230zM73 0l588 715h21l-588 -715h-21zM558 -3c-66 0 -118 35 -122 98h18
c4 -51 44 -82 104 -82c54 0 99 28 99 87c0 38 -27 73 -80 73h-24l3 16h29c43 0 80 24 80 74c0 46 -36 70 -80 70c-56 0 -89 -34 -101 -79h-17c12 54 54 94 118 94c50 0 98 -28 98 -85c0 -43 -25 -72 -68 -83c35 -10 60 -39 60 -80c0 -66 -53 -103 -117 -103z" />
    <glyph glyph-name="seveneighths" unicode="&#x215e;" horiz-adv-x="686" 
d="M99 370l195 329h-207l3 16h233l-1 -4l-202 -341h-21zM2 0l588 715h21l-588 -715h-21zM497 -3c-64 0 -120 34 -120 93c0 55 41 87 98 96c-32 10 -60 36 -60 73c0 56 52 89 109 89c53 0 104 -29 104 -84c0 -43 -33 -74 -79 -82c41 -12 71 -38 71 -85
c0 -68 -52 -100 -123 -100zM395 90c1 -47 40 -77 102 -77c55 0 105 21 105 84c0 51 -45 79 -100 79c-53 0 -107 -24 -107 -86zM433 259c0 -42 42 -67 89 -67c42 0 88 23 88 72c0 44 -39 68 -86 68c-46 0 -91 -21 -91 -73z" />
    <glyph glyph-name="uni24C5" unicode="&#x24c5;" horiz-adv-x="844" 
d="M331 146v425h107c85 0 142 -33 142 -117v-2c0 -85 -57 -118 -142 -118h-89v-188h-18zM349 350h89c75 0 124 28 124 102v2c0 73 -50 101 -124 101h-89v-205zM433 6c197 0 351 153 351 353c0 195 -150 350 -349 350c-197 0 -351 -156 -351 -352c0 -199 155 -351 349 -351z
M433 -9c-203 0 -366 159 -366 366c0 204 162 367 368 367c208 0 366 -162 366 -365c0 -208 -162 -368 -368 -368z" />
    <glyph glyph-name="registered.alt" horiz-adv-x="844" 
d="M321 151v426h106c85 0 142 -31 142 -111v-2c0 -71 -45 -104 -114 -110l139 -203h-20l-138 201h-97v-201h-18zM339 368h88c76 0 124 25 124 96v2c0 72 -50 95 -124 95h-88v-193zM433 6c197 0 351 153 351 353c0 195 -150 350 -349 350c-197 0 -351 -156 -351 -352
c0 -199 155 -351 349 -351zM433 -9c-203 0 -366 159 -366 366c0 204 162 367 368 367c208 0 366 -162 366 -365c0 -208 -162 -368 -368 -368z" />
    <glyph glyph-name="dollar.old" horiz-adv-x="564" 
d="M267 -6c-7 0 -14 0 -20 1l-20 -126h-18l20 127c-110 10 -194 66 -202 188h19c10 -107 79 -162 185 -172l54 343c-127 36 -181 83 -181 164c0 119 96 180 217 180c6 0 12 0 18 -1l15 91h18l-15 -92c97 -10 164 -59 174 -152h-18c-12 82 -69 127 -158 135l-49 -312
c131 -35 193 -71 193 -172c0 -131 -99 -202 -232 -202zM480 196c0 89 -55 121 -177 155l-54 -340h17c124 0 214 63 214 185zM123 519c0 -72 48 -113 165 -146l49 308c-5 0 -10 1 -15 1c-113 0 -199 -51 -199 -163z" />
    <glyph glyph-name="Euro.old" horiz-adv-x="636" 
d="M52 406l3 16h63c32 179 127 277 276 277c121 0 198 -63 204 -186h-18c-8 113 -73 169 -186 169c-140 0 -227 -91 -257 -260h260l-5 -16h-258l-19 -116h236l-5 -16h-233c-19 -144 36 -263 204 -263c119 0 198 70 226 186h18c-28 -131 -122 -203 -244 -203
c-175 0 -245 122 -223 280h-62l3 16h61l19 116h-63z" />
    <glyph glyph-name="sterling.old" horiz-adv-x="581" 
d="M60 332l3 16h77c-5 39 -11 77 -11 117c0 136 78 234 225 234c126 0 184 -72 187 -170h-18c-4 91 -58 153 -169 153c-132 0 -206 -85 -206 -217c0 -40 6 -78 11 -117h239l-3 -16h-234c3 -23 5 -47 5 -71c0 -77 -16 -124 -46 -169c84 -1 160 -81 254 -81
c61 0 111 43 121 122h19c-11 -91 -74 -139 -140 -139c-97 0 -178 81 -256 81c-47 0 -83 -29 -94 -75h-20c10 44 45 82 93 90c36 48 50 99 50 171c0 24 -2 48 -5 71h-82z" />
    <glyph glyph-name="yen.old" horiz-adv-x="508" 
d="M62 323l3 16h184l-159 355h20l155 -348l251 348h20l-256 -355h182l-3 -16h-188l-18 -116h188l-3 -16h-188l-29 -191h-19l30 191h-191l3 16h190l19 116h-191z" />
    <glyph glyph-name="zero.old" horiz-adv-x="605" 
d="M68 301c-3 -21 -5 -42 -5 -62c0 -124 66 -230 220 -230c138 0 234 95 260 265l7 45c3 19 5 38 5 56c2 130 -66 234 -217 234c-131 0 -236 -90 -263 -263zM283 -7c-163 0 -238 110 -238 246c0 20 2 41 5 62l7 45c29 185 141 279 281 279c162 0 237 -114 235 -250
c0 -18 -2 -37 -5 -56l-7 -45c-28 -178 -126 -281 -278 -281z" />
    <glyph glyph-name="one.old" horiz-adv-x="331" 
d="M146 0l93 591l-184 -112l2 19l196 120h8l-97 -618h-18z" />
    <glyph glyph-name="two.old" horiz-adv-x="510" 
d="M-18 0l1 5l291 220c77 58 184 131 184 246c1 94 -73 138 -161 138c-97 0 -181 -58 -206 -174h-18c23 125 119 190 224 190c97 0 180 -48 180 -154c0 -121 -108 -195 -191 -257l-262 -198h403l-2 -16h-443z" />
    <glyph glyph-name="three.old" horiz-adv-x="533" 
d="M234 -102c-130 0 -229 74 -230 197h18c3 -107 84 -181 212 -181c123 0 210 65 210 198c0 83 -53 160 -167 160h-50l2 16h53c113 0 182 64 182 172c0 82 -57 149 -165 149c-106 0 -178 -64 -200 -167h-17c19 109 104 183 217 183c118 0 183 -74 183 -165
c0 -101 -58 -165 -145 -181c74 -17 125 -81 125 -167c0 -141 -95 -214 -228 -214z" />
    <glyph glyph-name="four.old" horiz-adv-x="569" 
d="M350 -97l28 173h-381v5l453 537h32l-83 -525h99l-3 -17h-98l-28 -173h-19zM29 93h351l82 513z" />
    <glyph glyph-name="five.old" horiz-adv-x="527" 
d="M-2 74h17c8 -102 86 -160 196 -160c140 0 231 108 231 246c0 103 -66 180 -173 180c-88 1 -149 -42 -192 -88h-8l58 366h372l-3 -16h-354l-51 -318c36 37 100 72 178 72c116 0 191 -82 191 -196c0 -144 -98 -262 -249 -262c-114 0 -205 62 -213 176z" />
    <glyph glyph-name="six.old" horiz-adv-x="552" 
d="M264 -7c-138 0 -215 82 -215 211c0 22 2 46 6 70l19 119c39 247 147 328 281 328c102 0 164 -49 174 -145h-18c-9 82 -61 129 -156 129c-126 0 -225 -77 -263 -312l-15 -92c43 92 139 129 219 129c124 0 206 -70 206 -190c0 -142 -95 -247 -238 -247zM68 197
c0 -115 74 -188 196 -188c135 0 220 96 220 231c0 108 -68 174 -188 174c-122 0 -228 -83 -228 -217z" />
    <glyph glyph-name="seven.old" horiz-adv-x="470" 
d="M85 -97l398 699h-406l3 16h429v-5l-404 -710h-20z" />
    <glyph glyph-name="eight.old" horiz-adv-x="546" 
d="M254 -6c-130 0 -224 70 -224 185c0 121 96 195 207 206c-66 19 -121 73 -121 151c0 115 96 185 208 185c103 0 186 -68 186 -166c0 -102 -71 -164 -164 -176c83 -19 146 -84 146 -171c0 -136 -106 -214 -238 -214zM48 179c0 -104 84 -169 206 -169c123 0 220 68 220 198
c0 96 -81 166 -200 166c-120 0 -226 -71 -226 -195zM134 536c0 -83 67 -147 172 -147c99 0 186 56 186 166c0 87 -71 150 -168 150c-103 0 -190 -63 -190 -169z" />
    <glyph glyph-name="nine.old" horiz-adv-x="552" 
d="M301 625c136 0 215 -82 215 -211c0 -22 -2 -46 -6 -70l-21 -134c-38 -244 -146 -313 -273 -313c-109 0 -176 55 -186 157h18c10 -90 66 -141 168 -141c119 0 218 66 255 297l17 107c-43 -92 -138 -129 -221 -129c-121 0 -204 70 -204 190c0 142 95 247 238 247zM497 421
c0 115 -74 188 -196 188c-135 0 -220 -96 -220 -231c0 -108 69 -174 186 -174c125 0 230 83 230 217z" />
    <glyph glyph-name="dollar.tab" 
d="M287 -6c-7 0 -15 0 -22 1l-20 -130h-17l20 131c-113 10 -199 69 -207 194h18c11 -111 82 -168 192 -178l56 354c-132 37 -188 86 -188 169c0 123 99 186 224 186c7 0 13 0 20 -1l15 93h17l-15 -94c100 -10 169 -62 179 -157h-18c-13 85 -72 131 -164 140l-51 -324
c135 -36 200 -72 200 -176c0 -135 -102 -208 -239 -208zM507 202c0 92 -57 125 -184 160l-55 -351h18c128 0 221 65 221 191zM138 535c0 -74 50 -118 171 -152l51 320c-5 0 -11 1 -16 1c-117 0 -206 -53 -206 -169z" />
    <glyph glyph-name="Euro.tab" 
d="M63 419l3 16h61c30 189 119 285 257 286c117 1 187 -61 191 -186h-18c-4 113 -61 170 -172 169c-130 -1 -210 -90 -239 -269h239l-6 -16h-236l-19 -120h213l-6 -16h-209c-21 -142 6 -272 187 -272c116 0 186 62 220 186h17c-34 -138 -116 -203 -237 -203
c-191 0 -229 135 -206 289h-61l3 16h60l19 120h-61z" />
    <glyph glyph-name="sterling.tab" 
d="M69 342l3 16h80c-5 40 -11 79 -11 121c0 141 74 242 226 242c130 0 188 -75 191 -176h-18c-4 94 -59 159 -173 159c-136 0 -207 -89 -207 -225c0 -41 6 -81 11 -121h246l-3 -16h-241c3 -24 5 -48 5 -73c0 -79 -16 -128 -48 -174c87 -1 159 -84 256 -84
c62 0 114 45 124 126h19c-11 -94 -75 -143 -143 -143c-100 0 -177 84 -257 84c-49 0 -86 -31 -97 -78h-20c11 45 45 84 94 93c38 49 53 101 53 176c0 25 -2 49 -5 73h-85z" />
    <glyph glyph-name="yen.tab" 
d="M111 333l3 16h190l-163 366h20l160 -359l259 359h21l-265 -366h187l-3 -16h-193l-19 -120h193l-3 -16h-192l-31 -197h-19l31 197h-198l3 16h197l19 120h-197z" />
    <glyph glyph-name="zero.tab" 
d="M82 291c-4 -26 -6 -52 -6 -75c2 -119 63 -205 201 -205c135 0 219 86 245 251l26 163c4 22 5 42 5 63c0 120 -60 216 -202 216c-130 0 -218 -91 -243 -250zM278 -6c-152 0 -218 95 -220 222c0 24 2 50 6 76l26 163c27 171 123 266 262 266c152 0 220 -104 219 -233
c0 -22 -2 -43 -5 -64l-26 -163c-28 -176 -118 -267 -262 -267z" />
    <glyph glyph-name="one.tab" 
d="M308 0l108 686l-276 -193l3 21l288 201h8l-113 -715h-18z" />
    <glyph glyph-name="two.tab" 
d="M18 0l1 5l342 286c95 79 162 151 162 258c0 95 -62 155 -166 155c-99 0 -183 -53 -213 -183h-18c28 136 124 200 231 200c114 0 184 -69 184 -172c0 -115 -71 -188 -163 -265l-319 -267h420l-3 -17h-458z" />
    <glyph glyph-name="three.tab" 
d="M276 -6c-125 0 -217 70 -218 197h19c2 -117 81 -180 199 -180c113 0 213 65 213 202c0 80 -48 153 -163 153h-43l3 17h48c99 0 180 56 180 174c0 88 -60 147 -159 147c-100 0 -177 -63 -200 -166h-18c21 113 114 183 218 183c102 0 177 -60 177 -164
c0 -97 -54 -164 -147 -183c74 -16 122 -78 122 -162c0 -144 -107 -218 -231 -218z" />
    <glyph glyph-name="four.tab" 
d="M376 0l27 173h-371l1 5l442 537h33l-83 -525h99l-3 -17h-99l-27 -173h-19zM66 190h340l81 513z" />
    <glyph glyph-name="five.tab" 
d="M265 -6c-120 0 -206 70 -214 179h18c9 -96 83 -162 196 -162c147 0 228 105 228 246c0 104 -70 183 -177 183c-88 0 -146 -38 -190 -88h-8l58 363h376l-3 -17h-358l-49 -311c32 35 96 70 174 70c116 0 195 -83 195 -200c0 -150 -89 -263 -246 -263z" />
    <glyph glyph-name="six.tab" 
d="M288 -6c-134 0 -218 76 -217 221c0 32 5 65 9 92l12 75c42 261 149 339 289 339c107 0 178 -50 186 -150h-18c-9 89 -68 133 -168 133c-134 0 -231 -74 -271 -323l-12 -75c44 93 134 138 224 138c118 0 215 -63 215 -191c0 -149 -98 -259 -249 -259zM90 204
c0 -119 75 -193 198 -193c144 0 231 105 231 242c0 114 -84 174 -197 174c-125 0 -232 -87 -232 -223z" />
    <glyph glyph-name="seven.tab" 
d="M152 0l396 698h-414l3 17h440l-1 -5l-403 -710h-21z" />
    <glyph glyph-name="eight.tab" 
d="M286 -6c-113 0 -226 59 -226 187c0 127 92 195 211 208c-68 17 -127 70 -127 157c0 111 103 175 208 175c102 0 188 -66 188 -166c0 -106 -66 -161 -167 -174c87 -20 151 -82 151 -177c0 -145 -114 -210 -238 -210zM78 181c0 -116 101 -170 209 -170
c117 0 219 60 219 194c0 101 -81 171 -202 171c-116 0 -226 -61 -226 -195zM162 546c-1 -86 68 -153 177 -153c96 0 183 47 183 162c0 89 -73 149 -170 149c-94 0 -189 -53 -190 -158z" />
    <glyph glyph-name="nine.tab" 
d="M255 -6c-107 0 -184 53 -196 155h18c12 -91 78 -138 178 -138c139 0 225 70 265 323l12 75c-44 -93 -133 -139 -223 -139c-118 0 -216 66 -216 196c0 149 98 255 249 255c129 0 218 -76 217 -221c0 -32 -5 -65 -9 -92l-12 -75c-43 -270 -138 -339 -283 -339zM111 466
c0 -116 85 -179 198 -179c125 0 231 93 231 224c0 119 -75 193 -198 193c-144 0 -231 -101 -231 -238z" />
    <glyph glyph-name="cent.tab" 
d="M298 -7c-7 0 -14 0 -21 1l-20 -129h-17l20 131c-117 15 -188 108 -188 235c0 164 108 299 269 299h4l16 99h17l-16 -100c97 -8 166 -74 172 -166h-18c-4 80 -65 142 -157 150l-79 -504h18c103 0 182 56 210 161h18c-28 -118 -118 -177 -228 -177zM90 231
c0 -122 69 -205 173 -220l79 503h-2c-153 0 -250 -130 -250 -283z" />
    <glyph glyph-name="percent.tab" horiz-adv-x="800" 
d="M120 552c1 -70 49 -121 119 -121c82 0 141 61 140 149c-1 68 -47 123 -120 123c-82 0 -139 -68 -139 -151zM239 415c-78 0 -137 57 -137 137c0 90 65 167 157 167c77 0 138 -59 138 -139c0 -100 -70 -165 -158 -165zM109 0l590 715h21l-590 -715h-21zM449 132
c1 -70 49 -121 119 -121c82 0 141 61 140 149c-1 68 -47 123 -120 123c-82 0 -139 -68 -139 -151zM568 -5c-78 0 -137 57 -137 137c0 90 65 167 157 167c77 0 138 -59 138 -139c0 -100 -70 -165 -158 -165z" />
    <glyph glyph-name="perthousand.tab" horiz-adv-x="1000" 
d="M114 563c1 -66 47 -113 114 -113c78 0 133 56 132 140c-1 65 -43 116 -113 116c-78 0 -133 -64 -133 -143zM228 434c-75 0 -132 53 -132 129c0 86 63 159 151 159c74 0 131 -56 131 -132c0 -95 -66 -156 -150 -156zM38 0l590 715h21l-590 -715h-21zM328 124
c1 -66 47 -113 114 -113c78 0 133 56 132 140c-1 65 -43 116 -113 116c-78 0 -133 -64 -133 -143zM442 -5c-75 0 -132 53 -132 129c0 86 63 159 151 159c74 0 131 -56 131 -132c0 -95 -66 -156 -150 -156zM667 124c1 -66 47 -113 114 -113c78 0 133 56 132 140
c-1 65 -43 116 -113 116c-78 0 -133 -64 -133 -143zM781 -5c-75 0 -132 53 -132 129c0 86 63 159 151 159c74 0 131 -56 131 -132c0 -95 -66 -156 -150 -156z" />
    <glyph glyph-name="plus.tab" 
d="M267 115l34 219h-204l3 16h204l35 219h18l-35 -219h204l-3 -16h-204l-34 -219h-18z" />
    <glyph glyph-name="minus.tab" 
d="M97 334l3 16h426l-3 -16h-426z" />
    <glyph glyph-name="multiply.tab" 
d="M110 156l-11 13l189 168l-146 168l13 12l146 -168l190 168l11 -13l-189 -168l147 -168l-13 -12l-147 168z" />
    <glyph glyph-name="divide.tab" 
d="M97 334l3 16h426l-3 -16h-426zM289 161c-10 0 -17 8 -17 17s7 17 17 17s17 -8 17 -17s-7 -17 -17 -17zM335 489c-10 0 -17 8 -17 17s7 17 17 17s17 -8 17 -17s-7 -17 -17 -17z" />
    <glyph glyph-name="equal.tab" 
d="M92 233l3 16h404l-3 -16h-404zM116 385l3 16h404l-3 -16h-404z" />
    <glyph glyph-name="less.tab" 
d="M465 115l-352 211l1 6l416 192l-3 -19l-386 -178l327 -194z" />
    <glyph glyph-name="greater.tab" 
d="M153 524l352 -211l-1 -6l-416 -192l3 19l386 178l-327 194z" />
    <glyph glyph-name="florin.tab" 
d="M128 375l2 16h124l31 158c26 132 103 175 177 175c51 0 79 -11 95 -19l-2 -16c-18 9 -45 19 -93 19c-65 0 -135 -38 -159 -159l-31 -158h202l-2 -16h-203l-109 -557h-18l109 557h-123z" />
    <glyph glyph-name="plusminus.tab" 
d="M267 115l34 219h-204l3 16h204l35 219h18l-35 -219h204l-3 -16h-204l-34 -219h-18zM44 0l3 16h426l-3 -16h-426z" />
    <glyph glyph-name="notequal.tab" 
d="M116 385l3 16h228l80 133h20l-80 -133h156l-3 -16h-162l-81 -136h222l-3 -16h-229l-79 -133h-20l79 133h-155l3 16h162l81 136h-222z" />
    <glyph glyph-name="approxequal.tab" 
d="M108 351c10 45 42 83 98 83c80 0 155 -65 230 -65c48 0 74 34 81 67h18c-10 -45 -42 -83 -99 -83c-79 0 -155 65 -230 65c-48 0 -73 -34 -80 -67h-18zM83 196c10 45 42 83 98 83c80 0 155 -65 230 -65c48 0 74 34 81 67h18c-10 -45 -42 -83 -99 -83
c-79 0 -155 65 -230 65c-48 0 -73 -34 -80 -67h-18z" />
    <glyph glyph-name="lessequal.tab" 
d="M465 115l-352 211l1 6l416 192l-3 -19l-386 -178l327 -194zM63 0l3 16h383l-3 -16h-383z" />
    <glyph glyph-name="greaterequal.tab" 
d="M71 0l3 16h383l-3 -16h-383zM153 524l352 -211l-1 -6l-416 -192l3 19l386 178l-327 194z" />
    <glyph glyph-name="parenleft.tab" horiz-adv-x="300" 
d="M181 -148c-59 90 -106 213 -106 361c0 225 101 423 245 560h20c-156 -154 -247 -346 -247 -560c0 -148 49 -268 107 -361h-19z" />
    <glyph glyph-name="parenright.tab" horiz-adv-x="300" 
d="M136 773c59 -90 106 -213 106 -361c0 -225 -101 -423 -245 -560h-20c156 154 247 346 247 560c0 148 -49 268 -107 361h19z" />
    <glyph glyph-name="bracketleft.tab" horiz-adv-x="300" 
d="M17 -148l146 924h174l-3 -16h-155l-141 -892h156l-3 -16h-174z" />
    <glyph glyph-name="bracketright.tab" horiz-adv-x="300" 
d="M-23 -148l3 16h156l141 892h-156l3 16h173l-146 -924h-174z" />
    <glyph glyph-name="braceleft.tab" horiz-adv-x="300" 
d="M192 -144c-114 10 -158 76 -115 193l45 126c29 81 1 140 -86 146l3 16c86 0 132 45 128 129l-6 132c-6 136 60 172 177 178l-3 -16c-100 -6 -163 -33 -157 -162l6 -131c4 -94 -42 -128 -108 -140c63 -17 93 -71 62 -157l-45 -126c-39 -109 1 -163 102 -172z" />
    <glyph glyph-name="braceright.tab" horiz-adv-x="300" 
d="M122 776c114 -10 158 -76 115 -193l-45 -126c-29 -81 -1 -140 86 -146l-3 -16c-86 0 -132 -45 -128 -129l6 -132c6 -136 -60 -172 -177 -178l3 16c100 6 163 33 157 162l-6 131c-4 94 42 128 108 140c-63 17 -93 71 -62 157l45 126c39 109 -1 163 -102 172z" />
    <glyph glyph-name="period.tab" horiz-adv-x="300" 
d="M109 -5c-10 0 -17 8 -17 17s7 17 17 17s17 -8 17 -17s-7 -17 -17 -17z" />
    <glyph glyph-name="comma.tab" horiz-adv-x="300" 
d="M56 -109l-14 7l69 140l18 -8z" />
    <glyph glyph-name="colon.tab" horiz-adv-x="300" 
d="M109 -5c-10 0 -17 8 -17 17s7 17 17 17s17 -8 17 -17s-7 -17 -17 -17zM166 352c-10 0 -17 8 -17 17s7 17 17 17s17 -8 17 -17s-7 -17 -17 -17z" />
    <glyph glyph-name="semicolon.tab" horiz-adv-x="300" 
d="M50 -109l-14 7l69 140l18 -8zM166 352c-10 0 -17 8 -17 17s7 17 17 17s17 -8 17 -17s-7 -17 -17 -17z" />
    <glyph glyph-name="space.tab" horiz-adv-x="300" 
 />
    <glyph glyph-name="dollar.oldtab" 
d="M290 -6c-7 0 -14 0 -20 1l-20 -126h-18l20 127c-110 10 -194 66 -202 188h19c10 -107 79 -162 185 -172l54 343c-127 36 -181 83 -181 164c0 119 96 180 217 180c6 0 12 0 18 -1l15 91h18l-15 -92c97 -10 164 -59 174 -152h-18c-12 82 -69 127 -158 135l-49 -312
c131 -35 193 -71 193 -172c0 -131 -99 -202 -232 -202zM503 196c0 89 -55 121 -177 155l-54 -340h17c124 0 214 63 214 185zM146 519c0 -72 48 -113 165 -146l49 308c-5 0 -10 1 -15 1c-113 0 -199 -51 -199 -163z" />
    <glyph glyph-name="Euro.oldtab" 
d="M52 406l3 16h62c29 183 123 276 256 277c114 1 186 -61 190 -182h-18c-5 109 -63 166 -171 165c-126 -1 -211 -86 -239 -260h241l-5 -16h-239l-18 -116h216l-5 -16h-213c-20 -137 12 -263 188 -263c112 0 185 62 218 182h17c-33 -134 -118 -199 -235 -199
c-185 0 -228 131 -206 280h-62l3 16h61l18 116h-62z" />
    <glyph glyph-name="sterling.oldtab" 
d="M69 332l3 16h77c-5 39 -11 77 -11 117c0 136 78 234 225 234c126 0 184 -72 187 -170h-18c-4 91 -58 153 -169 153c-132 0 -206 -85 -206 -217c0 -40 6 -78 11 -117h239l-3 -16h-234c3 -23 5 -47 5 -71c0 -77 -16 -124 -46 -169c84 -1 160 -81 254 -81
c61 0 111 43 121 122h19c-11 -91 -74 -139 -140 -139c-97 0 -178 81 -256 81c-47 0 -83 -29 -94 -75h-20c10 44 45 82 93 90c36 48 50 99 50 171c0 24 -2 48 -5 71h-82z" />
    <glyph glyph-name="yen.oldtab" 
d="M108 323l3 16h184l-159 355h20l155 -348l251 348h20l-256 -355h182l-3 -16h-188l-18 -116h188l-3 -16h-188l-29 -191h-19l30 191h-191l3 16h190l19 116h-191z" />
    <glyph glyph-name="zero.oldtab" 
d="M82 291c-4 -26 -6 -51 -5 -75c3 -118 63 -207 204 -207c134 0 214 83 240 249l11 69c3 21 5 44 5 65c0 123 -65 217 -201 217c-130 0 -218 -89 -243 -249zM281 -7c-154 0 -220 97 -222 223c0 24 1 49 5 75l11 69c27 170 121 265 262 265c146 0 218 -100 218 -233
c0 -21 -2 -44 -5 -66l-11 -69c-27 -171 -111 -264 -258 -264z" />
    <glyph glyph-name="one.oldtab" 
d="M302 0l93 591l-265 -183l3 19l275 191h8l-97 -618h-17z" />
    <glyph glyph-name="two.oldtab" 
d="M30 0l1 5l291 220c77 58 184 131 184 246c1 94 -73 138 -161 138c-97 0 -181 -58 -206 -174h-18c23 125 119 190 224 190c97 0 180 -48 180 -154c0 -121 -108 -195 -191 -257l-262 -198h403l-2 -16h-443z" />
    <glyph glyph-name="three.oldtab" 
d="M267 -102c-130 0 -229 74 -230 197h18c3 -107 84 -181 212 -181c123 0 210 65 210 198c0 83 -53 160 -167 160h-50l2 16h53c113 0 182 64 182 172c0 82 -57 149 -165 149c-106 0 -178 -64 -200 -167h-17c19 109 104 183 217 183c118 0 183 -74 183 -165
c0 -101 -58 -165 -145 -181c74 -17 125 -81 125 -167c0 -141 -95 -214 -228 -214z" />
    <glyph glyph-name="four.oldtab" 
d="M368 -97l28 173h-381v5l453 537h32l-83 -525h99l-3 -17h-98l-28 -173h-19zM47 93h351l82 513z" />
    <glyph glyph-name="five.oldtab" 
d="M40 74h17c8 -102 86 -160 196 -160c140 0 231 108 231 246c0 103 -66 180 -173 180c-88 1 -149 -42 -192 -88h-8l58 366h372l-3 -16h-354l-51 -318c36 37 100 72 178 72c116 0 191 -82 191 -196c0 -144 -98 -262 -249 -262c-114 0 -205 62 -213 176z" />
    <glyph glyph-name="six.oldtab" 
d="M294 -7c-138 0 -215 82 -215 211c0 22 2 46 6 70l19 119c39 247 147 328 281 328c102 0 164 -49 174 -145h-18c-9 82 -61 129 -156 129c-126 0 -225 -77 -263 -312l-15 -92c43 92 139 129 219 129c124 0 206 -70 206 -190c0 -142 -95 -247 -238 -247zM98 197
c0 -115 74 -188 196 -188c135 0 220 96 220 231c0 108 -68 174 -188 174c-122 0 -228 -83 -228 -217z" />
    <glyph glyph-name="seven.oldtab" 
d="M132 -97l398 699h-406l3 16h429v-5l-404 -710h-20z" />
    <glyph glyph-name="eight.oldtab" 
d="M283 -6c-130 0 -224 70 -224 185c0 121 96 195 207 206c-66 19 -121 73 -121 151c0 115 96 185 208 185c103 0 186 -68 186 -166c0 -102 -71 -164 -164 -176c83 -19 146 -84 146 -171c0 -136 -106 -214 -238 -214zM77 179c0 -104 84 -169 206 -169c123 0 220 68 220 198
c0 96 -81 166 -200 166c-120 0 -226 -71 -226 -195zM163 536c0 -83 67 -147 172 -147c99 0 186 56 186 166c0 87 -71 150 -168 150c-103 0 -190 -63 -190 -169z" />
    <glyph glyph-name="nine.oldtab" 
d="M326 625c136 0 215 -82 215 -211c0 -22 -2 -46 -6 -70l-21 -134c-38 -244 -146 -313 -273 -313c-109 0 -176 55 -186 157h18c10 -90 66 -141 168 -141c119 0 218 66 255 297l17 107c-43 -92 -138 -129 -221 -129c-121 0 -204 70 -204 190c0 142 95 247 238 247zM522 421
c0 115 -74 188 -196 188c-135 0 -220 -96 -220 -231c0 -108 69 -174 186 -174c125 0 230 83 230 217z" />
    <glyph glyph-name="zero.num" horiz-adv-x="349" 
d="M95 498c0 -67 34 -115 106 -115c102 0 139 95 139 204c0 67 -32 115 -106 115c-102 0 -139 -95 -139 -204zM202 367c-81 0 -125 54 -125 131c0 118 46 220 157 220c80 0 124 -53 124 -131c0 -118 -46 -220 -156 -220z" />
    <glyph glyph-name="one.num" horiz-adv-x="205" 
d="M129 370l51 319l-106 -68l3 20l115 74h10l-55 -345h-18z" />
    <glyph glyph-name="two.num" horiz-adv-x="284" 
d="M36 370l1 7l151 122c49 39 92 74 92 131c0 41 -29 73 -77 73c-53 0 -92 -32 -106 -92h-17c13 70 64 107 123 107s95 -37 95 -88c0 -64 -46 -100 -99 -143l-125 -101h195l-3 -16h-230z" />
    <glyph glyph-name="three.num" horiz-adv-x="305" 
d="M184 367c-66 0 -118 35 -122 98h18c4 -51 44 -82 104 -82c54 0 99 28 99 87c0 38 -27 73 -80 73h-24l3 16h29c43 0 80 24 80 74c0 46 -36 70 -80 70c-56 0 -89 -34 -101 -79h-17c12 54 54 94 118 94c50 0 98 -28 98 -85c0 -43 -25 -72 -68 -83c35 -10 60 -39 60 -80
c0 -66 -53 -103 -117 -103z" />
    <glyph glyph-name="four.num" horiz-adv-x="301" 
d="M221 370l13 80h-187l1 6l217 259h29l-40 -249h49l-3 -16h-48l-13 -80h-18zM77 466h159l38 235z" />
    <glyph glyph-name="five.num" horiz-adv-x="287" 
d="M166 367c-53 0 -103 30 -108 89h18c5 -47 41 -73 90 -73c63 0 105 42 105 110c0 49 -35 85 -86 85c-42 0 -71 -19 -90 -40h-8l28 177h187l-3 -16h-170l-21 -134c18 16 46 29 78 29c58 0 103 -40 103 -101c0 -75 -50 -126 -123 -126z" />
    <glyph glyph-name="six.num" horiz-adv-x="314" 
d="M187 367c-68 0 -109 48 -109 107c0 14 1 38 4 56l5 31c19 115 73 157 144 157c46 0 88 -23 91 -76h-16c-4 39 -34 59 -76 60c-62 1 -109 -34 -127 -150l-3 -19c21 36 65 54 104 54c58 0 107 -32 107 -97c0 -70 -48 -123 -124 -123zM96 472c0 -51 35 -89 91 -89
c66 0 106 44 106 107c0 51 -36 82 -89 82c-58 0 -108 -35 -108 -100z" />
    <glyph glyph-name="seven.num" horiz-adv-x="271" 
d="M96 370l195 329h-207l3 16h233l-1 -4l-202 -341h-21z" />
    <glyph glyph-name="eight.num" horiz-adv-x="315" 
d="M187 367c-64 0 -120 34 -120 93c0 55 41 87 98 96c-32 10 -60 36 -60 73c0 56 52 89 109 89c53 0 104 -29 104 -84c0 -43 -33 -74 -79 -82c41 -12 71 -38 71 -85c0 -68 -52 -100 -123 -100zM85 460c1 -47 40 -77 102 -77c55 0 105 21 105 84c0 51 -45 79 -100 79
c-53 0 -107 -24 -107 -86zM123 629c0 -42 42 -67 89 -67c42 0 88 23 88 72c0 44 -39 68 -86 68c-46 0 -91 -21 -91 -73z" />
    <glyph glyph-name="nine.num" horiz-adv-x="313" 
d="M216 718c68 0 109 -48 109 -107c0 -14 -1 -38 -4 -56l-5 -31c-19 -115 -68 -157 -140 -157c-61 0 -98 32 -100 81h16c5 -42 31 -65 84 -65c63 0 106 34 124 150l3 19c-21 -36 -65 -54 -104 -54c-58 0 -107 32 -107 97c0 70 50 123 124 123zM307 613c0 51 -35 89 -91 89
c-66 0 -106 -44 -106 -107c0 -51 36 -82 89 -82c58 0 108 35 108 100z" />
    <glyph glyph-name="zero.den" horiz-adv-x="349" 
d="M37 128c0 -67 34 -115 106 -115c102 0 139 95 139 204c0 67 -32 115 -106 115c-102 0 -139 -95 -139 -204zM144 -3c-81 0 -125 54 -125 131c0 118 46 220 157 220c80 0 124 -53 124 -131c0 -118 -46 -220 -156 -220z" />
    <glyph glyph-name="one.den" horiz-adv-x="205" 
d="M71 0l51 319l-106 -68l3 20l115 74h10l-55 -345h-18z" />
    <glyph glyph-name="two.den" horiz-adv-x="284" 
d="M-22 0l1 7l151 122c49 39 92 74 92 131c0 41 -29 73 -77 73c-53 0 -92 -32 -106 -92h-17c13 70 64 107 123 107s95 -37 95 -88c0 -64 -46 -100 -99 -143l-125 -101h195l-3 -16h-230z" />
    <glyph glyph-name="three.den" horiz-adv-x="305" 
d="M126 -3c-66 0 -118 35 -122 98h18c4 -51 44 -82 104 -82c54 0 99 28 99 87c0 38 -27 73 -80 73h-24l3 16h29c43 0 80 24 80 74c0 46 -36 70 -80 70c-56 0 -89 -34 -101 -79h-17c12 54 54 94 118 94c50 0 98 -28 98 -85c0 -43 -25 -72 -68 -83c35 -10 60 -39 60 -80
c0 -66 -53 -103 -117 -103z" />
    <glyph glyph-name="four.den" horiz-adv-x="301" 
d="M163 0l13 80h-187l1 6l217 259h29l-40 -249h49l-3 -16h-48l-13 -80h-18zM19 96h159l38 235z" />
    <glyph glyph-name="five.den" horiz-adv-x="287" 
d="M108 -3c-53 0 -103 30 -108 89h18c5 -47 41 -73 90 -73c63 0 105 42 105 110c0 49 -35 85 -86 85c-42 0 -71 -19 -90 -40h-8l28 177h187l-3 -16h-170l-21 -134c18 16 46 29 78 29c58 0 103 -40 103 -101c0 -75 -50 -126 -123 -126z" />
    <glyph glyph-name="six.den" horiz-adv-x="314" 
d="M129 -3c-68 0 -109 48 -109 107c0 14 1 38 4 56l5 31c19 115 73 157 144 157c46 0 88 -23 91 -76h-16c-4 39 -34 59 -76 60c-62 1 -109 -34 -127 -150l-3 -19c21 36 65 54 104 54c58 0 107 -32 107 -97c0 -70 -48 -123 -124 -123zM38 102c0 -51 35 -89 91 -89
c66 0 106 44 106 107c0 51 -36 82 -89 82c-58 0 -108 -35 -108 -100z" />
    <glyph glyph-name="seven.den" horiz-adv-x="271" 
d="M38 0l195 329h-207l3 16h233l-1 -4l-202 -341h-21z" />
    <glyph glyph-name="eight.den" horiz-adv-x="315" 
d="M129 -3c-64 0 -120 34 -120 93c0 55 41 87 98 96c-32 10 -60 36 -60 73c0 56 52 89 109 89c53 0 104 -29 104 -84c0 -43 -33 -74 -79 -82c41 -12 71 -38 71 -85c0 -68 -52 -100 -123 -100zM27 90c1 -47 40 -77 102 -77c55 0 105 21 105 84c0 51 -45 79 -100 79
c-53 0 -107 -24 -107 -86zM65 259c0 -42 42 -67 89 -67c42 0 88 23 88 72c0 44 -39 68 -86 68c-46 0 -91 -21 -91 -73z" />
    <glyph glyph-name="nine.den" horiz-adv-x="313" 
d="M158 348c68 0 109 -48 109 -107c0 -14 -1 -38 -4 -56l-5 -31c-19 -115 -68 -157 -140 -157c-61 0 -98 32 -100 81h16c5 -42 31 -65 84 -65c63 0 106 34 124 150l3 19c-21 -36 -65 -54 -104 -54c-58 0 -107 32 -107 97c0 70 50 123 124 123zM249 243c0 51 -35 89 -91 89
c-66 0 -106 -44 -106 -107c0 -51 36 -82 89 -82c58 0 108 35 108 100z" />
    <glyph glyph-name="zero.sub" horiz-adv-x="349" 
d="M28 42c0 -67 34 -115 106 -115c102 0 139 95 139 204c0 67 -32 115 -106 115c-102 0 -139 -95 -139 -204zM135 -89c-81 0 -125 54 -125 131c0 118 46 220 157 220c80 0 124 -53 124 -131c0 -118 -46 -220 -156 -220z" />
    <glyph glyph-name="one.sub" horiz-adv-x="205" 
d="M62 -86l51 319l-106 -68l3 20l115 74h10l-55 -345h-18z" />
    <glyph glyph-name="two.sub" horiz-adv-x="284" 
d="M-31 -86l1 7l151 122c49 39 92 74 92 131c0 41 -29 73 -77 73c-53 0 -92 -32 -106 -92h-17c13 70 64 107 123 107s95 -37 95 -88c0 -64 -46 -100 -99 -143l-125 -101h195l-3 -16h-230z" />
    <glyph glyph-name="three.sub" horiz-adv-x="305" 
d="M117 -89c-66 0 -118 35 -122 98h18c4 -51 44 -82 104 -82c54 0 99 28 99 87c0 38 -27 73 -80 73h-24l3 16h29c43 0 80 24 80 74c0 46 -36 70 -80 70c-56 0 -89 -34 -101 -79h-17c12 54 54 94 118 94c50 0 98 -28 98 -85c0 -43 -25 -72 -68 -83c35 -10 60 -39 60 -80
c0 -66 -53 -103 -117 -103z" />
    <glyph glyph-name="four.sub" horiz-adv-x="301" 
d="M154 -86l13 80h-187l1 6l217 259h29l-40 -249h49l-3 -16h-48l-13 -80h-18zM10 10h159l38 235z" />
    <glyph glyph-name="five.sub" horiz-adv-x="287" 
d="M99 -89c-53 0 -103 30 -108 89h18c5 -47 41 -73 90 -73c63 0 105 42 105 110c0 49 -35 85 -86 85c-42 0 -71 -19 -90 -40h-8l28 177h187l-3 -16h-170l-21 -134c18 16 46 29 78 29c58 0 103 -40 103 -101c0 -75 -50 -126 -123 -126z" />
    <glyph glyph-name="six.sub" horiz-adv-x="314" 
d="M120 -89c-68 0 -109 48 -109 107c0 14 1 38 4 56l5 31c19 115 73 157 144 157c46 0 88 -23 91 -76h-16c-4 39 -34 59 -76 60c-62 1 -109 -34 -127 -150l-3 -19c21 36 65 54 104 54c58 0 107 -32 107 -97c0 -70 -48 -123 -124 -123zM29 16c0 -51 35 -89 91 -89
c66 0 106 44 106 107c0 51 -36 82 -89 82c-58 0 -108 -35 -108 -100z" />
    <glyph glyph-name="seven.sub" horiz-adv-x="271" 
d="M29 -86l195 329h-207l3 16h233l-1 -4l-202 -341h-21z" />
    <glyph glyph-name="eight.sub" horiz-adv-x="315" 
d="M120 -89c-64 0 -120 34 -120 93c0 55 41 87 98 96c-32 10 -60 36 -60 73c0 56 52 89 109 89c53 0 104 -29 104 -84c0 -43 -33 -74 -79 -82c41 -12 71 -38 71 -85c0 -68 -52 -100 -123 -100zM18 4c1 -47 40 -77 102 -77c55 0 105 21 105 84c0 51 -45 79 -100 79
c-53 0 -107 -24 -107 -86zM56 173c0 -42 42 -67 89 -67c42 0 88 23 88 72c0 44 -39 68 -86 68c-46 0 -91 -21 -91 -73z" />
    <glyph glyph-name="nine.sub" horiz-adv-x="313" 
d="M149 262c68 0 109 -48 109 -107c0 -14 -1 -38 -4 -56l-5 -31c-19 -115 -68 -157 -140 -157c-61 0 -98 32 -100 81h16c5 -42 31 -65 84 -65c63 0 106 34 124 150l3 19c-21 -36 -65 -54 -104 -54c-58 0 -107 32 -107 97c0 70 50 123 124 123zM240 157c0 51 -35 89 -91 89
c-66 0 -106 -44 -106 -107c0 -51 36 -82 89 -82c58 0 108 35 108 100z" />
    <glyph glyph-name="plus.sub" horiz-adv-x="305" 
d="M99 -39l18 113h-109l3 16h109l18 114h18l-18 -114h110l-3 -16h-110l-18 -113h-18z" />
    <glyph glyph-name="minus.sub" horiz-adv-x="305" 
d="M8 74l3 16h237l-3 -16h-237z" />
    <glyph glyph-name="zero.sup" horiz-adv-x="349" 
d="M104 556c0 -67 34 -115 106 -115c102 0 139 95 139 204c0 67 -32 115 -106 115c-102 0 -139 -95 -139 -204zM211 425c-81 0 -125 54 -125 131c0 118 46 220 157 220c80 0 124 -53 124 -131c0 -118 -46 -220 -156 -220z" />
    <glyph glyph-name="one.sup" horiz-adv-x="205" 
d="M138 428l51 319l-106 -68l3 20l115 74h10l-55 -345h-18z" />
    <glyph glyph-name="two.sup" horiz-adv-x="284" 
d="M45 428l1 7l151 122c49 39 92 74 92 131c0 41 -29 73 -77 73c-53 0 -92 -32 -106 -92h-17c13 70 64 107 123 107s95 -37 95 -88c0 -64 -46 -100 -99 -143l-125 -101h195l-3 -16h-230z" />
    <glyph glyph-name="three.sup" horiz-adv-x="305" 
d="M193 425c-66 0 -118 35 -122 98h18c4 -51 44 -82 104 -82c54 0 99 28 99 87c0 38 -27 73 -80 73h-24l3 16h29c43 0 80 24 80 74c0 46 -36 70 -80 70c-56 0 -89 -34 -101 -79h-17c12 54 54 94 118 94c50 0 98 -28 98 -85c0 -43 -25 -72 -68 -83c35 -10 60 -39 60 -80
c0 -66 -53 -103 -117 -103z" />
    <glyph glyph-name="four.sup" horiz-adv-x="301" 
d="M230 428l13 80h-187l1 6l217 259h29l-40 -249h49l-3 -16h-48l-13 -80h-18zM86 524h159l38 235z" />
    <glyph glyph-name="five.sup" horiz-adv-x="287" 
d="M175 425c-53 0 -103 30 -108 89h18c5 -47 41 -73 90 -73c63 0 105 42 105 110c0 49 -35 85 -86 85c-42 0 -71 -19 -90 -40h-8l28 177h187l-3 -16h-170l-21 -134c18 16 46 29 78 29c58 0 103 -40 103 -101c0 -75 -50 -126 -123 -126z" />
    <glyph glyph-name="six.sup" horiz-adv-x="314" 
d="M196 425c-68 0 -109 48 -109 107c0 14 1 38 4 56l5 31c19 115 73 157 144 157c46 0 88 -23 91 -76h-16c-4 39 -34 59 -76 60c-62 1 -109 -34 -127 -150l-3 -19c21 36 65 54 104 54c58 0 107 -32 107 -97c0 -70 -48 -123 -124 -123zM105 530c0 -51 35 -89 91 -89
c66 0 106 44 106 107c0 51 -36 82 -89 82c-58 0 -108 -35 -108 -100z" />
    <glyph glyph-name="seven.sup" horiz-adv-x="271" 
d="M105 428l195 329h-207l3 16h233l-1 -4l-202 -341h-21z" />
    <glyph glyph-name="eight.sup" horiz-adv-x="315" 
d="M196 425c-64 0 -120 34 -120 93c0 55 41 87 98 96c-32 10 -60 36 -60 73c0 56 52 89 109 89c53 0 104 -29 104 -84c0 -43 -33 -74 -79 -82c41 -12 71 -38 71 -85c0 -68 -52 -100 -123 -100zM94 518c1 -47 40 -77 102 -77c55 0 105 21 105 84c0 51 -45 79 -100 79
c-53 0 -107 -24 -107 -86zM132 687c0 -42 42 -67 89 -67c42 0 88 23 88 72c0 44 -39 68 -86 68c-46 0 -91 -21 -91 -73z" />
    <glyph glyph-name="nine.sup" horiz-adv-x="313" 
d="M225 776c68 0 109 -48 109 -107c0 -14 -1 -38 -4 -56l-5 -31c-19 -115 -68 -157 -140 -157c-61 0 -98 32 -100 81h16c5 -42 31 -65 84 -65c63 0 106 34 124 150l3 19c-21 -36 -65 -54 -104 -54c-58 0 -107 32 -107 97c0 70 50 123 124 123zM316 671c0 51 -35 89 -91 89
c-66 0 -106 -44 -106 -107c0 -51 36 -82 89 -82c58 0 108 35 108 100z" />
    <glyph glyph-name="plus.sup" horiz-adv-x="305" 
d="M176 479l18 113h-109l3 16h109l18 114h18l-18 -114h110l-3 -16h-110l-18 -113h-18z" />
    <glyph glyph-name="minus.sup" horiz-adv-x="305" 
d="M85 592l3 16h237l-3 -16h-237z" />
    <glyph glyph-name="uni2033" unicode="&#x2033;" horiz-adv-x="223" 
d="M85 548l56 167h20l-59 -167h-17zM178 548l56 167h20l-59 -167h-17z" />
    <glyph glyph-name="uni2032" unicode="&#x2032;" horiz-adv-x="130" 
d="M85 548l56 167h20l-59 -167h-17z" />
    <glyph glyph-name="a.alt" horiz-adv-x="580" 
d="M300 514c-149 0 -245 -132 -245 -289c0 -138 88 -216 192 -216c150 0 237 155 239 286c2 134 -75 219 -186 219zM247 -7c-120 0 -210 88 -210 232c0 165 103 305 263 305c130 0 188 -101 198 -176l27 169h18l-56 -350c-15 -92 -17 -144 -19 -173h-18c1 35 8 102 15 147
c-37 -83 -110 -154 -218 -154z" />
    <glyph glyph-name="t.alt" horiz-adv-x="296" 
d="M74 0l80 507h-95l3 16h94l19 119h18l-19 -119h140l-3 -16h-139l-80 -507h-18z" />
    <glyph glyph-name="germandbls.alt" horiz-adv-x="572" 
d="M348 -4c-89 0 -161 46 -167 137h18c7 -80 67 -121 149 -121c85 0 150 49 150 127c0 70 -47 105 -115 148c-69 43 -110 66 -110 115c0 95 226 120 226 248c0 73 -64 110 -140 110c-116 0 -195 -73 -214 -195l-89 -565h-18l89 565c21 132 108 211 232 211
c82 0 158 -40 158 -126c0 -137 -226 -165 -226 -248c0 -40 39 -61 102 -100c70 -45 124 -83 124 -163c0 -84 -71 -143 -169 -143z" />
    <glyph glyph-name="aacute.alt" horiz-adv-x="580" 
d="M300 514c-149 0 -245 -132 -245 -289c0 -138 88 -216 192 -216c150 0 237 155 239 286c2 134 -75 219 -186 219zM247 -7c-120 0 -210 88 -210 232c0 165 103 305 263 305c130 0 188 -101 198 -176l27 169h18l-56 -350c-15 -92 -17 -144 -19 -173h-18c1 35 8 102 15 147
c-37 -83 -110 -154 -218 -154zM310 596l98 147h21l-101 -147h-18z" />
    <glyph glyph-name="abreve.alt" horiz-adv-x="580" 
d="M300 514c-149 0 -245 -132 -245 -289c0 -138 88 -216 192 -216c150 0 237 155 239 286c2 134 -75 219 -186 219zM247 -7c-120 0 -210 88 -210 232c0 165 103 305 263 305c130 0 188 -101 198 -176l27 169h18l-56 -350c-15 -92 -17 -144 -19 -173h-18c1 35 8 102 15 147
c-37 -83 -110 -154 -218 -154zM329 612c-65 0 -101 44 -102 108h18c0 -55 31 -92 84 -92c52 0 93 36 104 92h18c-12 -67 -63 -108 -122 -108z" />
    <glyph glyph-name="acircumflex.alt" horiz-adv-x="580" 
d="M300 514c-149 0 -245 -132 -245 -289c0 -138 88 -216 192 -216c150 0 237 155 239 286c2 134 -75 219 -186 219zM247 -7c-120 0 -210 88 -210 232c0 165 103 305 263 305c130 0 188 -101 198 -176l27 169h18l-56 -350c-15 -92 -17 -144 -19 -173h-18c1 35 8 102 15 147
c-37 -83 -110 -154 -218 -154zM204 596l127 124h19l96 -124h-19l-88 109l-114 -109h-21z" />
    <glyph glyph-name="adieresis.alt" horiz-adv-x="580" 
d="M300 514c-149 0 -245 -132 -245 -289c0 -138 88 -216 192 -216c150 0 237 155 239 286c2 134 -75 219 -186 219zM247 -7c-120 0 -210 88 -210 232c0 165 103 305 263 305c130 0 188 -101 198 -176l27 169h18l-56 -350c-15 -92 -17 -144 -19 -173h-18c1 35 8 102 15 147
c-37 -83 -110 -154 -218 -154zM266 639c-10 0 -17 8 -17 17s7 17 17 17s17 -8 17 -17s-7 -17 -17 -17zM408 639c-10 0 -17 8 -17 17s7 17 17 17s17 -8 17 -17s-7 -17 -17 -17z" />
    <glyph glyph-name="agrave.alt" horiz-adv-x="580" 
d="M300 514c-149 0 -245 -132 -245 -289c0 -138 88 -216 192 -216c150 0 237 155 239 286c2 134 -75 219 -186 219zM247 -7c-120 0 -210 88 -210 232c0 165 103 305 263 305c130 0 188 -101 198 -176l27 169h18l-56 -350c-15 -92 -17 -144 -19 -173h-18c1 35 8 102 15 147
c-37 -83 -110 -154 -218 -154zM317 596l-55 147h19l53 -147h-17z" />
    <glyph glyph-name="amacron.alt" horiz-adv-x="580" 
d="M300 514c-149 0 -245 -132 -245 -289c0 -138 88 -216 192 -216c150 0 237 155 239 286c2 134 -75 219 -186 219zM247 -7c-120 0 -210 88 -210 232c0 165 103 305 263 305c130 0 188 -101 198 -176l27 169h18l-56 -350c-15 -92 -17 -144 -19 -173h-18c1 35 8 102 15 147
c-37 -83 -110 -154 -218 -154zM226 646l3 17h219l-3 -17h-219z" />
    <glyph glyph-name="aogonek.alt" horiz-adv-x="580" 
d="M468 0c-37 -22 -103 -62 -103 -115c0 -28 16 -51 59 -51c16 0 28 2 45 7l-3 -16c-12 -4 -27 -7 -43 -7c-54 0 -76 30 -76 67c0 58 70 100 103 120c1 31 8 97 15 142c-37 -83 -110 -154 -218 -154c-120 0 -210 88 -210 232c0 165 103 305 263 305c130 0 188 -101 198 -176
l27 169h18l-56 -350c-15 -92 -17 -144 -19 -173zM300 514c-149 0 -245 -132 -245 -289c0 -138 88 -216 192 -216c150 0 237 155 239 286c2 134 -75 219 -186 219z" />
    <glyph glyph-name="aring.alt" horiz-adv-x="580" 
d="M300 514c-149 0 -245 -132 -245 -289c0 -138 88 -216 192 -216c150 0 237 155 239 286c2 134 -75 219 -186 219zM247 -7c-120 0 -210 88 -210 232c0 165 103 305 263 305c130 0 188 -101 198 -176l27 169h18l-56 -350c-15 -92 -17 -144 -19 -173h-18c1 35 8 102 15 147
c-37 -83 -110 -154 -218 -154zM344 619c42 0 72 30 72 73c0 39 -27 68 -69 68c-40 0 -72 -31 -72 -73c0 -37 29 -68 69 -68zM344 604c-49 0 -86 39 -86 83c0 48 40 88 89 88c51 0 86 -38 86 -83c0 -50 -38 -88 -89 -88z" />
    <glyph glyph-name="aringacute.alt" horiz-adv-x="580" 
d="M300 514c-149 0 -245 -132 -245 -289c0 -138 88 -216 192 -216c150 0 237 155 239 286c2 134 -75 219 -186 219zM247 -7c-120 0 -210 88 -210 232c0 165 103 305 263 305c130 0 188 -101 198 -176l27 169h18l-56 -350c-15 -92 -17 -144 -19 -173h-18c1 35 8 102 15 147
c-37 -83 -110 -154 -218 -154zM333 619c42 0 72 30 72 73c0 39 -27 68 -69 68c-40 0 -72 -31 -72 -73c0 -37 29 -68 69 -68zM333 604c-49 0 -86 39 -86 83c0 48 40 88 89 88c51 0 86 -38 86 -83c0 -50 -38 -88 -89 -88zM352 831l81 117h22l-84 -117h-19z" />
    <glyph glyph-name="atilde.alt" horiz-adv-x="580" 
d="M300 514c-149 0 -245 -132 -245 -289c0 -138 88 -216 192 -216c150 0 237 155 239 286c2 134 -75 219 -186 219zM247 -7c-120 0 -210 88 -210 232c0 165 103 305 263 305c130 0 188 -101 198 -176l27 169h18l-56 -350c-15 -92 -17 -144 -19 -173h-18c1 35 8 102 15 147
c-37 -83 -110 -154 -218 -154zM398 613c-51 0 -94 64 -136 64c-25 0 -50 -20 -59 -63h-17c11 54 41 79 77 79c49 0 93 -64 136 -64c24 0 49 20 58 63h17c-11 -53 -41 -79 -76 -79z" />
    <glyph glyph-name="tbar.alt" horiz-adv-x="296" 
d="M30 327l3 16h95l26 164h-95l3 16h94l19 119h18l-19 -119h140l-3 -16h-139l-26 -164h139l-3 -16h-139l-51 -327h-18l51 327h-95z" />
    <glyph glyph-name="tcaron.alt" horiz-adv-x="296" 
d="M74 0l80 507h-95l3 16h94l19 119h18l-19 -119h140l-3 -16h-139l-80 -507h-18zM283 626l39 147h19l-41 -147h-17z" />
    <glyph glyph-name="tcommaaccent.alt" horiz-adv-x="296" 
d="M74 0l80 507h-95l3 16h94l19 119h18l-19 -119h140l-3 -16h-139l-80 -507h-18zM12 -186l-14 7l67 133l19 -5z" />
    <glyph glyph-name="f.short" horiz-adv-x="308" 
d="M61 507l3 16h85l16 98c20 123 86 155 156 155c18 0 38 -3 51 -7l-2 -16c-15 5 -31 7 -49 7c-63 0 -119 -25 -138 -140l-16 -97h166l-3 -16h-165l-80 -507h-18l80 507h-86z" />
    <glyph glyph-name="f_f.short" horiz-adv-x="575" 
d="M61 507l3 16h85l15 95c19 119 86 149 156 149c21 0 39 -3 55 -8l-2 -16c-18 6 -33 8 -53 8c-63 0 -120 -23 -138 -134l-15 -94h249l16 98c20 123 86 155 156 155c18 0 38 -3 51 -7l-2 -16c-15 5 -31 7 -49 7c-63 0 -119 -25 -138 -140l-16 -97h166l-3 -16h-165l-80 -507
h-18l80 507h-250l-79 -507h-18l79 507h-85z" />
    <glyph glyph-name="questiondown.uc" horiz-adv-x="462" 
d="M311 563l-11 -72c-12 -81 -52 -116 -124 -173c-68 -54 -129 -91 -129 -185c0 -88 75 -122 149 -122c101 0 173 58 195 172h18c-19 -121 -103 -189 -213 -189c-82 0 -168 39 -168 139c0 104 69 142 138 198c68 55 104 85 116 162l11 70h18zM325 720c10 0 17 -8 17 -17
s-7 -17 -17 -17s-17 8 -17 17s7 17 17 17z" />
    <glyph glyph-name="exclamdown.uc" horiz-adv-x="254" 
d="M181 563l-87 -563h-20l91 563h16zM197 720c10 0 17 -8 17 -17s-7 -17 -17 -17s-17 8 -17 17s7 17 17 17z" />
    <glyph glyph-name="hyphen.uc" horiz-adv-x="352" 
d="M74 331l3 17h224l-3 -17h-224z" />
    <glyph glyph-name="endash.uc" horiz-adv-x="476" 
d="M58 331l3 17h380l-3 -17h-380z" />
    <glyph glyph-name="emdash.uc" horiz-adv-x="850" 
d="M58 331l3 17h754l-3 -17h-754z" />
    <glyph glyph-name="guilsinglleft.uc" horiz-adv-x="253" 
d="M166 123l-112 178l168 178h22l-169 -179l110 -177h-19z" />
    <glyph glyph-name="guilsinglright.uc" horiz-adv-x="253" 
d="M97 479l112 -179l-168 -177h-22l169 179l-110 177h19z" />
    <glyph glyph-name="guillemotleft.uc" horiz-adv-x="387" 
d="M166 123l-112 178l168 178h22l-169 -179l110 -177h-19zM300 123l-112 178l168 178h22l-169 -179l110 -177h-19z" />
    <glyph glyph-name="guillemotright.uc" horiz-adv-x="387" 
d="M231 479l112 -179l-168 -177h-22l169 179l-110 177h19zM97 479l112 -179l-168 -177h-22l169 179l-110 177h19z" />
    <glyph glyph-name="parenleft.uc" horiz-adv-x="267" 
d="M158 -98c-51 80 -97 199 -97 341c0 218 96 405 236 540h20c-152 -151 -238 -333 -238 -540c0 -138 45 -255 98 -341h-19z" />
    <glyph glyph-name="parenright.uc" horiz-adv-x="267" 
d="M133 783c51 -80 97 -199 97 -341c0 -218 -96 -405 -236 -540h-20c152 151 238 333 238 540c0 138 -45 255 -98 341h19z" />
    <glyph glyph-name="bracketleft.uc" horiz-adv-x="322" 
d="M43 -84l137 862h184l-3 -16h-166l-131 -830h166l-3 -16h-184z" />
    <glyph glyph-name="bracketright.uc" horiz-adv-x="322" 
d="M-17 -84l3 16h166l131 830h-166l3 16h184l-137 -862h-184z" />
    <glyph glyph-name="braceleft.uc" horiz-adv-x="341" 
d="M246 -89c-125 8 -170 75 -128 193l35 99c29 81 9 140 -98 146l3 16c106 0 149 43 143 129l-8 107c-10 136 63 172 190 178l-3 -16c-110 -6 -180 -33 -170 -162l8 -106c7 -94 -44 -129 -112 -140c65 -16 95 -69 63 -157l-35 -97c-40 -111 1 -166 115 -174z" />
    <glyph glyph-name="braceright.uc" horiz-adv-x="343" 
d="M120 780c125 -8 170 -75 128 -193l-35 -99c-29 -81 -9 -140 98 -146l-3 -16c-106 0 -149 -43 -143 -129l8 -107c10 -136 -63 -172 -190 -178l3 16c110 6 180 33 170 162l-8 106c-7 94 44 129 112 140c-65 16 -95 69 -63 157l35 97c40 111 -1 166 -115 174z" />
    <glyph glyph-name="slash.uc" horiz-adv-x="376" 
d="M-15 -84l407 862h20l-407 -862h-20z" />
    <glyph glyph-name="backslash.uc" horiz-adv-x="376" 
d="M260 -84l-135 862h19l135 -862h-19z" />
    <glyph glyph-name="bar.uc" horiz-adv-x="226" 
d="M114 -84v862h18v-862h-18z" />
    <glyph glyph-name="at.uc" horiz-adv-x="877" 
d="M461 -59c-262 0 -400 185 -400 393c0 236 200 416 414 416c232 0 374 -154 374 -354c0 -172 -90 -240 -168 -240c-64 0 -104 36 -102 110c-19 -50 -76 -118 -159 -118c-84 0 -146 59 -146 157c0 116 78 236 193 236c71 0 125 -51 133 -119l17 110h17l-34 -220
c-15 -82 5 -140 82 -140c79 0 147 69 147 223c0 194 -128 338 -354 338c-209 0 -395 -173 -395 -399c0 -199 128 -376 381 -376c153 0 254 58 303 124h20c-47 -73 -160 -141 -323 -141zM420 165c92 0 169 99 170 210c1 89 -47 149 -123 149c-104 0 -174 -109 -174 -219
c0 -87 49 -140 127 -140z" />
    <glyph glyph-name="uni2009" unicode="&#x2009;" horiz-adv-x="110" 
 />
    </font>
</defs>
</svg>
