<svg xmlns="http://www.w3.org/2000/svg" width="19.744" height="20.941" viewBox="0 0 19.744 20.941"><defs><style>.a{fill:#0f123f;}</style></defs><path class="a" d="M24.693,5.984a.871.871,0,0,0-.656.329L8.359,25.476a.871.871,0,1,0,1.347,1.1L25.385,7.415a.871.871,0,0,0-.692-1.431Zm-13.919.59A3.789,3.789,0,0,0,7,10.348v2.323a3.775,3.775,0,1,0,7.549,0V10.348A3.789,3.789,0,0,0,10.775,6.574Zm0,1.742a2.025,2.025,0,0,1,2.032,2.032v2.323a2.032,2.032,0,1,1-4.065,0V10.348A2.025,2.025,0,0,1,10.775,8.316Zm12.195,8.13a3.789,3.789,0,0,0-3.775,3.775v2.323a3.775,3.775,0,1,0,7.549,0V20.22A3.789,3.789,0,0,0,22.969,16.446Zm0,1.742A2.025,2.025,0,0,1,25,20.22v2.323a2.032,2.032,0,1,1-4.065,0V20.22A2.025,2.025,0,0,1,22.969,18.188Z" transform="translate(-7 -5.984)"/></svg>