<svg xmlns="http://www.w3.org/2000/svg" width="26.853" height="23.607" viewBox="0 0 26.853 23.607"><defs><style>.a{fill:rgba(23,22,49,0.5);}</style></defs><path class="a" d="M14.574,4a5.9,5.9,0,1,0,5.9,5.9A5.915,5.915,0,0,0,14.574,4Zm0,1.771A4.131,4.131,0,1,1,10.443,9.9,4.118,4.118,0,0,1,14.574,5.771Zm-.738,1.771a.59.59,0,0,0-.579.475l-.3,1.475a.589.589,0,0,0,.579.705h1.18a.443.443,0,0,1,.443.443c0,.3-.306.443-.59.443a1.718,1.718,0,0,1-.859-.2.591.591,0,0,0-.649.987,2.843,2.843,0,0,0,1.508.394,1.664,1.664,0,0,0,1.771-1.623,1.624,1.624,0,0,0-1.623-1.623h-.46l.059-.3h1.139a.59.59,0,0,0,0-1.18ZM1.885,9.312a.885.885,0,1,0,0,1.771H3.656a.282.282,0,0,1,.3.3V24.361A3.259,3.259,0,0,0,7.2,27.607H21.951A3.259,3.259,0,0,0,25.2,24.361V11.377a.282.282,0,0,1,.3-.3h1.475a.885.885,0,1,0,0-1.771H25.492a2.079,2.079,0,0,0-2.066,2.066V24.361a1.462,1.462,0,0,1-1.475,1.475H7.2a1.462,1.462,0,0,1-1.475-1.475V11.377A2.079,2.079,0,0,0,3.656,9.312Zm9.385,8.841a.885.885,0,0,0-.595,1.5l3.246,3.541a.885.885,0,0,0,1.3,0l3.246-3.541a.885.885,0,1,0-1.3-1.2l-2.594,2.83-2.594-2.83a.885.885,0,0,0-.71-.3Z" transform="translate(-1 -4)"/></svg>