<svg xmlns="http://www.w3.org/2000/svg" width="28" height="28" viewBox="0 0 28 28"><defs><style>.a{fill:#0f123f;}</style></defs><path class="a" d="M18,4A14.016,14.016,0,0,0,4,18a1.05,1.05,0,1,0,2.1,0,11.9,11.9,0,0,1,21.525-7H25.35a1.05,1.05,0,1,0,0,2.1h4.9a1.05,1.05,0,0,0,1.05-1.05V7.15a1.05,1.05,0,1,0-2.1,0V9.608A13.984,13.984,0,0,0,18,4Zm3.829,9.09a1.05,1.05,0,0,0-.722.317l-7.7,7.7a1.05,1.05,0,1,0,1.485,1.485l7.7-7.7a1.05,1.05,0,0,0-.763-1.8ZM14.5,13.1a1.4,1.4,0,1,0,1.4,1.4A1.4,1.4,0,0,0,14.5,13.1Zm16.434,3.835A1.05,1.05,0,0,0,29.9,18,11.9,11.9,0,0,1,8.375,25H10.65a1.05,1.05,0,1,0,0-2.1H5.75A1.05,1.05,0,0,0,4.7,23.95v4.9a1.05,1.05,0,1,0,2.1,0V26.392A14,14,0,0,0,32,18a1.05,1.05,0,0,0-1.066-1.065ZM21.5,20.1a1.4,1.4,0,1,0,1.4,1.4A1.4,1.4,0,0,0,21.5,20.1Z" transform="translate(-4 -4)"/></svg>