<svg xmlns="http://www.w3.org/2000/svg" width="24.941" height="21.39" viewBox="0 0 24.941 21.39"><defs><style>.a{fill:#0f123f;}</style></defs><path class="a" d="M12.237,5.98a.891.891,0,0,0-.183.012H6.028A1.854,1.854,0,0,0,4.188,7.832v8.485a7.122,7.122,0,1,0,12.906,5.411h3.331a3.9,3.9,0,0,0-.5,1.93,3.794,3.794,0,0,0,.93,2.531,3.68,3.68,0,0,0,2.781,1.181A3.7,3.7,0,0,0,26.31,21.1l1.357-2.763h0a2.672,2.672,0,0,0,.274-1.177V15.79a2.686,2.686,0,0,0-2.672-2.672H20.815V9.258a.284.284,0,0,1,.3-.3h.594a.891.891,0,1,0,0-1.782h-.594a2.092,2.092,0,0,0-2.078,2.078v3.86H14.682L13.346,7.773h.046a.891.891,0,1,0,0-1.782H12.345a.891.891,0,0,0-.108-.012ZM6.028,7.773h5.48l1.336,5.344H10.423a.891.891,0,0,0-.129.008c-.056,0-.111-.008-.168-.008a7.073,7.073,0,0,0-4.157,1.354V7.832C5.969,7.79,5.986,7.773,6.028,7.773Zm4.1,7.126a5.344,5.344,0,1,1-5.344,5.344A5.331,5.331,0,0,1,10.126,14.9Zm4.694,0H25.268a.877.877,0,0,1,.891.891v1.367a.891.891,0,0,1-.09.392h0l-1.176,2.4H17.237A7.1,7.1,0,0,0,14.82,14.9ZM9.977,18.47A1.922,1.922,0,1,0,11.9,20.392,1.921,1.921,0,0,0,9.977,18.47Zm13.658,3.258a1.93,1.93,0,0,1,0,3.86,1.785,1.785,0,0,1-1.45-.582,2.131,2.131,0,0,1,0-2.7A1.785,1.785,0,0,1,23.635,21.728Z" transform="translate(-3 -5.979)"/></svg>