<svg xmlns="http://www.w3.org/2000/svg" width="27.149" height="27.836" viewBox="0 0 27.149 27.836"><defs><style>.a{fill:#0f123f;}</style></defs><path class="a" d="M18.573,4.035a4.068,4.068,0,0,0-2.429.8L5.432,12.793a1.072,1.072,0,0,0,.639,1.932h25a1.072,1.072,0,0,0,.639-1.932L21,4.836A4.064,4.064,0,0,0,18.573,4.035Zm0,2.139a1.923,1.923,0,0,1,1.15.382l8.112,6.026H9.311l8.111-6.026h0A1.923,1.923,0,0,1,18.573,6.174Zm0,2.122A1.429,1.429,0,1,0,20,9.725,1.429,1.429,0,0,0,18.573,8.3ZM8.214,16.155v9.3a3.21,3.21,0,1,0,.13,6.417H28.8a3.21,3.21,0,1,0,.13-6.417v-9.3H26.789v9.287h-2.5V16.155H22.145v9.287h-2.5V16.155H17.5v9.287H15V16.155H12.858v9.287h-2.5V16.155Zm.13,11.43H28.8a1.079,1.079,0,1,1,0,2.143H8.344a1.079,1.079,0,1,1,0-2.143Z" transform="translate(-4.999 -4.035)"/></svg>