<svg xmlns="http://www.w3.org/2000/svg" width="27" height="25.16" viewBox="0 0 27 25.16"><defs><style>.a{fill:rgba(23,22,49,0.5);}</style></defs><path class="a" d="M9,4q-.242.01-.484.04A6.665,6.665,0,0,0,6.6,4.585,8.217,8.217,0,0,0,2,12.344a.921.921,0,0,0,1.442.759,2.819,2.819,0,0,1,2.5-.114,12.027,12.027,0,0,0,3.3.828,5.282,5.282,0,0,0,3.878-1.692.921.921,0,1,0-1.359-1.24,3.576,3.576,0,0,1-2.519,1.092,18.72,18.72,0,0,1-2.8-.76A6.093,6.093,0,0,0,4.017,11a6.056,6.056,0,0,1,3.337-4.74,4.342,4.342,0,0,1,2.674-.34,2.96,2.96,0,0,1,.579.25A6.785,6.785,0,0,0,7.131,8a.921.921,0,1,0,1.4,1.2,4.515,4.515,0,0,1,4.353-1.227l.05.007s.267,0,.69.428.958,1.289.958,3.261v4.6H7.216a.921.921,0,1,0,0,1.841h.4l.893,8.043a3.386,3.386,0,0,0,3.355,3h7.267a3.388,3.388,0,0,0,3.355-3l.892-8.043h.4a.921.921,0,1,0,0-1.841H16.42v-4.6c0-1.972.534-2.837.958-3.261s.688-.428.689-.428h0l.05-.007A4.516,4.516,0,0,1,22.472,9.2a.921.921,0,1,0,1.4-1.2,6.786,6.786,0,0,0-3.476-1.828,2.96,2.96,0,0,1,.579-.25,4.342,4.342,0,0,1,2.674.34A6.056,6.056,0,0,1,26.983,11a6.093,6.093,0,0,0-2.415.212,18.721,18.721,0,0,1-2.8.76,3.576,3.576,0,0,1-2.519-1.092.921.921,0,1,0-1.359,1.24,5.282,5.282,0,0,0,3.878,1.692,12.027,12.027,0,0,0,3.3-.828,2.819,2.819,0,0,1,2.5.114A.921.921,0,0,0,29,12.344a8.217,8.217,0,0,0-4.6-7.759,6.133,6.133,0,0,0-3.829-.458A4.62,4.62,0,0,0,17.69,6.185a.921.921,0,0,0-.162.062h0a3.123,3.123,0,0,0-1.449.858,5.26,5.26,0,0,0-.576.94,5.26,5.26,0,0,0-.576-.94,3.123,3.123,0,0,0-1.453-.859.921.921,0,0,0-.161-.062,4.62,4.62,0,0,0-2.882-2.058A5.536,5.536,0,0,0,9,4Zm.472,14.11h5.877a.92.92,0,0,0,.3,0h5.881l-.87,7.839a1.524,1.524,0,0,1-1.525,1.365H11.867a1.521,1.521,0,0,1-1.525-1.364h0Z" transform="translate(-2 -3.998)"/></svg>