<svg xmlns="http://www.w3.org/2000/svg" width="22.897" height="31.5" viewBox="0 0 22.897 31.5"><defs><style>.a{fill:#0f123f;}</style></defs><path class="a" d="M19.442,2.021a1.074,1.074,0,0,0-.733.311L16.947,4.075l-2.4-.63a1.074,1.074,0,0,0-1.309.757l-.652,2.391L10.2,7.245a1.074,1.074,0,0,0-.755,1.308l.628,2.4L8.326,12.715a1.074,1.074,0,0,0,0,1.511l1.743,1.763-.63,2.4a1.074,1.074,0,0,0,.757,1.309l2.391.652.439,1.609a1.074,1.074,0,0,0-.008.137V32.447a1.074,1.074,0,0,0,1.67.894l4.577-3.051a.351.351,0,0,1,.4,0l4.577,3.051a1.074,1.074,0,0,0,1.67-.894V22.092a1.075,1.075,0,0,0-.008-.137l.439-1.609,2.389-.652a1.074,1.074,0,0,0,.757-1.308l-.628-2.4L30.6,14.226a1.074,1.074,0,0,0,0-1.511L28.86,10.952l.63-2.4a1.074,1.074,0,0,0-.757-1.309l-2.391-.652L25.69,4.2a1.074,1.074,0,0,0-1.309-.757l-2.4.63L20.22,2.332A1.074,1.074,0,0,0,19.442,2.021Zm.022,2.585,1.442,1.427a1.074,1.074,0,0,0,1.028.276L23.9,5.794l.534,1.957a1.074,1.074,0,0,0,.754.753l1.956.534L26.626,11a1.074,1.074,0,0,0,.276,1.028l1.427,1.444L26.9,14.913a1.074,1.074,0,0,0-.276,1.028l.515,1.961-1.957.533a1.074,1.074,0,0,0-.754.754L23.9,21.145l-1.961-.513a1.074,1.074,0,0,0-1.028.274l-1.442,1.427-1.442-1.427a1.074,1.074,0,0,0-1.028-.274l-1.961.513L14.5,19.189a1.074,1.074,0,0,0-.754-.754L11.789,17.9l.515-1.961a1.074,1.074,0,0,0-.276-1.028L10.6,13.47l1.427-1.444A1.074,1.074,0,0,0,12.3,11l-.515-1.961L13.746,8.5A1.074,1.074,0,0,0,14.5,7.75l.533-1.956,1.961.515a1.074,1.074,0,0,0,1.028-.276ZM16.947,22.864l1.763,1.743a1.074,1.074,0,0,0,1.511,0l1.763-1.743,1.779.467v7.108L20.855,28.5a2.513,2.513,0,0,0-2.781,0l-2.907,1.938V23.331Z" transform="translate(-8.016 -2.021)"/></svg>