<svg xmlns="http://www.w3.org/2000/svg" width="26.302" height="23.123" viewBox="0 0 26.302 23.123"><defs><style>.a{fill:#0f123f;}</style></defs><path class="a" d="M14.3,4a5.781,5.781,0,1,0,5.781,5.781A5.794,5.794,0,0,0,14.3,4Zm0,1.734a4.046,4.046,0,1,1-4.046,4.046A4.033,4.033,0,0,1,14.3,5.734Zm-.723,1.734a.578.578,0,0,0-.567.465l-.289,1.445a.577.577,0,0,0,.567.691H14.44a.434.434,0,0,1,.434.434c0,.3-.3.434-.578.434a1.683,1.683,0,0,1-.841-.2.578.578,0,0,0-.636.966,2.785,2.785,0,0,0,1.477.386A1.63,1.63,0,0,0,16.03,10.5a1.591,1.591,0,0,0-1.59-1.59h-.45l.058-.289h1.115a.578.578,0,1,0,0-1.156ZM1.867,9.2a.867.867,0,1,0,0,1.734H3.6a.276.276,0,0,1,.289.289V23.943A3.193,3.193,0,0,0,7.07,27.123H21.521A3.193,3.193,0,0,0,24.7,23.943V11.226a.276.276,0,0,1,.289-.289h1.445a.867.867,0,1,0,0-1.734H24.99a2.037,2.037,0,0,0-2.023,2.023V23.943a1.432,1.432,0,0,1-1.445,1.445H7.07a1.432,1.432,0,0,1-1.445-1.445V11.226A2.037,2.037,0,0,0,3.6,9.2Zm9.193,8.66a.867.867,0,0,0-.583,1.464L13.656,22.8a.867.867,0,0,0,1.278,0l3.179-3.468a.867.867,0,1,0-1.278-1.172L14.3,20.926l-2.54-2.772a.867.867,0,0,0-.7-.292Z" transform="translate(-1 -4)"/></svg>