<svg xmlns="http://www.w3.org/2000/svg" width="24.021" height="24.021" viewBox="0 0 24.021 24.021"><defs><style>.a{fill:#171631;}</style></defs><path class="a" d="M9,6A3.01,3.01,0,0,0,6.022,8.784,1,1,0,0,0,6,9V27.019a3.018,3.018,0,0,0,3,3H27.019a3.018,3.018,0,0,0,3-3V13.006a3.018,3.018,0,0,0-3-3H9A1,1,0,0,1,9,8H25.684a1,1,0,1,0,0-2ZM8,12.005H27.019a.986.986,0,0,1,1,1V27.019a.986.986,0,0,1-1,1H9a.986.986,0,0,1-1-1ZM24.35,18.011a1.668,1.668,0,1,0,1.668,1.668A1.668,1.668,0,0,0,24.35,18.011Z" transform="translate(-6 -6)"/></svg>